<svg xmlns="http://www.w3.org/2000/svg" width="512" height="512"><path d="M3.757 145.28c1.883-13.527 2.954-18.562 5.803-27.275 7.314-22.369 21.034-42.05 39.06-56.027 14.382-11.153 26.908-17.335 45.587-22.5l9.19-2.542H409.25l10.285 2.682c17.638 4.6 30.091 10.53 43.788 20.85 20.883 15.736 36.516 39.426 43.447 65.84 2.765 10.537 2.967 12.435 2.986 28.08.027 21.957-2.378 33.073-11.305 52.254-4.765 10.24-142.72 217.592-151.819 228.192-22.078 25.718-55.21 40.748-89.83 40.748-34.605 0-66.504-14.503-89.626-40.748C160.292 427.019 19.844 216.15 15.51 207.12c-4.457-9.285-8.011-20.031-9.91-29.96-1.518-7.943-2.591-26.506-1.843-31.882z"/></svg>