<svg version="1.1" id="Vrstva_1" xmlns="http://www.w3.org/2000/svg" x="0" y="0" viewBox="0 0 512 512" xml:space="preserve"><style>.st0{fill:#433e3e}</style><path class="st0" d="M205.1 206.9l-67.7 170.6L308 309.8l67.6-170.5-170.5 67.6zm86.8 78.6L229.4 223 333 181.9s-32.2 81.2-41.1 103.6z"/><path class="st0" d="M256 0C114.8 0 0 114.8 0 256s114.8 256 256 256 256-114.8 256-256S397.2 0 256 0zm32 449.6l-30.9-48-31.1 48.3C142.5 437 76.2 371.4 62.4 288.2l49.4-31.8-49.5-31.9C75.8 141.1 142 75.2 225.6 62.1l31.5 49 31.3-48.7c83 13.9 148.5 80 161.5 163.3l-47.5 30.6 47.4 30.5C436.6 370 371 435.9 288 449.6z"/></svg>