<svg xmlns="http://www.w3.org/2000/svg" viewBox="0 0 512 512"><path d="M120.8 338.067c-27.96 0-50.7 22.739-50.7 50.7 0 27.961 22.74 50.7 50.7 50.7 27.962 0 50.7-22.739 50.7-50.7 0-27.961-22.74-50.7-50.7-50.7zm0 84.5c-18.64 0-33.8-15.16-33.8-33.8 0-18.641 15.16-33.8 33.8-33.8 18.64 0 33.8 15.16 33.8 33.8 0 18.64-15.16 33.8-33.8 33.8zm287.3-84.5c-27.96 0-50.7 22.739-50.7 50.7 0 27.961 22.74 50.7 50.7 50.7 27.962 0 50.7-22.739 50.7-50.7 0-27.961-22.738-50.7-50.7-50.7zm0 84.5c-18.64 0-33.799-15.16-33.799-33.8 0-18.641 15.16-33.8 33.8-33.8 18.641 0 33.8 15.16 33.8 33.8 0 18.64-15.159 33.8-33.8 33.8z"/><path d="M508.157 291.245l-76.05-118.3a8.452 8.452 0 0 0-7.107-3.879h-92.95a8.447 8.447 0 0 0-8.449 8.45v211.25a8.442 8.442 0 0 0 8.45 8.45h33.8v-16.9H340.5v-194.35h79.886L492.6 298.302v82.016h-42.25v16.9h50.7a8.442 8.442 0 0 0 8.449-8.45v-92.95a8.428 8.428 0 0 0-1.343-4.572z"/><path d="M374.301 278.916v-59.15h67.6v-16.9h-76.05a8.447 8.447 0 0 0-8.45 8.45v76.05a8.442 8.442 0 0 0 8.45 8.45h126.75v-16.901h-118.3zm-42.251-169H10.95a8.453 8.453 0 0 0-8.45 8.45v270.4a8.447 8.447 0 0 0 8.45 8.45h67.6v-16.9H19.4v-253.5h304.201v253.5H163.05v16.9h169a8.442 8.442 0 0 0 8.45-8.45v-270.4a8.447 8.447 0 0 0-8.45-8.45z"/><path d="M10.95 346.516h50.7v16.9h-50.7zm169 0h143.651v16.9h-143.65zm287.3 0h33.8v16.9h-33.8zM36.3 143.716h295.75v16.9H36.3zm76.05 236.6h16.9v16.9h-16.9zm287.301 0h16.9v16.9h-16.9zM36.3 76.116h118.3v16.9H36.3zm-33.8 0h16.9v16.9H2.5z"/></svg>