<svg xmlns="http://www.w3.org/2000/svg" width="512" height="512"><path d="M171.548 396.487c-61.84-34.303-78.932-44.716-81.476-49.634-2.692-5.207-3.217-20.081-3.21-91.043.008-79.028.284-85.272 4.042-91.434 5.635-9.24 153.775-91.588 164.764-91.588 5.497 0 26.056 10.347 81.677 41.103 40.882 22.607 77.001 43.99 80.265 47.517l5.936 6.413v176.67l-4.856 5.494c-6.887 7.792-151.994 87.82-161.332 88.976-6.596.817-17.478-4.57-85.81-42.474zm75.019-56.734V263.55l-69.099-39.266c-38.004-21.596-69.58-39.265-70.17-39.265-.591 0-.819 34.7-.507 77.11l.567 77.111 69.065 38.348c37.985 21.092 69.307 38.353 69.604 38.358.297.004.54-34.282.54-76.193zm94.964 34.052c33.831-18.735 62.225-35.127 63.097-36.425 2.238-3.332 2.051-150.203-.191-150.203-1.014 0-32.579 17.078-70.144 37.95L265.99 263.08v153.228l7.015-4.219c3.858-2.32 34.694-19.547 68.525-38.283zm-3.822-171.932c30.542-16.986 55.602-31.854 55.69-33.041.19-2.616-54.061-33.562-57.618-32.866-3.704.725-138.857 75.74-138.842 77.063.007.62 13.323 8.587 29.591 17.705l29.579 16.578 13.035-7.278c7.169-4.004 38.023-21.176 68.565-38.161zm-88.984-39.992c35.018-19.462 64.37-36.08 65.228-36.927 1.89-1.87-55.905-34.095-59.472-33.16-4.049 1.059-137.28 74.77-137.295 75.959-.008.594 13.258 8.542 29.48 17.663 25.09 14.107 30.16 16.23 33.943 14.217 2.446-1.303 33.098-18.29 68.116-37.752z" stroke-width="2.158"/><path d="M150.523 299.001c-15.431-8.505-28.77-16.506-29.643-17.78-.872-1.274-1.6-13.174-1.619-26.444-.026-19.087.676-24.834 3.359-27.518 1.865-1.865 3.969-3.391 4.674-3.391 1.764 0 45.102 23.206 55.064 29.485l8.094 5.102v25.44c0 25.818-1.347 30.65-8.526 30.596-1.84-.014-15.97-6.984-31.403-15.49zm20.49-20.637l-.015-10.251-14.862-8.094c-8.174-4.451-15.452-8.093-16.173-8.093-.72 0-1.31 4.296-1.31 9.547v9.547l15.647 8.747c8.606 4.81 15.89 8.77 16.187 8.797.297.034.533-4.561.526-10.2zm33.467 91.076c-15.517-8.583-19.713-13.802-16.27-20.236 3.405-6.363 8.93-5.596 26.094 3.621 15.657 8.408 20.19 14.786 14.973 21.071-3.915 4.718-10.282 3.573-24.797-4.456z" stroke-width="2.158"/><path d="M231.845 508.498c-22.693-1.976-57.053-10.424-71.61-17.607-7.466-3.684-9.712-5.985-9.712-9.952 0-9.778 5.438-10.308 28.294-2.758 30.854 10.192 57.326 14.006 87.174 12.56 96.35-4.668 178.24-65.196 210.564-155.633 21.18-59.26 17.664-125.749-9.592-181.384-5.815-11.87-12.073-23.526-13.907-25.9-3.259-4.22-3.544-4.11-12.727 4.857-9.49 9.268-15.931 11.32-20.668 6.582-3.596-3.595-3.596-58.13 0-61.726 3.596-3.596 58.13-3.596 61.727 0 4.703 4.703 2.714 10.41-7.389 21.212l-9.979 10.668 8.99 14.878c30.256 50.076 42.443 110.975 33.75 168.647-20.169 133.783-139.5 227.35-274.915 215.556zM446.159 92.592c-9.29-1.14-11.822.938-11.822 9.703v8.06l8.767-8.531 8.766-8.532zM121.818 471.638c-4.013-4.012-3.06-12.114 1.727-14.676 8.298-4.44 17.332 4.762 12.866 13.106-2.491 4.655-10.633 5.53-14.593 1.57zm-92.004-37.492c-5.375-5.375-4.11-9.058 7.241-21.06l10.633-11.242-7.622-11.83c-16.4-25.45-30.156-62.247-35.366-94.603-3.397-21.09-2.763-65.426 1.232-86.25C25.486 107.243 103.5 28.144 205.357 6.966c46.06-9.577 104.949-4.296 143.828 12.898 9.603 4.247 11.77 6.173 11.77 10.456 0 10.66-4.808 11.371-26.513 3.92-27.732-9.52-49.706-13.25-78.07-13.25-56.622 0-105.237 17.15-148.975 52.55-26.647 21.569-46.037 46.11-61.648 78.027-26.823 54.84-32.202 112.015-15.904 169.03 5.532 19.35 19.055 49.96 27.006 61.126l4.533 6.365 10.484-9.807c5.767-5.394 11.281-9.807 12.255-9.807.974 0 3.93 1.512 6.567 3.36 4.535 3.175 4.797 4.879 4.797 31.14 0 22.378-.66 28.441-3.391 31.173-4.969 4.968-57.314 4.968-62.282 0zm46.249-23.587c0-4.155-.295-7.554-.656-7.554-.36 0-3.95 3.4-7.977 7.554l-7.322 7.554h7.977c7.678 0 7.978-.283 7.978-7.554zM378.702 54.32c-8.112-5.681-4.935-16.064 4.916-16.064 9.48 0 13.624 12.862 5.537 17.19-5.248 2.809-4.761 2.861-10.453-1.125z" stroke-width="2.158"/></svg>