<svg xmlns="http://www.w3.org/2000/svg" width="512" height="512"><path d="M443.005 0H68.994C30.89 0 0 30.889 0 68.993v374.011c0 38.105 30.889 68.993 68.994 68.993h184.46l.315-182.96h-47.534c-6.177 0-11.19-4.995-11.214-11.172l-.228-58.976c-.024-6.21 5.005-11.258 11.216-11.258h47.447v-56.986c0-66.13 40.389-102.14 99.382-102.14h48.41c6.193 0 11.215 5.022 11.215 11.216v49.729c0 6.192-5.018 11.212-11.21 11.216l-29.707.014c-32.083 0-38.295 15.245-38.295 37.618v49.334h70.496c6.717 0 11.929 5.866 11.137 12.536l-6.99 58.976a11.216 11.216 0 0 1-11.137 9.896h-63.192L333.251 512h109.757C481.11 512 512 481.111 512 443.008V68.993C511.999 30.889 481.11 0 443.005 0z" fill-rule="evenodd"/></svg>