<svg xmlns="http://www.w3.org/2000/svg" viewBox="0 0 512 512"><path d="M477.813 144.687h-100.26c7.193-4.911 13.372-9.79 17.682-14.164 25.54-25.698 25.54-67.526 0-93.224-24.811-24.97-68.097-25.002-92.94 0-13.72 13.784-50.193 69.902-45.154 107.388h-2.282c5.007-37.486-31.434-93.604-45.154-107.388-24.843-25.002-68.129-24.97-92.94 0-25.54 25.698-25.54 67.526-.032 93.224 4.342 4.373 10.52 9.253 17.714 14.164H34.187c-17.46 0-31.687 14.228-31.687 31.688v79.219c0 8.745 7.098 15.843 15.844 15.843h15.844v190.125c0 17.46 14.227 31.688 31.687 31.688h380.25c17.46 0 31.688-14.228 31.688-31.688V271.437h15.843c8.746 0 15.844-7.098 15.844-15.843v-79.219c0-17.46-14.228-31.688-31.687-31.688zM139.232 59.638c6.432-6.464 14.956-10.013 24.019-10.013 9.03 0 17.555 3.549 23.987 10.013 21.358 21.484 42.588 76.367 35.205 84.004 0 0-1.33 1.045-5.862 1.045-21.896 0-63.692-22.751-77.35-36.504-13.276-13.372-13.276-35.173 0-48.545zm100.924 401.924H65.875V271.437h174.281zm0-221.812H34.188v-63.375h205.968zm84.606-180.112c12.865-12.897 35.173-12.865 48.006 0 13.278 13.372 13.278 35.173 0 48.545-13.657 13.753-55.453 36.504-77.349 36.504-4.531 0-5.862-1.014-5.894-1.045-7.351-7.637 13.88-62.52 35.237-84.004zm121.363 401.924H271.844V271.437h174.281zm31.688-221.812h-205.97v-63.375h205.97z"/></svg>