<svg xmlns="http://www.w3.org/2000/svg" width="512" height="512"><path d="M261.412 64.492c-55.752 0-101.11 46-101.11 102.54 0 35.1 17.454 67.397 46.69 86.393 29.855 19.397 66.503 21.459 100.559 5.569 7.246-3.38 10.42-12.08 7.084-19.43-3.333-7.348-11.91-10.566-19.159-7.185-24.902 11.619-51.474 10.298-72.899-3.622-20.906-13.583-33.387-36.658-33.387-61.726 0-40.386 32.4-73.242 72.222-73.242 39.824 0 72.223 32.856 72.223 73.242 0 8.077-6.48 14.649-14.445 14.649-7.278 0-14.076-5.598-14.442-14.426a17.097 17.097 0 0 1-.002-.223c0-24.231-19.44-43.945-43.334-43.945-23.894 0-43.333 19.714-43.333 43.945 0 24.232 19.44 43.945 43.333 43.945 11.09 0 21.215-4.25 28.888-11.224 7.672 6.974 17.8 11.224 28.89 11.224 23.894 0 43.334-19.713 43.334-43.945 0-56.54-45.359-102.539-101.112-102.539zm14.242 104.889c-1.115 6.962-7.067 12.299-14.242 12.299-7.964 0-14.444-6.572-14.444-14.649 0-8.077 6.48-14.648 14.444-14.648 7.407 0 13.52 5.683 14.344 12.973a14.852 14.852 0 0 0-.102 4.025z"/><path d="M478.078 198.258c-.004-3.788-1.508-7.575-4.23-10.335L420.3 133.62V20.547c0-8.09-6.467-14.649-14.444-14.649H116.968c-7.977 0-14.444 6.559-14.444 14.649V133.62l-53.547 54.303c-.05.05-.092.106-.142.16a14.819 14.819 0 0 0-4.088 10.175l-.001.028v263.667c0 24.263 19.467 43.945 43.333 43.945h346.667c23.919 0 43.333-19.733 43.333-43.945V198.258zm-57.777-23.206l22.906 23.23-22.906 23.229zm-288.889-35.36V35.195h260v215.612l-78.205 79.31h-103.59l-78.205-79.31zm-28.888 35.36v46.459l-22.906-23.23zm-28.89 280.834v-222.24l109.573 111.12zm20.43 20.714l115.555-117.187h103.59L428.761 476.6zm355.127-20.715l-109.572-111.12 109.572-111.12z"/></svg>