<svg xmlns="http://www.w3.org/2000/svg" width="512" height="512"><path d="M366.742 507.371c-3.401-.836-8.602-2.733-11.558-4.217-2.955-1.483-59.298-38.65-125.206-82.595-105.404-70.279-120.71-80.733-127.116-86.83-9.677-9.209-16.518-18.457-22.184-29.988-7.962-16.207-11.1-29.726-11.1-47.82 0-29.397 10.472-54.775 31.218-75.654 7.795-7.845 10.114-9.438 130.146-89.43 83.209-55.453 123.866-82.103 127.401-83.51 37.33-14.847 78.048 8.558 83.772 48.153.502 3.47.78 75.949.772 201.196-.013 211.133.179 201.242-4.126 212.97-3.084 8.4-6.75 13.89-14.419 21.591-5.733 5.757-8.526 7.872-14.345 10.866-4.083 2.101-10.104 4.409-13.842 5.305-8.67 2.078-20.868 2.063-29.413-.037zm15.281-251.533c0-153.595-.199-192.14-.988-191.668-.544.325-53.699 35.726-118.122 78.668-126.349 84.222-121.452 80.692-127.261 91.746-3.68 7.004-5.167 13.132-5.167 21.301 0 7.895 1.451 14.15 4.917 21.189 5.417 11.003 1.991 8.526 128.762 93.09 64.17 42.806 116.94 77.853 117.266 77.882.326.029.593-86.465.593-192.208z" stroke-width=".791"/></svg>