<svg xmlns="http://www.w3.org/2000/svg" height="512" width="512"><path d="M427.003 217.876L133.183 10.195c-7.098-5.018-15.439-7.695-23.97-7.695C85.347 2.5 66 23.013 66 48.316V463.68c0 9.044 2.525 17.888 7.258 25.414 13.238 21.055 40.068 26.743 59.925 12.707l293.82-207.681c4.747-3.355 8.82-7.674 11.985-12.707 13.238-21.054 7.872-49.5-11.985-63.536zm-14.982 44.475a11.195 11.195 0 0 1-2.996 3.177l-293.82 207.68c-4.964 3.51-11.671 2.087-14.98-3.175a11.96 11.96 0 0 1-1.815-6.354V48.316c0-6.326 4.837-11.454 10.803-11.454 2.133 0 4.218.672 5.993 1.924l293.819 207.681c4.964 3.509 6.306 10.62 2.996 15.884z" fill-rule="nonzero" fill="#30b0d5"/></svg>