<svg xmlns="http://www.w3.org/2000/svg" width="512" height="512"><path d="M143.907 508.649c-6.563-1.69-11.104-4.048-16.78-8.717-5.883-4.84-6.622-5.26-11.051-6.271-4.612-1.053-10.733.47-15.065 3.746-5.208 3.94-8.074 4.672-11.943 3.056-1.863-.779-3.786-2.034-4.274-2.79-.488-.757-1.115-45.765-1.395-100.02l-.509-98.644-27.457-.508c-25.388-.47-27.816-.674-32.213-2.706-6.734-3.112-13.547-9.778-16.834-16.472-2.484-5.058-2.816-6.882-2.802-15.398.019-11.26 2.13-16.815 9.086-23.913 2.949-3.009 33.873-21.41 108.864-64.78 57.61-33.318 107.263-61.763 110.34-63.213 3.076-1.45 7.538-3.119 9.915-3.71l4.322-1.073.004-9.367c.003-7.544.396-10.011 2.019-12.673 1.108-1.818 2.136-3.321 2.284-3.34 19.214-2.533 27.447-7.742 32.882-20.808 2.254-5.418 1.571-16.743-1.35-22.377-2.8-5.405-8.85-11.107-14.483-13.651-5.096-2.302-14.355-2.774-20.568-1.049-9.13 2.536-17.24 12.188-19.21 22.863a5961.03 5961.03 0 0 0-1.535 8.35c-1.034 5.67-10.9 7.503-15.512 2.88-2.377-2.383-2.65-3.394-2.506-9.305.434-17.898 13.13-35.44 30.526-42.18 8.933-3.461 23.153-3.9 31.855-.983 20.276 6.796 33.563 24.944 33.523 45.786-.027 13.943-4.238 23.767-14.628 34.13-6.777 6.76-12.034 9.85-22.2 13.044-1.288.405-1.78 1.636-1.78 4.455v3.896l7.374 2.203c5.794 1.732 30.335 15.502 114.66 64.336 61.436 35.578 108.97 63.735 111.223 65.882 4.862 4.634 9.467 13.992 10.345 21.025.891 7.131-1.674 16.906-6.156 23.453-3.787 5.534-6.641 7.976-13.748 11.764l-4.545 2.423-71.44.28-71.441.281v197.167l-3.593 3.594c-4.55 4.55-11.552 8.102-19.007 9.642-10.735 2.218-22.223-1.033-32.397-9.165-3.48-2.782-7.517-5.317-8.97-5.632-1.454-.316-3.146-.724-3.761-.908-3.428-1.02-10.665 1.95-16.242 6.665-9.388 7.939-20.946 11.24-31.927 9.119-7.234-1.398-12.486-4.017-19.301-9.626-5.13-4.223-12.508-7.113-15.718-6.158-.615.184-2.307.592-3.761.908-1.454.315-5.49 2.85-8.97 5.632-10.412 8.322-23.267 11.656-34.15 8.857zm18.78-21.519c1.976-1.395 5.641-4.1 8.145-6.01 6.032-4.606 12.868-6.687 21.968-6.687 9.474 0 16.99 2.711 24.522 8.846 12.008 9.78 18.112 9.78 30.12 0 8.464-6.894 15.4-9.136 26.635-8.61 10.566.495 15.257 2.335 23.774 9.323 7.991 6.556 15.878 8.124 22.751 4.522 1.676-.878 1.78-6.683 1.798-99.795.02-109.505-.106-107.22 6.557-119.342l3.581-6.516-103.976.278-103.977.277-5.084 2.709c-6.39 3.404-11.995 9.169-14.668 15.088-2.03 4.494-2.068 6.268-2.086 99.152l-.02 94.577 10.421.033c12.017.04 15.782 1.406 25.166 9.137 3.076 2.535 6.966 5.037 8.644 5.56 4.631 1.446 11.696.304 15.73-2.542zM88.441 271.765a1671.1 1671.1 0 0 1 3.898-8.094c.21-.42-1.98-.763-4.866-.763-4.444 0-5.703-.455-8.22-2.973-3.19-3.19-3.732-6.451-1.785-10.725 1.657-3.638 174.179-104.268 178.757-104.268 4.573 0 176.611 100.104 178.616 103.932 2.248 4.29 1.766 7.761-1.533 11.061l-2.973 2.973h-30.028c-17.432 0-32.15.455-35.087 1.085-5.954 1.277-14.7 7.179-17.605 11.88l-2.043 3.306h133.965l3.7-2.515c4.623-3.14 7.503-9.936 6.493-15.32-.38-2.027-2.151-5.24-3.935-7.142-3.18-3.389-200.35-118.34-214.008-124.767-7.533-3.545-15.786-4.535-23.851-2.86-8.334 1.73-219.837 124.103-223.266 129.179-4.605 6.816-2.198 16.962 5.075 21.397 3.084 1.88 5.124 2.018 29.247 1.983l25.932-.036zm300.975-28.598c-.233-.23-30.332-17.827-66.887-39.106-61.615-35.865-66.622-38.586-68.644-37.297-1.2.765-31.012 18.175-66.249 38.69-35.237 20.514-64.258 37.486-64.491 37.715-.233.23 59.678.417 133.135.417 73.458 0 133.369-.189 133.136-.419z" stroke-width="1.017"/><path d="M134.553 435.004c-4.026-3.164-4.374-6.226-4.374-38.466 0-32.919.463-36.58 4.931-38.972 3.494-1.87 7.935-1.265 11.262 1.534l3.129 2.633v69.808l-3.13 2.632c-3.665 3.085-8.516 3.426-11.818.83zm.361-97.994c-1.031-.6-2.525-2.645-3.319-4.545-1.248-2.988-1.247-3.926.009-6.933 1.725-4.127 4.242-5.675 9.232-5.675 8.022 0 11.784 9.823 5.983 15.624-2.888 2.889-8.358 3.591-11.905 1.53zm220.667 116.624c-3.783-3.506-3.817-10.33-.068-13.854 2.614-2.458 2.705-2.466 28.474-2.769l25.853-.303v-35.086c0-39.07.137-39.968 6.446-42.05 4.25-1.403 7.714-.24 10.74 3.607 2.185 2.778 2.197 3.057 1.913 45.419l-.286 42.623-2.853 2.454-2.854 2.453h-64.674zm57.231-118.444c-3.16-3.16-3.732-6.451-1.843-10.597 4.143-9.093 19.398-4.542 17.829 5.319-1.274 8.004-10.284 10.98-15.986 5.277z" stroke-width="1.017"/></svg>