<?xml version="1.0" encoding="UTF-8" standalone="no"?>
<svg
   xmlns:dc="http://purl.org/dc/elements/1.1/"
   xmlns:cc="http://creativecommons.org/ns#"
   xmlns:rdf="http://www.w3.org/1999/02/22-rdf-syntax-ns#"
   xmlns:svg="http://www.w3.org/2000/svg"
   xmlns="http://www.w3.org/2000/svg"
   xmlns:sodipodi="http://sodipodi.sourceforge.net/DTD/sodipodi-0.dtd"
   xmlns:inkscape="http://www.inkscape.org/namespaces/inkscape"
   width="512"
   height="512"
   viewBox="0 0 512 512"
   version="1.1"
   id="svg11"
   sodipodi:docname="ico_desktop-kosik.svg"
   inkscape:version="0.92.4 (f8dce91, 2019-08-02)">
  <metadata
     id="metadata17">
    <rdf:RDF>
      <cc:Work
         rdf:about="">
        <dc:format>image/svg+xml</dc:format>
        <dc:type
           rdf:resource="http://purl.org/dc/dcmitype/StillImage" />
        <dc:title>ico_desktop-kosik</dc:title>
      </cc:Work>
    </rdf:RDF>
  </metadata>
  <defs
     id="defs15" />
  <sodipodi:namedview
     pagecolor="#ffffff"
     bordercolor="#666666"
     borderopacity="1"
     objecttolerance="10"
     gridtolerance="10"
     guidetolerance="10"
     inkscape:pageopacity="0"
     inkscape:pageshadow="2"
     inkscape:window-width="1920"
     inkscape:window-height="1052"
     id="namedview13"
     showgrid="false"
     inkscape:zoom="9.44"
     inkscape:cx="13"
     inkscape:cy="12.5"
     inkscape:window-x="0"
     inkscape:window-y="0"
     inkscape:window-maximized="1"
     inkscape:current-layer="svg11" />
  <!-- Generator: Sketch 63.1 (92452) - https://sketch.com -->
  <title
     id="title2">ico_desktop-kosik</title>
  <desc
     id="desc4">Created with Sketch.</desc>
  <g
     id="Page-1"
     style="fill:none;fill-rule:evenodd;stroke:none;stroke-width:1"
     transform="matrix(20.28,0,0,20.28,-11.95369,2.5)">
    <g
       id="TFish_Uvodni-stranka"
       transform="translate(-1228,-81)"
       style="fill:#ffffff">
      <g
         id="Kosik"
         transform="translate(1218,71)">
        <g
           id="Basket"
           transform="translate(10,10)">
          <path
             d="m 12.976836,21.5 c 0.9665,0 1.75,0.7835 1.75,1.75 0,0.9665 -0.7835,1.75 -1.75,1.75 -0.967001,0 -1.75,-0.7835 -1.75,-1.75 0,-0.9665 0.782999,-1.75 1.75,-1.75 z m 6.999999,0 c 0.9665,0 1.75,0.7835 1.75,1.75 0,0.9665 -0.7835,1.75 -1.75,1.75 -0.967,0 -1.75,-0.7835 -1.75,-1.75 0,-0.9665 0.783,-1.75 1.75,-1.75 z M 7.7478355,0 c 0.5995,0 1.113,0.4295 1.2185,1.02 v 0 l 2.7650005,15.895 c 0.06,0.34 0.35,0.585 0.695,0.585 v 0 h 8.100499 c 0.345,0 0.635,-0.245 0.695,-0.585 v 0 l 1.895,-9.085 c 0.0495,-0.285 -0.08,-0.485 -0.1555,-0.58 C 22.881835,7.16 22.706336,7 22.416335,7 v 0 h -8.260499 c -0.607001,0 -1.126,-0.436 -1.231,-1.033 -0.135,-0.7655 0.453999,-1.467 1.231,-1.467 v 0 h 8.260499 c 1.99,0 3.5,1.79 3.165001,3.75 v 0 l -1.894501,9.088 c -0.265,1.538 -1.5995,2.662 -3.16,2.662 v 0 h -8.100499 c -1.5595,0 -2.8950005,-1.125 -3.1595005,-2.66 v 0 l -2.54,-14.84 h -4.6295 C 1.5133355,2.5 0.96133554,2.129 0.82433554,1.5615 0.62483554,0.7365 1.2453355,0 2.0368355,0 V 0 Z M 17.976835,13 c 0.69,0 1.25,0.5595 1.25,1.25 0,0.6905 -0.56,1.25 -1.25,1.25 v 0 h -2.499999 c -0.6905,0 -1.25,-0.5595 -1.25,-1.25 0,-0.6905 0.5595,-1.25 1.25,-1.25 v 0 z m 1,-4 c 0.69,0 1.25,0.5595 1.25,1.25 0,0.6905 -0.56,1.25 -1.25,1.25 v 0 h -3.999999 c -0.6905,0 -1.25,-0.5595 -1.25,-1.25 0,-0.6905 0.5595,-1.25 1.25,-1.25 v 0 z"
             id="ico_desktop-kosik"
             inkscape:connector-curvature="0" />
        </g>
      </g>
    </g>
  </g>
</svg>
