<?xml version="1.0" encoding="utf-8"?>
<!-- Generator: Adobe Illustrator 23.0.6, SVG Export Plug-In . SVG Version: 6.00 Build 0)  -->
<svg version="1.1" id="Vrstva_1" xmlns="http://www.w3.org/2000/svg" xmlns:xlink="http://www.w3.org/1999/xlink" x="0px" y="0px"
	 viewBox="0 0 512 512" style="enable-background:new 0 0 512 512;" xml:space="preserve">
<style type="text/css">
	.st0{fill:#433E3E;}
</style>
<title>3_compass</title>
<path class="st0" d="M205.1,206.9l-67.7,170.6L308,309.8l67.6-170.5L205.1,206.9z M291.9,285.5L229.4,223L333,181.9
	C333,181.9,300.8,263.1,291.9,285.5z"/>
<path class="st0" d="M256,0C114.8,0,0,114.8,0,256s114.8,256,256,256s256-114.8,256-256S397.2,0,256,0z M288,449.6l-30.9-48
	L226,449.9c-83.5-12.9-149.8-78.5-163.6-161.7l49.4-31.8l-49.5-31.9C75.8,141.1,142,75.2,225.6,62.1l31.5,49l31.3-48.7
	c83,13.9,148.5,80,161.5,163.3l-47.5,30.6l47.4,30.5C436.6,370,371,435.9,288,449.6z"/>
</svg>
