<?xml version="1.0" encoding="UTF-8" standalone="no"?>
<svg
   xmlns:dc="http://purl.org/dc/elements/1.1/"
   xmlns:cc="http://creativecommons.org/ns#"
   xmlns:rdf="http://www.w3.org/1999/02/22-rdf-syntax-ns#"
   xmlns:svg="http://www.w3.org/2000/svg"
   xmlns="http://www.w3.org/2000/svg"
   xmlns:sodipodi="http://sodipodi.sourceforge.net/DTD/sodipodi-0.dtd"
   xmlns:inkscape="http://www.inkscape.org/namespaces/inkscape"
   width="512"
   height="512"
   viewBox="0 0 512 512"
   version="1.1"
   id="svg14"
   sodipodi:docname="ico_telefon.svg"
   inkscape:version="0.92.4 (f8dce91, 2019-08-02)">
  <metadata
     id="metadata20">
    <rdf:RDF>
      <cc:Work
         rdf:about="">
        <dc:format>image/svg+xml</dc:format>
        <dc:type
           rdf:resource="http://purl.org/dc/dcmitype/StillImage" />
        <dc:title>ico_telefon</dc:title>
      </cc:Work>
    </rdf:RDF>
  </metadata>
  <defs
     id="defs18" />
  <sodipodi:namedview
     pagecolor="#ffffff"
     bordercolor="#666666"
     borderopacity="1"
     objecttolerance="10"
     gridtolerance="10"
     guidetolerance="10"
     inkscape:pageopacity="0"
     inkscape:pageshadow="2"
     inkscape:window-width="1920"
     inkscape:window-height="1052"
     id="namedview16"
     showgrid="false"
     inkscape:zoom="0.59"
     inkscape:cx="177.18339"
     inkscape:cy="-22.772704"
     inkscape:window-x="0"
     inkscape:window-y="0"
     inkscape:window-maximized="1"
     inkscape:current-layer="svg14" />
  <!-- Generator: Sketch 63.1 (92452) - https://sketch.com -->
  <title
     id="title2">ico_telefon</title>
  <desc
     id="desc4">Created with Sketch.</desc>
  <g
     id="Page-1"
     style="fill:none;fill-rule:evenodd;stroke:none;stroke-width:1"
     transform="matrix(21.076819,0,0,21.076819,78.285345,-7.5965942)">
    <g
       id="TFish_Uvodni-stranka"
       transform="translate(-1277,-151)">
      <g
         id="Hlavicka-Copy"
         transform="translate(140,10)">
        <g
           id="Hlavicka">
          <g
             id="Telefon"
             transform="translate(859,141)">
            <g
               id="ico_telefon"
               transform="translate(278)">
              <path
                 d="M 15.953846,19.716827 11.513942,14.65 C 11.019231,14.083654 10.253846,13.838942 9.5235577,14.017308 l -0.3615385,0.08558 C 8.7706731,14.196154 8.3682692,13.993269 8.2096154,13.623077 7.9192308,12.945192 7.7100961,12.224519 7.5802885,11.454808 7.5264423,11.136058 7.7365385,10.823077 8.0509615,10.746635 8.6802885,10.593269 9.1716346,10.149039 9.4125,9.5879808 9.5370192,9.2971154 9.5932692,8.9721154 9.5692308,8.6375 L 9.1125,2.7225962 C 8.9908654,1.1605769 7.4461538,0.11923077 5.9538462,0.59519231 L 2.7144231,1.84375 C 1.4504808,2.2451923 0.56009615,3.3581731 0.41826923,4.6745192 -0.28221154,11.157212 2.0144231,18.443269 6.9206731,23.304327 c 0.5341346,0.529808 1.4370192,0.355288 1.7600961,-0.324519 0.00913,-0.01827 0.017788,-0.03654 0.026442,-0.05481 C 8.9105769,22.496154 8.8076923,21.995192 8.4716346,21.660096 4.1884615,17.397596 2.1730769,11.053846 2.6197115,5.3879808 2.6754808,4.6740385 3.1706731,4.0701923 3.8543269,3.8519231 L 6.0600961,2.9370192 C 6.4596154,2.8086538 6.8721154,3.0841346 6.9072115,3.5072115 l 0.3432693,4.45 C 7.2822115,8.3298077 7.0326923,8.6701923 6.6711538,8.75625 L 5.91875,8.9399039 c -0.5826923,0.1432692 -0.9625,0.708173 -0.8730769,1.3019231 0.3966346,2.526442 0.9418269,4.270192 2.3427884,6.371154 0.3014424,0.452404 0.8836539,0.629327 1.3884616,0.427404 l 1.0149038,-0.405289 c 0.3028851,-0.120673 0.6538461,-0.03413 0.8649041,0.21875 l 3.2125,3.802404 c 0.293269,0.347596 0.154327,0.877885 -0.275962,1.032692 0,0 -0.963942,0.342308 -1.8,0.635096 -0.638461,0.223558 -0.940865,0.951443 -0.649519,1.5625 0.251923,0.527404 0.862981,0.778366 1.412981,0.579327 l 2.395192,-0.866346 c 1.610096,-0.577884 2.132212,-2.596154 1.001923,-3.882692"
                 id="Fill-80"
                 inkscape:connector-curvature="0"
                 style="fill:#ffffff" />
              <path
                 d="m 11.122596,2.0870192 c 0.03894,0.5033654 0.386539,0.9336539 0.874519,1.0620193 0.96202,0.2533653 1.703847,1.0923076 1.784616,2.139423 0.08125,1.0471154 -0.522116,1.9903846 -1.433173,2.3889423 -0.4625,0.2024039 -0.739423,0.6812501 -0.700481,1.1841347 0.0649,0.8379807 0.94375,1.3432695 1.710096,0.9980769 1.796154,-0.8086539 2.98125,-2.6807693 2.820192,-4.7572116 C 16.017308,3.0259615 14.558173,1.3596154 12.658654,0.8375 11.848077,0.61442308 11.057692,1.2495192 11.122596,2.0870192"
                 id="Fill-81"
                 inkscape:connector-curvature="0"
                 style="fill:#30b0d5" />
            </g>
          </g>
        </g>
      </g>
    </g>
  </g>
</svg>
