<?xml version="1.0" encoding="UTF-8" standalone="no"?>
<svg
   xmlns:dc="http://purl.org/dc/elements/1.1/"
   xmlns:cc="http://creativecommons.org/ns#"
   xmlns:rdf="http://www.w3.org/1999/02/22-rdf-syntax-ns#"
   xmlns:svg="http://www.w3.org/2000/svg"
   xmlns="http://www.w3.org/2000/svg"
   xmlns:sodipodi="http://sodipodi.sourceforge.net/DTD/sodipodi-0.dtd"
   xmlns:inkscape="http://www.inkscape.org/namespaces/inkscape"
   width="512"
   height="512"
   viewBox="0 0 512 512"
   version="1.1"
   id="svg13"
   sodipodi:docname="search.svg"
   inkscape:version="0.92.4 (f8dce91, 2019-08-02)">
  <metadata
     id="metadata19">
    <rdf:RDF>
      <cc:Work
         rdf:about="">
        <dc:format>image/svg+xml</dc:format>
        <dc:type
           rdf:resource="http://purl.org/dc/dcmitype/StillImage" />
        <dc:title>Search</dc:title>
      </cc:Work>
    </rdf:RDF>
  </metadata>
  <defs
     id="defs17" />
  <sodipodi:namedview
     pagecolor="#ffffff"
     bordercolor="#666666"
     borderopacity="1"
     objecttolerance="10"
     gridtolerance="10"
     guidetolerance="10"
     inkscape:pageopacity="0"
     inkscape:pageshadow="2"
     inkscape:window-width="1920"
     inkscape:window-height="1052"
     id="namedview15"
     showgrid="false"
     inkscape:zoom="9.44"
     inkscape:cx="12.5"
     inkscape:cy="11.779006"
     inkscape:window-x="0"
     inkscape:window-y="0"
     inkscape:window-maximized="1"
     inkscape:current-layer="svg13" />
  <!-- Generator: Sketch 63.1 (92452) - https://sketch.com -->
  <title
     id="title2">Search</title>
  <desc
     id="desc4">Created with Sketch.</desc>
  <g
     id="Page-1"
     style="fill:none;fill-rule:evenodd;stroke:none;stroke-width:1"
     transform="matrix(20.739383,0,0,20.739383,-4.3182103,-7.7036122)">
    <g
       id="TFish_Uvodni-stranka"
       transform="translate(-903,-80)">
      <g
         id="Hledani"
         transform="translate(517,65)">
        <g
           id="Btn"
           transform="translate(386,15)">
          <g
             id="Search">
            <path
               d="m 24.416176,22.846078 -5.174509,-5.17598 c -0.530393,-0.530392 -1.379412,-0.517157 -1.917647,0.0059 -1.736765,1.686765 -4.183824,2.642157 -6.85,2.377942 C 6.4936274,19.656863 3.2632353,16.455882 2.8313726,12.47549 2.2284314,6.9362745 6.9294118,2.2990196 12.483333,3.0147059 c 3.54951,0.4558823 6.490687,3.1470588 7.25,6.6421569 0.301961,1.4068632 0.25049,2.7872552 -0.08578,4.0524512 -0.133333,0.50147 0.04314,1.033333 0.466176,1.334314 0.704412,0.503431 1.685295,0.136764 1.906863,-0.700491 0.315686,-1.191176 0.435294,-2.461765 0.32549,-3.779411 C 21.910294,5.3627451 17.762745,1.1078431 12.572059,0.55392157 5.552451,-0.19607843 -0.31568628,5.6421569 0.38578431,12.651961 0.90539216,17.892157 5.1990196,22.093137 10.44902,22.514706 c 2.953921,0.232843 5.685784,-0.698039 7.788725,-2.380392 l 4.445098,4.445098 c 0.478922,0.478431 1.254412,0.478431 1.733333,0 0.478432,-0.478432 0.478432,-1.254412 0,-1.733334"
               id="Fill-129"
               inkscape:connector-curvature="0"
               style="fill:#002b41" />
            <path
               d="M 15.042157,15.205882 C 14.643137,14.806863 14.029412,14.764706 13.55,15.062255 c -0.638235,0.396078 -1.390686,0.62402 -2.193627,0.62402 -0.743628,0 -1.4455887,-0.19755 -2.0529416,-0.542648 -0.4568628,-0.260294 -1.0269608,-0.20049 -1.407353,0.162746 l -0.073529,0.07059 c -0.5622549,0.537255 -0.4656862,1.473529 0.2063726,1.864706 0.9769608,0.568627 2.112745,0.895588 3.327451,0.895588 1.306372,0 2.523039,-0.377941 3.549509,-1.030392 0.638236,-0.405883 0.738726,-1.29853 0.203922,-1.833824 l -0.06765,-0.06716"
               id="Fill-130"
               inkscape:connector-curvature="0"
               style="fill:#30b0d5" />
          </g>
        </g>
      </g>
    </g>
  </g>
</svg>
