<?xml version="1.0" encoding="UTF-8" standalone="no"?>
<svg
   xmlns:dc="http://purl.org/dc/elements/1.1/"
   xmlns:cc="http://creativecommons.org/ns#"
   xmlns:rdf="http://www.w3.org/1999/02/22-rdf-syntax-ns#"
   xmlns:svg="http://www.w3.org/2000/svg"
   xmlns="http://www.w3.org/2000/svg"
   xmlns:sodipodi="http://sodipodi.sourceforge.net/DTD/sodipodi-0.dtd"
   xmlns:inkscape="http://www.inkscape.org/namespaces/inkscape"
   width="512"
   height="512"
   viewBox="0 0 512 512"
   version="1.1"
   id="svg10"
   sodipodi:docname="Triangle.svg"
   inkscape:version="0.92.4 (fd57863, 2020-04-02)">
  <metadata
     id="metadata16">
    <rdf:RDF>
      <cc:Work
         rdf:about="">
        <dc:format>image/svg+xml</dc:format>
        <dc:type
           rdf:resource="http://purl.org/dc/dcmitype/StillImage" />
        <dc:title>Triangle</dc:title>
      </cc:Work>
    </rdf:RDF>
  </metadata>
  <defs
     id="defs14" />
  <sodipodi:namedview
     pagecolor="#ffffff"
     bordercolor="#666666"
     borderopacity="1"
     objecttolerance="10"
     gridtolerance="10"
     guidetolerance="10"
     inkscape:pageopacity="0"
     inkscape:pageshadow="2"
     inkscape:window-width="1920"
     inkscape:window-height="1052"
     id="namedview12"
     showgrid="false"
     inkscape:zoom="5.9"
     inkscape:cx="15"
     inkscape:cy="20"
     inkscape:window-x="0"
     inkscape:window-y="0"
     inkscape:window-maximized="1"
     inkscape:current-layer="svg10" />
  <!-- Generator: Sketch 64 (93537) - https://sketch.com -->
  <title
     id="title2">Triangle</title>
  <desc
     id="desc4">Created with Sketch.</desc>
  <g
     id="Page-1"
     style="fill:none;fill-rule:evenodd;stroke:none;stroke-width:1"
     transform="matrix(12.674998,0,0,12.674998,66,2.4999961)">
    <g
       id="TFish_Predvypis_kompaktni"
       transform="translate(-1430,-2516)"
       style="fill:#30b0d5;fill-rule:nonzero">
      <g
         id="Naskladneno"
         transform="translate(140,2311)">
        <path
           d="m 1301.9922,211.51853 -16.3851,23.181 c -0.3959,0.56004 -0.6071,1.21807 -0.6071,1.89115 0,1.88292 1.6184,3.40932 3.6147,3.40932 h 32.7702 c 0.7136,0 1.4113,-0.19923 2.0051,-0.57259 1.6611,-1.04446 2.1099,-3.1612 1.0025,-4.72788 l -16.3851,-23.181 c -0.2647,-0.37452 -0.6054,-0.69589 -1.0025,-0.94557 -1.6611,-1.04446 -3.9053,-0.62111 -5.0127,0.94557 z m 3.5089,1.18197 c 0.099,0.0624 0.1844,0.14276 0.2506,0.23639 l 16.3851,23.181 c 0.2768,0.39167 0.1646,0.92086 -0.2506,1.18197 -0.1485,0.0933 -0.3229,0.14315 -0.5013,0.14315 h -32.7702 c -0.4991,0 -0.9037,-0.3816 -0.9037,-0.85233 0,-0.16827 0.053,-0.33278 0.1518,-0.47279 l 16.3851,-23.181 c 0.2768,-0.39167 0.8379,-0.4975 1.2532,-0.23639 z"
           id="Triangle"
           transform="rotate(90,1305,225)"
           inkscape:connector-curvature="0" />
      </g>
    </g>
  </g>
</svg>
