<?xml version="1.0" encoding="UTF-8" standalone="no"?>
<svg
   xmlns:dc="http://purl.org/dc/elements/1.1/"
   xmlns:cc="http://creativecommons.org/ns#"
   xmlns:rdf="http://www.w3.org/1999/02/22-rdf-syntax-ns#"
   xmlns:svg="http://www.w3.org/2000/svg"
   xmlns="http://www.w3.org/2000/svg"
   xmlns:sodipodi="http://sodipodi.sourceforge.net/DTD/sodipodi-0.dtd"
   xmlns:inkscape="http://www.inkscape.org/namespaces/inkscape"
   width="512"
   height="512"
   viewBox="0 0 512 512"
   version="1.1"
   id="svg13"
   sodipodi:docname="slider-arrow.svg"
   inkscape:version="0.92.4 (f8dce91, 2019-08-02)">
  <metadata
     id="metadata17">
    <rdf:RDF>
      <cc:Work
         rdf:about="">
        <dc:format>image/svg+xml</dc:format>
        <dc:type
           rdf:resource="http://purl.org/dc/dcmitype/StillImage" />
        <dc:title />
      </cc:Work>
    </rdf:RDF>
  </metadata>
  <sodipodi:namedview
     pagecolor="#ffffff"
     bordercolor="#666666"
     borderopacity="1"
     objecttolerance="10"
     gridtolerance="10"
     guidetolerance="10"
     inkscape:pageopacity="0"
     inkscape:pageshadow="2"
     inkscape:window-width="1920"
     inkscape:window-height="1052"
     id="namedview15"
     showgrid="false"
     inkscape:zoom="1.2642212"
     inkscape:cx="257.99435"
     inkscape:cy="265.76517"
     inkscape:window-x="0"
     inkscape:window-y="0"
     inkscape:window-maximized="1"
     inkscape:current-layer="svg13" />
  <defs
     id="defs5">
    <clipPath
       id="zlrda">
      <path
         d="m 17.824,7.737 a 7,7 0 0 0 -11.648,0 L -3.854,22.78 A 4,4 0 0 0 -0.526,29 h 25.052 a 4,4 0 0 0 3.328,-6.219 z"
         id="path2"
         inkscape:connector-curvature="0"
         style="fill:#ffffff" />
    </clipPath>
  </defs>
  <path
     style="stroke-width:0.79100084"
     d="m 366.7423,507.37098 c -3.40146,-0.83588 -8.60264,-2.73336 -11.55815,-4.21664 -2.95553,-1.48327 -59.29825,-38.6512 -125.20605,-82.5954 C 124.57377,350.28033 109.26876,339.82584 102.86197,333.72896 93.184972,324.52004 86.343779,315.27189 80.678485,303.74059 72.716058,287.53364 69.577956,274.01507 69.577956,255.92082 c 0,-29.39678 10.472088,-54.7747 31.218124,-75.65359 7.79502,-7.84493 10.11378,-9.43829 130.14604,-89.430988 83.20849,-55.45235 123.86634,-82.102685 127.40092,-83.508534 37.32977,-14.8476141 78.0479,8.557182 83.77192,48.152141 0.5016,3.469723 0.77975,75.948981 0.77211,201.196191 -0.0129,211.13251 0.17876,201.24217 -4.12616,212.97029 -3.08349,8.4005 -6.74969,13.89021 -14.41889,21.59064 -5.73333,5.75667 -8.52582,7.87202 -14.34494,10.86648 -4.08261,2.10088 -10.10396,4.4083 -13.84252,5.30454 -8.66898,2.0782 -20.86723,2.06285 -29.41226,-0.037 z m 15.28098,-251.53262 c 0,-153.5958 -0.19884,-192.141021 -0.98875,-191.668832 -0.54382,0.325078 -53.69837,35.726085 -118.12125,78.668912 -126.34916,84.22148 -121.45252,80.69139 -127.26128,91.74548 -3.68042,7.00385 -5.16698,13.13226 -5.16698,21.30112 0,7.89484 1.45135,14.14924 4.91693,21.18884 5.41681,11.00311 1.9912,8.5265 128.76221,93.09106 64.16994,42.80555 116.93958,77.85191 117.26587,77.88079 0.32629,0.0289 0.59325,-86.46444 0.59325,-192.20737 z"
     id="path11"
     inkscape:connector-curvature="0" />
</svg>
