<?xml version="1.0" encoding="UTF-8" standalone="no"?>
<!-- Generator: Adobe Illustrator 16.0.0, SVG Export Plug-In . SVG Version: 6.00 Build 0)  -->

<svg
   xmlns:dc="http://purl.org/dc/elements/1.1/"
   xmlns:cc="http://creativecommons.org/ns#"
   xmlns:rdf="http://www.w3.org/1999/02/22-rdf-syntax-ns#"
   xmlns:svg="http://www.w3.org/2000/svg"
   xmlns="http://www.w3.org/2000/svg"
   xmlns:sodipodi="http://sodipodi.sourceforge.net/DTD/sodipodi-0.dtd"
   xmlns:inkscape="http://www.inkscape.org/namespaces/inkscape"
   version="1.1"
   id="Capa_1"
   x="0px"
   y="0px"
   width="512"
   height="512"
   viewBox="0 0 512.00001 512.00001"
   xml:space="preserve"
   sodipodi:docname="triangle.svg"
   inkscape:version="0.92.4 (f8dce91, 2019-08-02)"><metadata
   id="metadata42"><rdf:RDF><cc:Work
       rdf:about=""><dc:format>image/svg+xml</dc:format><dc:type
         rdf:resource="http://purl.org/dc/dcmitype/StillImage" /><dc:title /></cc:Work></rdf:RDF></metadata><defs
   id="defs40" /><sodipodi:namedview
   pagecolor="#ffffff"
   bordercolor="#666666"
   borderopacity="1"
   objecttolerance="10"
   gridtolerance="10"
   guidetolerance="10"
   inkscape:pageopacity="0"
   inkscape:pageshadow="2"
   inkscape:window-width="1920"
   inkscape:window-height="1052"
   id="namedview38"
   showgrid="false"
   inkscape:zoom="0.63269421"
   inkscape:cx="186.504"
   inkscape:cy="186.504"
   inkscape:window-x="0"
   inkscape:window-y="0"
   inkscape:window-maximized="1"
   inkscape:current-layer="Capa_1" />
<g
   id="g5"
   transform="matrix(0,1.3592211,-1.3592211,0,509.63446,2.4998258)">
	<g
   id="Layer_8_16_">
		<path
   d="M 61.792,2.588 C 64.771,0.864 68.105,0 71.444,0 c 3.33,0 6.663,0.864 9.655,2.588 l 230.116,167.2 c 5.963,3.445 9.656,9.823 9.656,16.719 0,6.895 -3.683,13.272 -9.656,16.713 L 81.099,370.427 c -5.972,3.441 -13.334,3.441 -19.302,0 -5.973,-3.453 -9.66,-9.833 -9.66,-16.724 V 19.305 c 0,-6.892 3.681,-13.269 9.655,-16.717 z"
   id="path2"
   inkscape:connector-curvature="0" />
	</g>
</g>
<g
   id="g7"
   transform="translate(0,138.992)">
</g>
<g
   id="g9"
   transform="translate(0,138.992)">
</g>
<g
   id="g11"
   transform="translate(0,138.992)">
</g>
<g
   id="g13"
   transform="translate(0,138.992)">
</g>
<g
   id="g15"
   transform="translate(0,138.992)">
</g>
<g
   id="g17"
   transform="translate(0,138.992)">
</g>
<g
   id="g19"
   transform="translate(0,138.992)">
</g>
<g
   id="g21"
   transform="translate(0,138.992)">
</g>
<g
   id="g23"
   transform="translate(0,138.992)">
</g>
<g
   id="g25"
   transform="translate(0,138.992)">
</g>
<g
   id="g27"
   transform="translate(0,138.992)">
</g>
<g
   id="g29"
   transform="translate(0,138.992)">
</g>
<g
   id="g31"
   transform="translate(0,138.992)">
</g>
<g
   id="g33"
   transform="translate(0,138.992)">
</g>
<g
   id="g35"
   transform="translate(0,138.992)">
</g>
</svg>