<?xml version="1.0" encoding="UTF-8" standalone="no"?>
<svg
   xmlns:dc="http://purl.org/dc/elements/1.1/"
   xmlns:cc="http://creativecommons.org/ns#"
   xmlns:rdf="http://www.w3.org/1999/02/22-rdf-syntax-ns#"
   xmlns:svg="http://www.w3.org/2000/svg"
   xmlns="http://www.w3.org/2000/svg"
   xmlns:sodipodi="http://sodipodi.sourceforge.net/DTD/sodipodi-0.dtd"
   xmlns:inkscape="http://www.inkscape.org/namespaces/inkscape"
   width="512"
   height="512"
   viewBox="0 0 512 512"
   version="1.1"
   id="svg11"
   sodipodi:docname="ico_desktop-uzivagtel.svg"
   inkscape:version="0.92.4 (f8dce91, 2019-08-02)">
  <metadata
     id="metadata17">
    <rdf:RDF>
      <cc:Work
         rdf:about="">
        <dc:format>image/svg+xml</dc:format>
        <dc:type
           rdf:resource="http://purl.org/dc/dcmitype/StillImage" />
        <dc:title>ico_desktop-uzivagtel</dc:title>
      </cc:Work>
    </rdf:RDF>
  </metadata>
  <defs
     id="defs15" />
  <sodipodi:namedview
     pagecolor="#ffffff"
     bordercolor="#666666"
     borderopacity="1"
     objecttolerance="10"
     gridtolerance="10"
     guidetolerance="10"
     inkscape:pageopacity="0"
     inkscape:pageshadow="2"
     inkscape:window-width="1920"
     inkscape:window-height="1052"
     id="namedview13"
     showgrid="false"
     inkscape:zoom="0.417193"
     inkscape:cx="-367.25361"
     inkscape:cy="-176.63462"
     inkscape:window-x="0"
     inkscape:window-y="0"
     inkscape:window-maximized="1"
     inkscape:current-layer="svg11" />
  <!-- Generator: Sketch 63.1 (92452) - https://sketch.com -->
  <title
     id="title2">ico_desktop-uzivagtel</title>
  <desc
     id="desc4">Created with Sketch.</desc>
  <g
     id="Page-1"
     style="fill:none;fill-rule:evenodd;stroke:none;stroke-width:1"
     transform="matrix(20.28,0,0,20.28,16.147899,2.5)">
    <g
       id="TFish_Uvodni-stranka"
       transform="translate(-1045,-79)"
       style="fill:#ffffff">
      <g
         id="Kosik-Copy"
         transform="translate(1035,71)">
        <g
           id="Avatar"
           transform="translate(10,8)">
          <path
             d="m 12.141,0 c 3.3075,0 5.885,2.868 5.5325,6.1575 v 0 l -0.3075,2.871 c -0.1095,1.023 -0.495,1.954 -1.073,2.729 v 0 l 3.845,2.3825 c 1.405,0.87 2.385,2.27 2.7255,3.885 v 0 L 23.503,21.06 C 23.9335,23.09 22.3835,25 20.3085,25 v 0 H 3.358 C 1.283,25 -0.267,23.09 0.1635,21.06 v 0 L 0.803,18.025 C 1.1435,16.41 2.1235,15.01 3.5285,14.14 v 0 L 7.374,11.7585 C 6.7955,10.983 6.41,10.052 6.3005,9.0285 v 0 L 5.993,6.1575 C 5.6405,2.868 8.218,0 11.5255,0 v 0 z m 2.116,13.4425 C 13.522,13.799 12.6995,14 11.8335,14 10.967,14 10.144,13.799 9.4085,13.442 v 0 L 4.843,16.27 C 4.0285,16.775 3.448,17.6 3.2485,18.54 v 0 L 2.608,21.575 c -0.065,0.31 0.07,0.535 0.155,0.64 0.0855,0.11 0.2755,0.285 0.595,0.285 v 0 h 16.9505 c 0.3195,0 0.5095,-0.175 0.595,-0.285 0.085,-0.105 0.22,-0.33 0.155,-0.64 v 0 L 20.418,18.54 c -0.2,-0.94 -0.78,-1.765 -1.595,-2.27 v 0 z M 16.5835,18 c 0.69,0 1.25,0.5595 1.25,1.25 0,0.6905 -0.56,1.25 -1.25,1.25 h -2.5 c -0.6905,0 -1.25,-0.5595 -1.25,-1.25 0,-0.6905 0.5595,-1.25 1.25,-1.25 z M 12.141,2.5 H 11.5255 C 10.6445,2.5 9.835,2.861 9.2465,3.516 8.6575,4.1715 8.385,5.015 8.479,5.8905 v 0 L 8.7865,8.762 c 0.167,1.561 1.477,2.738 3.047,2.738 1.5695,0 2.8795,-1.177 3.0465,-2.738 v 0 L 15.188,5.891 C 15.282,5.015 15.009,4.1715 14.42,3.516 13.8315,2.861 13.022,2.5 12.141,2.5 Z"
             id="ico_desktop-uzivagtel"
             inkscape:connector-curvature="0" />
        </g>
      </g>
    </g>
  </g>
</svg>
