<svg class="svg-icon" width="22" height="31" viewbox="0 0 22 31" xmlns="http://www.w3.org/2000/svg">
    <g fill="none" fill-rule="evenodd">
        <path class="svg-icon__item-1" d="M16.0148431 21.2836275c.7482549.414549 1.6928432.1300784 2.0861177-.6297255 1.9572549-3.7856471 3.5789804-7.6873922 3.5789804-10.0166471C21.6799412 4.7654902 16.914451 0 11.0426863 0 5.17031373 0 .40543137 4.7654902.40543137 10.6372549c0 4.564902 6.6072549 15.1778431 9.54860785 19.1409804.34099998.4558823.84550978.6807843 1.35549018.6807843.5172745 0 1.0394118-.2370588 1.3743333-.7172549.6522157-.9293922 1.4855687-2.2137647 2.3857844-3.6962941.4473725-.7379216.1932941-1.701353-.5622549-2.1183333-.7111765-.3926667-1.6059216-.1507451-2.0277647.5440196-.4084706.6716666-.8132942 1.3165882-1.2065687 1.9213921-3.47078429-5.0390196-7.82841174-12.8984314-7.82841174-15.7552941 0-4.18803921 3.40939216-7.59803921 7.59803924-7.59803921 4.1880392 0 7.5980392 3.41 7.5980392 7.59803921 0 1.6843333-1.4083726 5.0797451-3.2373726 8.6204314-.3768627.7300196-.1069804 1.6278039.6114902 2.0259412" fill="#002B41"/>
        <path class="svg-icon__item-2" d="M11.0426863 5.47058824c-2.85382355 0-5.16666669 2.31345098-5.16666669 5.16666666 0 2.8532157 2.31284314 5.1666667 5.16666669 5.1666667 2.8532157 0 5.1666666-2.313451 5.1666666-5.1666667 0-2.85321568-2.3134509-5.16666666-5.1666666-5.16666666zm0 3.03921568c1.1725294 0 2.127451.95431373 2.127451 2.12745098 0 1.1731373-.9549216 2.127451-2.127451 2.127451-1.17313728 0-2.12745101-.9543137-2.12745101-2.127451 0-1.17313725.95431373-2.12745098 2.12745101-2.12745098z" fill="#30B0D5"/>
    </g>
</svg>
