<svg class="svg-icon" width="27" height="26" viewbox="0 0 27 26" xmlns="http://www.w3.org/2000/svg">
    <g fill="none" fill-rule="evenodd">
        <path class="svg-icon__item-1" d="M23.74684 22.65276c0 .41236-.33488.74724-.74776.74724h-19.305c-.41288 0-.74724-.33488-.74724-.74724V8.97c0-.3588.29068-.65.65-.65h19.5c.3588 0 .65.2912.65.65v13.68276zM6.16564 2.92188C6.30552 2.72012 6.53536 2.6 6.7808 2.6h5.26604v3.12h-7.8182l1.937-2.79812zM19.91236 2.6c.24544 0 .47528.12012.61516.32188l1.937 2.79812h-7.81768V2.6h5.26552zm5.83908 3.30044l-3.08672-4.45848C22.03968.53924 21.01112 0 19.91236 0H6.7808C5.68204 0 4.65348.53924 4.02844 1.44196L.94172 5.90044c-.3874.55952-.59488 1.2246-.59488 1.90528v14.84704C.34684 24.50136 1.84548 26 3.69408 26h19.305c1.8486 0 3.34776-1.49864 3.34776-3.34724V7.80572c0-.68068-.208-1.34576-.5954-1.90528z" fill="#002B41"/>
        <path class="svg-icon__item-2" d="M17.24684 13.52h-7.8c-.71812 0-1.3-.58188-1.3-1.3 0-.71812.58188-1.3 1.3-1.3h7.8c.7176 0 1.3.58188 1.3 1.3 0 .71812-.5824 1.3-1.3 1.3" fill="#30B0D5"/>
    </g>
</svg>
