<svg class="svg-icon" width="26" height="25" viewbox="0 0 26 25" xmlns="http://www.w3.org/2000/svg">
    <g fill="none" fill-rule="evenodd">
        <path class="svg-icon__item-1" d="M12.9768355 21.5c.9665 0 1.75.7835 1.75 1.75s-.7835 1.75-1.75 1.75c-.967 0-1.75-.7835-1.75-1.75s.783-1.75 1.75-1.75zm7 0c.9665 0 1.75.7835 1.75 1.75s-.7835 1.75-1.75 1.75c-.967 0-1.75-.7835-1.75-1.75s.783-1.75 1.75-1.75zM7.74783554 0c.5995 0 1.113.4295 1.2185 1.02l2.76499996 15.895c.06.34.35.585.695.585h8.1005c.345 0 .635-.245.695-.585l1.895-9.085c.0495-.285-.08-.485-.1555-.58-.0795-.09-.255-.25-.545-.25h-8.2605c-.607 0-1.126-.436-1.231-1.033-.135-.7655.454-1.467 1.231-1.467h8.2605c1.99 0 3.5 1.79 3.165 3.75l-1.8945 9.088c-.265 1.538-1.5995 2.662-3.16 2.662h-8.1005c-1.5595 0-2.89499996-1.125-3.15949996-2.66l-2.54-14.84h-4.6295c-.584 0-1.136-.371-1.273-.9385-.1995-.825.421-1.5615 1.2125-1.5615z" fill="#FFF"/>
        <path class="svg-icon__item-2" d="M18.9768355 11.5c.69 0 1.25-.5595 1.25-1.25s-.56-1.25-1.25-1.25h-4c-.6905 0-1.25.5595-1.25 1.25s.5595 1.25 1.25 1.25h4M19.2268355 14.25c0-.6905-.56-1.25-1.25-1.25h-2.5c-.6905 0-1.25.5595-1.25 1.25s.5595 1.25 1.25 1.25h2.5c.69 0 1.25-.5595 1.25-1.25" fill="#30B0D5"/>
    </g>
</svg>
