<svg class="svg-icon" width="30" height="30" viewbox="0 0 30 30" xmlns="http://www.w3.org/2000/svg">
    <g fill="none" fill-rule="evenodd">
        <path class="svg-icon__item-1" d="M24.8442 19.824l-6.8166 2.814 1.1406 2.772 6.816-2.808c.5814-.24.9294-.798.9294-1.386 0-.192-.036-.39-.1134-.576-.3186-.762-1.1946-1.128-1.956-.816M6.8922.9426C6.8916.9414 6.8916.9402 6.891.9396 6.8664.8784 6.8328.8244 6.801.768 6.7836.7368 6.7704.7014 6.7506.672 6.7128.6138 6.6666.564 6.621.5124 6.6018.4902 6.5862.465 6.5658.444 6.153.0282 5.5164-.1236 4.9392.1086L1.0434 1.6782C.2748 1.9878-.0966 2.862.213 3.63c.3096.7686 1.1832 1.1406 1.9518.831l2.5104-1.0116 6.213 15.2262c.3234.7926 1.2426 1.155 2.0202.7962.729-.3366 1.0644-1.1874.7608-1.9314L6.8922.9426M26.1756 13.959l-6.8334 2.8074c-.2586.1062-.5544-.0174-.6606-.276l-2.1234-5.1684c-.1062-.258.0174-.5544.276-.6606l6.8334-2.8074c.2586-.1062.5544.0174.6606.276l2.1234 5.1684c.1062.2586-.0174.5544-.276.6606zm3.5376-.6156L26.616 5.805c-.4668-1.137-1.7664-1.6794-2.9034-1.2126l-9.2034 3.7812c-1.137.4668-1.68 1.767-1.2126 2.9034l3.0972 7.5384c.4668 1.137 1.767 1.68 2.9034 1.2126l9.2034-3.7812c1.137-.4668 1.6794-1.767 1.2126-2.9034z" fill="#002B41"/>
        <path class="svg-icon__item-2" d="M15.1002 21c-2.4858 0-4.5 2.0148-4.5 4.5s2.0142 4.5 4.5 4.5c2.4852 0 4.5-2.0148 4.5-4.5s-2.0148-4.5-4.5-4.5zm0 3c.8268 0 1.5.6732 1.5 1.5s-.6732 1.5-1.5 1.5c-.8274 0-1.5-.6732-1.5-1.5s.6726-1.5 1.5-1.5z" fill="#30B0D5"/>
    </g>
</svg>
