<svg class="svg-icon" width="31" height="26" viewbox="0 0 31 26" xmlns="http://www.w3.org/2000/svg">
    <g fill="none" fill-rule="evenodd">
        <path class="svg-icon__item-1" d="M27.2928 8.6202c-.0828 1.3362-.7206 2.5782-1.6674 3.525L15.3996 22.3704 5.1744 12.1452c-.9468-.9468-1.5846-2.1888-1.6674-3.525-.096-1.536.4584-2.9964 1.5354-4.074 1.0776-1.077 2.538-1.6314 4.074-1.5354 1.3362.0828 2.5782.7206 3.525 1.6674l.6372.6372 1.11 1.1106 1.584 1.5834c.6126.6126 1.6056.6126 2.2182 0s.6126-1.6062 0-2.2188l-.5724-.5724.672-.672C19.2876 3.549 20.6136 3 22.0242 3c1.41 0 2.736.549 3.7332 1.5462 1.077 1.0776 1.6314 2.538 1.5354 4.074zm.5832-6.1974C26.2596.8076 24.1416 0 22.0242 0c-2.1192 0-4.2384.8082-5.8554 2.4252l-.7692.7692-.7686-.7692C13.014.8082 10.8948 0 8.7756 0 6.6582 0 4.5402.8076 2.9238 2.4228c-3.2238 3.2208-3.051 8.6634.1716 11.886l.5952.5946 10.065 10.0656c.9084.9078 2.3802.9078 3.2886 0l10.065-10.0656.5952-.5946c3.2226-3.2226 3.3954-8.6652.1716-11.886z" fill="#002B41"/>
        <path class="svg-icon__item-2" d="M10.5852 14.106l-2.6916-2.691c-.5856-.5856-.5856-1.5354 0-2.121.5856-.5862 1.5354-.5862 2.121 0l2.6916 2.691c.5856.5856.5856 1.5354 0 2.121-.5856.5862-1.5354.5862-2.121 0" fill="#30B0D5"/>
    </g>
</svg>
