<svg class="svg-icon" width="18" height="17" xmlns="http://www.w3.org/2000/svg">
  <g fill="none" fill-rule="evenodd">
    <path class="svg-icon__item-1" d="M14.449 0H3.004A2.778 2.778 0 00.227 2.778v7.364a2.778 2.778 0 002.777 2.778h.868l-1.15 2.703a.85.85 0 001.594.59l1.618-3.801.01-.022.01-.025c.007-.018.009-.037.014-.056A.71.71 0 006 12.127c.002-.02.007-.037.007-.057l-.002-.017c0-.033-.005-.065-.01-.097-.003-.024-.005-.049-.01-.072-.006-.028-.016-.053-.025-.08-.009-.026-.016-.053-.027-.078-.01-.024-.025-.046-.038-.07-.013-.023-.026-.048-.042-.071-.016-.023-.035-.043-.053-.064-.017-.02-.033-.041-.052-.06-.02-.019-.042-.035-.063-.052-.022-.018-.043-.036-.066-.051-.02-.013-.043-.023-.065-.035a.813.813 0 00-.086-.042l-.016-.008c-.019-.007-.037-.01-.056-.015-.03-.008-.059-.017-.09-.023-.03-.005-.061-.007-.092-.01-.02 0-.038-.005-.057-.005H3.004a1.078 1.078 0 01-1.077-1.078V2.778c0-.596.482-1.078 1.077-1.078H14.45c.595 0 1.078.482 1.078 1.078v7.364c0 .596-.483 1.078-1.078 1.078H8.557a.85.85 0 100 1.7h5.892a2.778 2.778 0 002.778-2.778V2.778A2.778 2.778 0 0014.449 0" fill="#002B41"/>
    <path class="svg-icon__item-2" d="M11.447 4.93a.85.85 0 00-.85-.85h-6.12a.85.85 0 100 1.7h6.12c.469 0 .85-.38.85-.85" fill="#002B41"/>
    <path class="svg-icon__item-3" d="M8.897 8.84h-4.42a.85.85 0 110-1.7h4.42a.85.85 0 010 1.7" fill="#30B0D5"/>
  </g>
</svg>
