<svg class="svg-icon" width="31" height="29" viewbox="0 0 31 29" xmlns="http://www.w3.org/2000/svg">
    <g fill="none" fill-rule="evenodd">
        <path class="svg-icon__item-1" d="M26.1036 9.6h-3.5034c2.4-9.6-4.2-9.6-4.2-9.6h-1.6626c-1.6674 0-2.958 1.458-2.748 3.114l.0846.69c.084.642-.0606 1.296-.402 1.848l-2.0058 2.8866c-.4332.7062-.2142 1.6296.4908 2.0646.7068.4362 1.6338.2166 2.0688-.4914l2.5296-3.7398c.2886-.474.4446-1.02.4446-1.572 0-.126-.006-.246-.0246-.372l-.084-.666c-.051-.4044.2646-.762.672-.762h.6366c.0054 0 .75.078 1.1874.636.3246.414.9726 1.746.102 5.238l-.9294 3.726h7.098c.9054 0 1.566.864 1.3194 1.74l-2.3814 8.652c-.1686.594-.7086 1.008-1.326 1.008H10.3956c-.8748 0-1.6452.7176-1.593 1.5912.0228.378.1854.7206.435.9708.2706.27.6486.438 1.0626.438h13.3134c1.8846 0 3.5346-1.254 4.0326-3.072l2.4954-9.03c.7326-2.664-1.2714-5.298-4.038-5.298" fill="#002B41"/>
        <path class="svg-icon__item-2" d="M8.2002 25.128c0 .372-.3.672-.6726.672H4.0722c-.372 0-.672-.3-.672-.672V15.072c0-.372.3-.672.672-.672h3.4554c.3726 0 .6726.3.6726.672v10.056zM9.2862 11.4H2.3136c-1.0554 0-1.9134.858-1.9134 1.914v13.572c0 1.056.858 1.914 1.9134 1.914h6.9726c1.0554 0 1.914-.858 1.914-1.914V13.314c0-1.056-.8586-1.914-1.914-1.914z" fill="#30B0D5"/>
    </g>
</svg>
