<svg class="svg-icon" width="17" height="25" viewbox="0 0 17 25" xmlns="http://www.w3.org/2000/svg">
  <g fill="none" fill-rule="evenodd">
    <path class="svg-icon__item-1" d="M15.9538462 19.7168269L11.5139423 14.65c-.4947115-.5663462-1.2600961-.8110577-1.99038461-.6326923l-.36153846.0855769c-.39134615.0932692-.79375-.1096154-.95240385-.4798077-.29038461-.6778846-.49951923-1.3985577-.62932692-2.1682692-.05384615-.31875.15625-.6317308.47067308-.7081731.62932692-.1533654 1.12067308-.5975961 1.36153846-1.15865383.12451923-.29086539.18076923-.61586539.15673077-.95048077L9.1125 2.72259615C8.99086538 1.16057692 7.44615385.11923077 5.95384615.59519231L2.71442308 1.84375C1.45048077 2.24519231.56009615 3.35817308.41826923 4.67451923-.28221154 11.1572115 2.01442308 18.4432692 6.92067308 23.3043269c.53413461.5298077 1.43701923.3552885 1.76009615-.3245192.00913462-.0182692.01778846-.0365385.02644231-.0548077.20336538-.4288462.10048077-.9298077-.23557692-1.2649038-4.28317308-4.2625-6.2985577-10.60625-5.85192308-16.27211543.05576923-.71394231.55096154-1.31778846 1.23461538-1.53605769l2.20576923-.91490385c.39951923-.12836538.81201923.14711539.84711539.57019231l.34326923 4.45c.03173077.37259615-.21778846.71298077-.57932692.79903846L5.91875 8.93990385c-.58269231.14326923-.9625.70817307-.87307692 1.30192305.39663461 2.5264423.94182692 4.2701923 2.34278846 6.3711539.30144231.4524038.88365384.6293269 1.38846154.4274038l1.01490384-.4052884c.30288458-.1206731.65384618-.0341347.86490388.21875l3.2125 3.8024038c.2932692.3475962.1543269.8778846-.2759616 1.0326923 0 0-.9639423.3423077-1.8.6350962-.6384615.2235577-.9408654.9514423-.6495192 1.5625.2519231.5274038.8629808.7783653 1.4129808.5793269l2.3951923-.8663462c1.6100961-.5778846 2.1322115-2.5961538 1.0019231-3.8826923" fill="#FFF"/>
    <path class="svg-icon__item-2" d="M11.1225962 2.08701923c.0389423.50336539.3865384.93365385.8745192 1.06201923.9620192.25336539 1.7038461 1.09230769 1.7846154 2.13942308.08125 1.04711538-.5221154 1.99038461-1.4331731 2.38894231-.4625.20240384-.7394231.68125-.7004808 1.18413461.0649039.83798077.94375 1.34326924 1.7100962.99807692 1.7961538-.80865384 2.98125-2.68076923 2.8201923-4.75721153C16.0173077 3.02596154 14.5581731 1.35961538 12.6586538.8375c-.8105769-.22307692-1.6009615.41201923-1.5360576 1.24951923" fill="#30B0D5"/>
  </g>
</svg>
