<svg class="svg-icon" width="29" height="26" viewbox="0 0 29 26" xmlns="http://www.w3.org/2000/svg">
    <g fill="none" fill-rule="evenodd">
        <path class="svg-icon__item-1" d="M26.9422174 13.5652174v-2.8373913c0-2.49260871-2.0178261-4.5104348-4.5104348-4.5104348H4.88686957c-.94843479 0-1.71939131-.79356521-1.68265218-1.77421739.03391304-.91791304.84726087-1.61708695 1.76573913-1.61708695H22.4317826c.6432174 0 1.2067391.36626087 1.4899131.90943478.2486956.47647826.730826.78395652 1.2677826.78169565 1.0643043-.00395652 1.7391739-1.13495652 1.2496956-2.07943478C25.6891304.98913043 24.1766087 0 22.4317826 0H4.88686957C2.39595652 0 .377 2.01952174.377 4.51043478V21.4895652C.377 23.9821739 2.39426087 26 4.88686957 26H22.4317826c2.4926087 0 4.5104348-2.0178261 4.5104348-4.5104348v-2.8373913h-2.826087v2.8373913c0 .9269565-.7573913 1.6843478-1.6843478 1.6843478H4.88686957c-.92695653 0-1.68378261-.7573913-1.68378261-1.6843478V8.71508696c.52056521.21026087 1.08804347.3283913 1.68378261.3283913H22.4317826c.9269565 0 1.6843478.75739131 1.6843478 1.68434784v2.8373913h2.826087" fill="#002B41"/>
        <path class="svg-icon__item-2" d="M26.2119565 11.8695652h-8.1487391c-1.3395652 0-2.4253478 1.0857826-2.4253478 2.4259131v3.627c0 1.3395652 1.0857826 2.4253478 2.4253478 2.4253478h8.1487391c1.3395652 0 2.4259131-1.0857826 2.4259131-2.4253478v-3.627c0-1.3401305-1.0863479-2.4259131-2.4259131-2.4259131zm-7.748 5.6521739h7.3478261v-2.8260869h-7.3478261v2.8260869z" fill="#30B0D5"/>
    </g>
</svg>
