<svg class="svg-icon" width="25" height="25" viewbox="0 0 25 25" xmlns="http://www.w3.org/2000/svg">
      <g fill="none" fill-rule="evenodd">
            <path class="svg-icon__item-1" d="M24.4161765 22.8460784l-5.1745098-5.1759804c-.5303922-.5303921-1.3794118-.5171568-1.9176471.0058824-1.7367647 1.6867647-4.1838235 2.6421569-6.85 2.3779412-3.98039215-.3970589-7.21078431-3.5980392-7.64264705-7.5784314-.60294118-5.53921569 4.09803921-10.17647059 9.65196075-9.46078432 3.5495098.45588236 6.4906863 3.14705883 7.25 6.64215687.3019608 1.40686275.2504902 2.78725485-.0857843 4.05245095-.1333333.5014706.0431373 1.0333334.4661765 1.3343138.7044118.5034313 1.6852941.1367647 1.9068627-.7004902.3156863-1.1911765.4352942-2.4617648.3254902-3.7794118-.4357843-5.2009804-4.5833333-9.45588236-9.7740196-10.00980393-7.01960782-.75-12.88774508 5.08823529-12.18627449 12.09803923.51960785 5.2401961 4.8132353 9.4411765 10.06323529 9.8627451 2.9539216.2328431 5.6857843-.6980392 7.7887255-2.3803922l4.445098 4.4450981c.4789216.4784313 1.2544118.4784313 1.7333334 0 .4784313-.4784314.4784313-1.2544118 0-1.7333334" fill="#002B41"/>
            <path class="svg-icon__item-2" d="M15.0421569 15.2058824c-.3990196-.3990197-1.0127451-.4411765-1.4921569-.1436275-.6382353.3960784-1.3906863.6240196-2.1936275.6240196-.7436274 0-1.44558819-.197549-2.05294113-.542647-.45686274-.2602942-1.02696078-.2004902-1.40735294.162745l-.07352941.0705883c-.5622549.5372549-.46568627 1.4735294.20637255 1.8647059.97696078.5686274 2.11274513.8955882 3.32745093.8955882 1.3063726 0 2.5230393-.3779412 3.5495099-1.0303922.6382352-.4058823.7387254-1.2985294.2039215-1.8338235l-.067647-.0671568" fill="#30B0D5"/>
       </g>
</svg>
