<svg class="svg-icon" width="20" height="22" xmlns="http://www.w3.org/2000/svg">
  <g fill="none" fill-rule="evenodd">
    <path class="svg-icon__item-1" d="M17.256 12.276l.667 1.896a.5.5 0 01-.363.654l-1.96.44a.5.5 0 00-.37.344l-.576 1.926a.5.5 0 01-.677.315l-1.845-.797a.5.5 0 00-.502.062l-1.597 1.22a.5.5 0 01-.734-.143l-1.024-1.73a.5.5 0 00-.442-.244l-2.01.048a.5.5 0 01-.51-.547l.189-2a.5.5 0 00-.214-.46L3.635 12.12a.5.5 0 01-.092-.742l1.329-1.508a.5.5 0 00.096-.497l-.666-1.896a.5.5 0 01.362-.653l1.961-.44a.5.5 0 00.37-.345l.575-1.925a.5.5 0 01.678-.316l1.844.797a.5.5 0 00.502-.062l1.598-1.22a.5.5 0 01.733.143l1.024 1.73" stroke="#002B41" stroke-width="1.3" stroke-linecap="round"/>
    <path class="svg-icon__item-2" d="M18.69 7.435l-6.83 6.306a.79.79 0 01-1.17 0l-2.448-2.616a.928.928 0 010-1.25.79.79 0 011.17 0l1.864 1.991 6.245-5.681a.79.79 0 011.17 0 .928.928 0 010 1.25z" stroke="#30B0D5" stroke-width=".5" fill="#30B0D5" fill-rule="nonzero"/>
  </g>
</svg>
