<svg class="svg-icon" width="24" height="25" viewbox="0 0 24 25" xmlns="http://www.w3.org/2000/svg">
    <g fill="none" fill-rule="evenodd">
        <path class="svg-icon__item-1" d="M20.9035 22.215c-.0855.11-.2755.285-.595.285H3.358c-.3195 0-.5095-.175-.595-.285-.085-.105-.22-.33-.155-.64l.6405-3.035c.1995-.94.78-1.765 1.5945-2.27l4.5655-2.828c.7355.357 1.5585.558 2.425.558.866 0 1.6885-.201 2.4235-.5575l4.566 2.8275c.815.505 1.395 1.33 1.595 2.27l.6405 3.035c.065.31-.07.535-.155.64zM9.2465 3.516c.5885-.655 1.398-1.016 2.279-1.016h.6155c.881 0 1.6905.361 2.279 1.016.589.6555.862 1.499.768 2.375l-.308 2.871c-.167 1.561-1.477 2.738-3.0465 2.738-1.57 0-2.88-1.177-3.047-2.738L8.479 5.8905c-.094-.8755.1785-1.719.7675-2.3745zM23.503 21.06l-.6395-3.035c-.3405-1.615-1.3205-3.015-2.7255-3.885l-3.845-2.3825c.578-.775.9635-1.706 1.073-2.729l.3075-2.871C18.026 2.868 15.4485 0 12.141 0h-.6155C8.218 0 5.6405 2.868 5.993 6.1575l.3075 2.871c.1095 1.0235.495 1.9545 1.0735 2.73L3.5285 14.14c-1.405.87-2.385 2.27-2.7255 3.885L.1635 21.06C-.267 23.09 1.283 25 3.358 25h16.9505c2.075 0 3.625-1.91 3.1945-3.94z" fill="#FFF"/>
        <path class="svg-icon__item-2" d="M16.5835 20.5h-2.5c-.6905 0-1.25-.5595-1.25-1.25s.5595-1.25 1.25-1.25h2.5c.69 0 1.25.5595 1.25 1.25s-.56 1.25-1.25 1.25" fill="#30B0D5"/>
    </g>
</svg>
