<?xml version="1.0" encoding="UTF-8"?>
<svg width="30px" height="23px" viewBox="0 0 30 23" version="1.1" xmlns="http://www.w3.org/2000/svg" xmlns:xlink="http://www.w3.org/1999/xlink">
    <!-- Generator: sketchtool 54.1 (76490) - https://sketchapp.com -->
    <title>C8298478-8BDB-4385-B76B-167A1DEC170F</title>
    <desc>Created with sketchtool.</desc>
    <g id="Page-1" stroke="none" stroke-width="1" fill="none" fill-rule="evenodd">
        <g id="Bsh_Uvodni-stranka" transform="translate(-212.000000, -4966.000000)" fill="#000000" fill-rule="nonzero">
            <g id="Paticka" transform="translate(80.000000, 4705.000000)">
                <g id="Kontakty" transform="translate(132.000000, 256.000000)">
                    <g id="Telefon">
                        <g id="ico_smartphone" transform="translate(0.000000, 5.000000)">
                            <path d="M2.71423828,16.4716378 C1.41011719,13.2512857 1.40748047,9.75516837 2.71423828,6.52812755 C2.89675781,6.07751531 2.67984375,5.56388776 2.22966797,5.38106122 C1.77943359,5.19823469 1.26662109,5.41550255 1.08410156,5.86623214 C-0.359765625,9.43146684 -0.362988281,13.5604362 1.08410156,17.1336505 C1.26673828,17.5846735 1.77990234,17.8015893 2.22966797,17.6188214 C2.67990234,17.4359949 2.89675781,16.922426 2.71423828,16.4716378 Z" id="Path"></path>
                            <path d="M28.9158398,5.86629082 C28.7333203,5.41556122 28.2202734,5.19829337 27.7702734,5.3811199 C27.3200391,5.56388776 27.1031836,6.07751531 27.2857031,6.52830357 C28.5898242,9.74865561 28.5924609,13.244773 27.2857031,16.4718138 C27.0515625,17.0499821 27.4774219,17.683773 28.1005078,17.683773 C28.4480273,17.683773 28.777207,17.4760689 28.9158398,17.1337679 C30.3533789,13.5840816 30.3692578,9.45511224 28.9158398,5.86629082 Z" id="Path"></path>
                            <path d="M25.6519336,7.19060969 C25.4696484,6.73976276 24.9567188,6.52220153 24.5066016,6.70473469 C24.0563086,6.88726786 23.8391016,7.40077806 24.0213867,7.851625 C24.9808008,10.2244388 24.9829102,12.7702806 24.0213867,15.1482577 C23.7871875,15.7275408 24.2146289,16.3597474 24.8363672,16.3597474 C25.1840625,16.3597474 25.513418,16.1518087 25.6519336,15.809273 C26.7662695,13.0527934 26.7685547,9.95278061 25.6519336,7.19060969 Z" id="Path"></path>
                            <path d="M5.97855469,7.851625 C6.16083984,7.40071939 5.94363281,6.88726786 5.49333984,6.70473469 C5.04322266,6.5222602 4.53029297,6.73970408 4.34800781,7.19060969 C3.23367188,9.94714796 3.23138672,13.0471607 4.34800781,15.8093316 C4.53035156,16.2603546 5.04328125,16.4776811 5.49333984,16.2952066 C5.94363281,16.1126735 6.16083984,15.5991633 5.97855469,15.1483163 C5.01914062,12.7754439 5.01703125,10.229602 5.97855469,7.851625 Z" id="Path"></path>
                            <path d="M20.3358398,0.0504005102 L9.66410156,0.0504005102 C8.20916016,0.0504005102 7.02550781,1.23572194 7.02550781,2.69258418 L7.02550781,20.3072985 C7.02550781,21.7642194 8.20916016,22.9494821 9.66410156,22.9494821 L20.3358398,22.9494821 C21.7907813,22.9494821 22.9744336,21.7642194 22.9744336,20.3072985 L22.9744336,2.69264286 C22.9744336,1.23572194 21.7907813,0.0504005102 20.3358398,0.0504005102 Z M8.78455078,2.69264286 C8.78455078,2.20700255 9.1790625,1.81189541 9.66410156,1.81189541 L20.3358398,1.81189541 C20.8208203,1.81189541 21.2153906,2.20700255 21.2153906,2.69264286 L21.2153906,3.57339031 L8.78455078,3.57339031 L8.78455078,2.69264286 Z M8.78455078,5.33482653 L21.215332,5.33482653 L21.215332,17.6651148 L8.78455078,17.6651148 L8.78455078,5.33482653 Z M21.2153906,20.3073571 C21.2153906,20.7929974 20.8208203,21.1881046 20.3358398,21.1881046 L9.66410156,21.1881046 C9.17912109,21.1881046 8.78455078,20.7929974 8.78455078,20.3073571 L8.78455078,19.4266097 L21.2153906,19.4266097 L21.2153906,20.3073571 Z" id="Shape"></path>
                        </g>
                    </g>
                </g>
            </g>
        </g>
    </g>
</svg>