<?xml version="1.0" encoding="UTF-8"?>
<svg width="26px" height="30px" viewBox="0 0 26 30" version="1.1" xmlns="http://www.w3.org/2000/svg" xmlns:xlink="http://www.w3.org/1999/xlink">
    <!-- Generator: sketchtool 54.1 (76490) - https://sketchapp.com -->
    <title>B800774F-96DB-42C2-88A7-AC20A30393F7</title>
    <desc>Created with sketchtool.</desc>
    <g id="Page-1" stroke="none" stroke-width="1" fill="none" fill-rule="evenodd">
        <g id="Bsh_Uvodni-stranka" transform="translate(-214.000000, -5072.000000)" fill="#000000" fill-rule="nonzero">
            <g id="Paticka" transform="translate(80.000000, 4705.000000)">
                <g id="Kontakty" transform="translate(132.000000, 256.000000)">
                    <g id="Mail" transform="translate(0.000000, 108.000000)">
                        <g id="ico_mail" transform="translate(2.000000, 3.000000)">
                            <path d="M13,3.515625 C9.65484,3.515625 6.93333333,6.27556641 6.93333333,9.66796875 C6.93333333,11.7740039 7.98061333,13.7118164 9.73480444,14.851582 C11.5260889,16.0154297 13.7249378,16.1391211 15.7683067,15.1857422 C16.2030844,14.9828906 16.3934622,14.4609375 16.1933778,14.0199609 C15.9933511,13.579043 15.4787244,13.3859766 15.0438311,13.5888281 C13.5496978,14.2859766 11.9553778,14.2066992 10.66988,13.3715039 C9.41552444,12.5565234 8.66666667,11.1720117 8.66666667,9.66796875 C8.66666667,7.24482422 10.6106,5.2734375 13,5.2734375 C15.3894,5.2734375 17.3333333,7.24482422 17.3333333,9.66796875 C17.3333333,10.1525977 16.9445467,10.546875 16.4666667,10.546875 C16.0299822,10.546875 15.6220711,10.2110156 15.6001156,9.68132812 C15.6000578,9.676875 15.6,9.67242187 15.6,9.66796875 C15.6,8.21408203 14.43364,7.03125 13,7.03125 C11.56636,7.03125 10.4,8.21408203 10.4,9.66796875 C10.4,11.1218555 11.56636,12.3046875 13,12.3046875 C13.6653689,12.3046875 14.2729022,12.0496289 14.7332756,11.6312109 C15.1935911,12.0496875 15.80124,12.3046875 16.4666667,12.3046875 C17.9003067,12.3046875 19.0666667,11.1218555 19.0666667,9.66796875 C19.0666667,6.27556641 16.34516,3.515625 13,3.515625 Z M13.8544756,9.80894531 C13.7875689,10.2266602 13.4304444,10.546875 13,10.546875 C12.52212,10.546875 12.1333333,10.1525977 12.1333333,9.66796875 C12.1333333,9.18333984 12.52212,8.7890625 13,8.7890625 C13.4443689,8.7890625 13.8112,9.13007813 13.8606,9.56748047 C13.8476578,9.64734375 13.84552,9.72861328 13.8544756,9.80894531 Z" id="Shape"></path>
                            <path d="M25.9999422,11.5415625 C25.9997111,11.3142773 25.9094622,11.0871094 25.7461244,10.9214648 L22.5333333,7.66330078 L22.5333333,0.87890625 C22.5333333,0.393515625 22.1452978,0 21.6666667,0 L4.33333333,0 C3.85470222,0 3.46666667,0.393515625 3.46666667,0.87890625 L3.46666667,7.66330078 L0.253875556,10.9214648 C0.250871111,10.9245117 0.248328889,10.9279102 0.245382222,10.9310156 C0.0829688889,11.1007031 0.000404444444,11.3241211 5.77777778e-05,11.5415625 C5.77777778e-05,11.5421484 0,11.5426758 0,11.5432617 L0,27.3632812 C0,28.819043 1.16803556,30 2.6,30 L23.4,30 C24.8351422,30 26,28.8159961 26,27.3632812 L26,11.5432617 C26,11.5426758 25.9999422,11.5421484 25.9999422,11.5415625 Z M22.5333333,10.1491992 L23.9076933,11.5429688 L22.5333333,12.9367383 L22.5333333,10.1491992 Z M5.2,8.02763672 C5.2,8.02746094 5.2,8.02722656 5.2,8.02705078 L5.2,1.7578125 L20.8,1.7578125 L20.8,8.02705078 C20.8,8.02722656 20.8,8.02746094 20.8,8.02763672 L20.8,14.6945508 L16.1076933,19.453125 L9.89230667,19.453125 L5.2,14.6945508 L5.2,8.02763672 Z M3.46666667,10.1491992 L3.46666667,12.9367383 L2.09230667,11.5429688 L3.46666667,10.1491992 Z M1.73333333,26.9992383 L1.73333333,13.6648242 L8.30769333,20.3320312 L1.73333333,26.9992383 Z M2.95903111,28.2421875 L9.89230667,21.2109375 L16.1076933,21.2109375 L23.0409689,28.2421875 L2.95903111,28.2421875 Z M24.2666667,26.9992383 L17.6923067,20.3320312 L24.2666667,13.6648242 L24.2666667,26.9992383 Z" id="Shape"></path>
                        </g>
                    </g>
                </g>
            </g>
        </g>
    </g>
</svg>