<?xml version="1.0" encoding="UTF-8"?>
<svg width="20px" height="20px" viewBox="0 0 20 20" version="1.1" xmlns="http://www.w3.org/2000/svg" xmlns:xlink="http://www.w3.org/1999/xlink">
    <!-- Generator: sketchtool 54.1 (76490) - https://sketchapp.com -->
    <title>AECB94E5-234D-453A-957A-A7F5FF0CEA33</title>
    <desc>Created with sketchtool.</desc>
    <g id="Page-1" stroke="none" stroke-width="1" fill="none" fill-rule="evenodd">
        <g id="Bsh_Ucet-tmave" transform="translate(-1011.000000, -425.000000)" fill="#FFFFFF">
            <g id="Svetle" transform="translate(956.000000, 112.000000)">
                <g id="Facenook" transform="translate(40.000000, 298.000000)">
                    <path d="M32.3048913,15 L17.6950598,15 C16.206649,15 15,16.2065912 15,17.69504 L15,32.3048622 C15,33.793311 16.2066,34.9999021 17.6950598,34.9999021 L24.900559,34.9999021 L24.9128393,27.8530192 L23.0560686,27.8530192 C22.8147682,27.8530192 22.6189195,27.6579058 22.6179899,27.4166071 L22.6090855,25.1128702 C22.6081559,24.8702506 22.8045917,24.6730824 23.0472131,24.6730824 L24.9006079,24.6730824 L24.9006079,22.4470875 C24.9006079,19.8638414 26.4783077,18.4572443 28.7827464,18.4572443 L30.673716,18.4572443 C30.9156525,18.4572443 31.1118436,18.6533851 31.1118436,18.8953687 L31.1118436,20.8378915 C31.1118436,21.0797773 30.9157993,21.2758692 30.6739606,21.2760159 L29.5134973,21.2765541 C28.2602713,21.2765541 28.0176009,21.8720706 28.0176009,22.7460199 L28.0176009,24.6731313 L30.7713713,24.6731313 C31.0337586,24.6731313 31.2373375,24.9022476 31.2064166,25.1628228 L30.9333635,27.4665597 C30.9072373,27.6870163 30.7202931,27.853117 30.4983182,27.853117 L28.0298812,27.853117 L28.0176009,35 L32.3049892,35 C33.7934,35 35,33.7934088 35,32.305009 L35,17.69504 C34.9999511,16.2065912 33.793351,15 32.3048913,15 L32.3048913,15 Z" id="ico_facebook"></path>
                </g>
            </g>
        </g>
    </g>
</svg>