<?xml version="1.0" encoding="UTF-8"?>
<svg width="88px" height="100px" viewBox="0 0 88 100" version="1.1" xmlns="http://www.w3.org/2000/svg" xmlns:xlink="http://www.w3.org/1999/xlink">
    <title>0726432D-7B7A-466B-802D-C58B857ED7C6</title>
    <g id="Page-1" stroke="none" stroke-width="1" fill="none" fill-rule="evenodd">
        <g id="TFish_Detail" transform="translate(-1006.000000, -830.000000)">
            <g id="Galerie" transform="translate(210.000000, 279.000000)">
                <g id="prodlouzena-zaruka" transform="translate(796.000000, 551.000000)">
                    <path d="M76.7628793,0 L10.9564189,0 C4.90538033,0 0,4.86731464 0,10.8713973 L0,56.4807012 C0,80.5157593 19.6366206,100 43.8596491,100 C68.0826776,100 87.7192982,80.5157593 87.7192982,56.4807012 L87.7192982,10.8713973 C87.7192982,4.86731464 82.8139179,0 76.7628793,0" id="Fill-87" fill="#3EA938"></path>
                    <path d="M43.8591744,92.9824561 C23.5446748,92.9824561 7.01754386,76.6193332 7.01754386,56.5064259 L7.01754386,10.7184467 C7.01754386,8.67763894 8.69427812,7.01754386 10.7555409,7.01754386 L76.9628079,7.01754386 C79.0250201,7.01754386 80.7017544,8.67763894 80.7017544,10.7184467 L80.7017544,56.5064259 C80.7017544,76.6193332 64.173674,92.9824561 43.8591744,92.9824561" id="Fill-88" stroke="#FFFFFF" stroke-width="3.50877193" fill="#3EA938"></path>
                    <path d="M42.4146163,57.8947368 C55.7273438,57.8947368 67.6148704,65.2689874 75.4385965,76.8224053 C74.7348981,77.5395942 74.0177669,78.2317397 73.2873953,78.8976136 L69.6569574,84.1074331 L59.2599433,88.603171 L48.0969632,92.9824561 L36.0190004,92.9824561 L21.3868688,86.8673406 L12.2807018,77.4895044 L12.5003794,77.2866063 C11.8298275,76.619627 11.1715937,75.9294892 10.5263158,75.2165708 C18.3405896,64.5911007 29.7299435,57.8947368 42.4146163,57.8947368 Z" id="Combined-Shape" fill="#FFFFFF"></path>
                    <g id="Like" transform="translate(31.578947, 64.912281)">
                        <path d="M20.6819694,7.60611205 L17.9062139,7.60611205 C19.8077419,0 14.5785399,0 14.5785399,0 L13.2612564,0 C11.9401698,0 10.9176231,1.15517827 11.0840068,2.4672326 L11.1510357,3.0139219 C11.2175891,3.52258065 11.1030221,4.04074703 10.8325297,4.47809847 L9.24332767,6.76516129 C8.90010187,7.32468591 9.0736163,8.05629881 9.63219015,8.40095076 C10.1921902,8.74655348 10.9266553,8.57256367 11.2713073,8.0116129 L13.2755178,5.04855688 C13.5041766,4.67300509 13.6277759,4.24040747 13.6277759,3.80305603 C13.6277759,3.70322581 13.6230221,3.60814941 13.6082852,3.50831919 L13.5417317,2.98064516 C13.5013243,2.66023769 13.7513752,2.37691002 14.0741596,2.37691002 L14.5785399,2.37691002 C14.5828183,2.37691002 15.1727674,2.43870968 15.5193209,2.88081494 C15.7765025,3.20882852 16.2899151,4.26417657 15.6001358,7.03089983 L14.8637691,9.98302207 L20.4875382,9.98302207 C21.2048896,9.98302207 21.7282852,10.6675722 21.5329032,11.3616299 L19.6461121,18.2166384 C19.5125297,18.6872666 19.0846859,19.0152801 18.5955178,19.0152801 L8.23646859,19.0152801 C7.54336163,19.0152801 6.93297114,19.583837 6.97432937,20.2759932 C6.99239389,20.5754839 7.12122241,20.846927 7.31898132,21.0451613 C7.53337861,21.2590832 7.83286927,21.3921902 8.16088285,21.3921902 L18.7091341,21.3921902 C20.202309,21.3921902 21.5096095,20.3986418 21.9041766,18.9582343 L23.8812903,11.8037351 C24.4617317,9.69303905 22.8739559,7.60611205 20.6819694,7.60611205" id="Fill-25" fill="#3EA938"></path>
                        <path d="M6.49704584,19.9089983 C6.49704584,20.2037351 6.25935484,20.4414261 5.96414261,20.4414261 L3.22641766,20.4414261 C2.93168081,20.4414261 2.69398981,20.2037351 2.69398981,19.9089983 L2.69398981,11.9415959 C2.69398981,11.6468591 2.93168081,11.4091681 3.22641766,11.4091681 L5.96414261,11.4091681 C6.25935484,11.4091681 6.49704584,11.6468591 6.49704584,11.9415959 L6.49704584,19.9089983 Z M7.35748727,9.03225806 L1.83307301,9.03225806 C0.996876061,9.03225806 0.317079796,9.71205433 0.317079796,10.5487267 L0.317079796,21.3018676 C0.317079796,22.1385399 0.996876061,22.8183362 1.83307301,22.8183362 L7.35748727,22.8183362 C8.19368421,22.8183362 8.87395586,22.1385399 8.87395586,21.3018676 L8.87395586,10.5487267 C8.87395586,9.71205433 8.19368421,9.03225806 7.35748727,9.03225806 L7.35748727,9.03225806 Z" id="Fill-26" fill="#85C598"></path>
                    </g>
                    <text id="Prodloužená" font-family="Kanit-Regular, Kanit" font-size="10.5263158" font-weight="normal" fill="#FFFFFF">
                        <tspan x="12.0385965" y="24.2807018">Prodloužená</tspan>
                    </text>
                    <polygon id="Fill-156" fill="#1F4934" points="0 50.877193 87.7192982 50.877193 87.7192982 29.8245614 0 29.8245614"></polygon>
                    <text id="ZÁRUKA" font-family="Kanit-Bold, Kanit" font-size="14.0350877" font-weight="bold" fill="#FFFFFF">
                        <tspan x="12.0298246" y="44.8245614">ZÁRUKA</tspan>
                    </text>
                </g>
            </g>
        </g>
    </g>
</svg>