<svg width="164" height="101" xmlns="http://www.w3.org/2000/svg">
  <g fill="none" fill-rule="evenodd">
    <path d="M144 50c1 2 4 4 7 4s6-2 9-4c-3-2-6-4-9-4s-6 2-7 4M163 50l1-4-4 4 4 4-1-4" fill="#3DA949"/>
    <path d="M109 50c1 2 4 4 7 4s6-2 8-4c-2-2-5-4-8-4s-6 2-7 4M128 50l1-4h-1l-4 4 4 4h1l-1-4" fill="#31ABC2"/>
    <path d="M144 27c1 2 4 3 7 3l9-3c-3-2-6-4-9-4s-6 1-7 4M163 27l1-4-4 4 4 3-1-3M144 4c1 2 4 3 7 3l9-3c-3-2-6-4-9-4s-6 1-7 4M163 4l1-4-4 4 4 3-1-3" fill="#A1CA5E"/>
    <path d="M144 74c1 3 4 4 7 4s6-2 9-4l-9-3c-3 0-6 1-7 3M163 74l1-3-4 3 4 4-1-4" fill="#3DA949"/>
    <path d="M109 74c1 3 4 4 7 4s6-2 8-4c-2-2-5-3-8-3s-6 1-7 3M128 74l1-3h-1l-4 3 4 4h1l-1-4" fill="#31ABC2"/>
    <path d="M73 74c2 3 4 4 8 4 3 0 5-2 8-4-3-2-5-3-8-3-4 0-6 1-8 3M92 74l1-3-4 3 4 4-1-4" fill="#74BF91"/>
    <path d="M144 97c1 3 4 4 7 4s6-2 9-4l-9-3c-3 0-6 1-7 3M163 97l1-3-4 3 4 4-1-4M109 97c1 3 4 4 7 4s6-2 8-4c-2-2-5-3-8-3s-6 1-7 3M128 97l1-3h-1l-4 3 4 4h1l-1-4" fill="#0072A1"/>
    <path d="M73 97c2 3 4 4 8 4 3 0 5-2 8-4-3-2-5-3-8-3-4 0-6 1-8 3M92 97l1-3-4 3 4 4-1-4" fill="#31ABC2"/>
    <path d="M37 97c2 3 4 4 7 4s6-2 9-4l-9-3c-3 0-5 1-7 3M56 97l1-3-4 3 4 4-1-4" fill="#74BF91"/>
    <path d="M73 50c2 2 4 4 8 4 3 0 5-2 8-4-3-2-5-4-8-4-4 0-6 2-8 4M92 50l1-4-4 4 4 4-1-4M109 27c1 2 4 3 7 3s6-1 8-3c-2-2-5-4-8-4s-6 1-7 4M128 27l1-4h-1l-4 4 4 3h1l-1-3" fill="#A1CA5E"/>
    <path d="M37 74c2 3 4 4 7 4s6-2 9-4l-9-3c-3 0-5 1-7 3M56 74l1-3-4 3 4 4-1-4M0 97c1 3 4 4 7 4s6-2 9-4l-9-3c-3 0-6 1-7 3M19 97l1-3-4 3 4 4-1-4" fill="#74BF91"/>
  </g>
</svg>
