<svg width="336" height="207" xmlns="http://www.w3.org/2000/svg">
  <g fill-rule="nonzero" fill="none">
    <path d="M295 102c3 5 8 8 15 8 6 0 12-3 17-8-5-4-11-7-17-7-7 0-12 3-15 7M334 102l2-7h-1l-8 7 8 8h1l-2-8" fill="#57585A"/>
    <path d="M223 102c3 5 8 8 15 8 6 0 12-3 17-8-5-4-11-7-17-7-7 0-12 3-15 7M262 102l2-7h-1l-8 7 8 8h1l-2-8" fill="#808285"/>
    <path d="M295 54c3 5 8 8 15 8 6 0 12-3 17-8-5-4-11-7-17-7-7 0-12 3-15 7M334 54l2-7h-1l-8 7 8 8h1l-2-8M295 7c3 5 8 8 15 8 6 0 12-3 17-8-5-4-11-7-17-7-7 0-12 3-15 7M334 7l2-7h-1l-8 7 8 8h1l-2-8" fill="#A8A9AD"/>
    <path d="M295 152c3 5 8 8 15 8 6 0 12-3 17-8-5-4-11-7-17-7-7 0-12 3-15 7M334 152l2-7h-1l-8 7 8 8h1l-2-8" fill="#57585A"/>
    <path d="M223 152c3 5 8 8 15 8 6 0 12-3 17-8-5-4-11-7-17-7-7 0-12 3-15 7M262 152l2-7h-1l-8 7 8 8h1l-2-8" fill="#808285"/>
    <path d="M150 152c3 5 8 8 15 8 6 0 12-3 17-8-5-4-11-7-17-7-7 0-12 3-15 7M189 152l2-7h-1l-8 7 8 8h1l-2-8" fill="#D1D2D4"/>
    <path d="M295 199c3 5 8 8 15 8 6 0 12-3 17-8-5-4-11-7-17-7-7 0-12 3-15 7M334 199l2-7h-1l-8 7 8 8h1l-2-8M223 199c3 5 8 8 15 8 6 0 12-3 17-8-5-4-11-7-17-7-7 0-12 3-15 7M262 199l2-7h-1l-8 7 8 8h1l-2-8" fill="#231F20"/>
    <path d="M150 199c3 5 8 8 15 8 6 0 12-3 17-8-5-4-11-7-17-7-7 0-12 3-15 7M189 199l2-7h-1l-8 7 8 8h1l-2-8" fill="#808285"/>
    <path d="M76 199c3 5 8 8 15 8 6 0 12-3 17-8-5-4-11-7-17-7-7 0-12 3-15 7M115 199l2-7h-1l-8 7 8 8h1l-2-8" fill="#D1D2D4"/>
    <path d="M150 102c3 5 8 8 15 8 6 0 12-3 17-8-5-4-11-7-17-7-7 0-12 3-15 7M189 102l2-7h-1l-8 7 8 8h1l-2-8M223 54c3 5 8 8 15 8 6 0 12-3 17-8-5-4-11-7-17-7-7 0-12 3-15 7M262 54l2-7h-1l-8 7 8 8h1l-2-8" fill="#A8A9AD"/>
    <path d="M76 152c3 5 8 8 15 8 6 0 12-3 17-8-5-4-11-7-17-7-7 0-12 3-15 7M115 152l2-7h-1l-8 7 8 8h1l-2-8M0 199c3 5 8 8 15 8 6 0 12-3 17-8-5-4-11-7-17-7-7 0-12 3-15 7M39 199l2-7h-1l-8 7 8 8h1l-2-8" fill="#D1D2D4"/>
  </g>
</svg>
