<?xml version="1.0" encoding="UTF-8"?>
<svg width="164px" height="101px" viewBox="0 0 164 101" version="1.1" xmlns="http://www.w3.org/2000/svg" xmlns:xlink="http://www.w3.org/1999/xlink">
    <title>Rybky_pdf</title>
    <g id="Page-1" stroke="none" stroke-width="1" fill="none" fill-rule="evenodd">
        <g id="Styleguide" transform="translate(-93.000000, -2563.000000)">
            <g id="Rybky_pdf" transform="translate(93.000000, 2563.000000)">
                <path d="M143.937198,50.0116191 C145.371567,52.1833547 148.040927,53.6714976 151.284228,53.6714976 C154.261367,53.6714976 157.113652,51.9716792 159.550725,50.0116191 C157.113652,48.051559 154.261367,46.352657 151.284228,46.352657 C148.040927,46.352657 145.371567,47.8398835 143.937198,50.0116191" id="Fill-1" fill="#3DA949"></path>
                <path d="M163.011158,50.0116191 C163.011158,48.6939163 163.347009,47.4504373 163.942029,46.352657 L163.600354,46.352657 C162.465642,47.4357758 161.091176,48.7754709 159.550725,50.0116191 C161.091176,51.2477674 162.465642,52.5874625 163.600354,53.6714976 L163.942029,53.6714976 C163.347009,52.572801 163.011158,51.329322 163.011158,50.0116191" id="Fill-3" fill="#3DA949"></path>
                <path d="M108.806763,50.0116191 C110.240254,52.1833547 112.910746,53.6714976 116.154248,53.6714976 C119.131572,53.6714976 121.984034,51.9716792 124.42029,50.0116191 C121.984034,48.051559 119.131572,46.352657 116.154248,46.352657 C112.910746,46.352657 110.240254,47.8398835 108.806763,50.0116191" id="Fill-5" fill="#31ABC2"></path>
                <path d="M127.880723,50.0116191 C127.880723,48.6939163 128.216574,47.4504373 128.810624,46.352657 L128.468948,46.352657 C127.335207,47.4357758 125.95977,48.7754709 124.42029,50.0116191 C125.95977,51.2477674 127.335207,52.5874625 128.468948,53.6714976 L128.811594,53.6714976 C128.216574,52.572801 127.880723,51.329322 127.880723,50.0116191" id="Fill-7" fill="#31ABC2"></path>
                <path d="M143.937198,26.5913293 C145.371567,28.7630649 148.040927,30.2512077 151.284228,30.2512077 C154.261367,30.2512077 157.113652,28.5513894 159.550725,26.5913293 C157.113652,24.6312692 154.261367,22.9323671 151.284228,22.9323671 C148.040927,22.9323671 145.371567,24.4195937 143.937198,26.5913293" id="Fill-9" fill="#A1CA5E"></path>
                <path d="M163.011158,26.5913293 C163.011158,25.2745428 163.347009,24.0301474 163.942029,22.9323671 L163.600354,22.9323671 C162.465642,24.0154859 161.091176,25.355181 159.550725,26.5913293 C161.091176,27.8274775 162.465642,29.1671726 163.600354,30.2512077 L163.942029,30.2512077 C163.347009,29.1525111 163.011158,27.9090321 163.011158,26.5913293" id="Fill-11" fill="#A1CA5E"></path>
                <path d="M143.937198,3.65896212 C145.371567,5.83069771 148.040927,7.31884058 151.284228,7.31884058 C154.261367,7.31884058 157.113652,5.61902222 159.550725,3.65896212 C157.113652,1.69890202 154.261367,0 151.284228,0 C148.040927,0 145.371567,1.48722653 143.937198,3.65896212" id="Fill-13" fill="#A1CA5E"></path>
                <path d="M163.011158,3.65896212 C163.011158,2.3421756 163.347009,1.09778027 163.942029,0 L163.600354,0 C162.465642,1.08311876 161.091176,2.42281388 159.550725,3.65896212 C161.091176,4.89511035 162.465642,6.23480547 163.600354,7.31884058 L163.942029,7.31884058 C163.347009,6.22014397 163.011158,4.97666498 163.011158,3.65896212" id="Fill-15" fill="#A1CA5E"></path>
                <path d="M143.937198,74.4077544 C145.371567,76.57949 148.040927,78.0676329 151.284228,78.0676329 C154.261367,78.0676329 157.113652,76.3678145 159.550725,74.4077544 C157.113652,72.4476943 154.261367,70.7487923 151.284228,70.7487923 C148.040927,70.7487923 145.371567,72.2360188 143.937198,74.4077544" id="Fill-17" fill="#3DA949"></path>
                <path d="M163.011158,74.4077544 C163.011158,73.0900515 163.347009,71.8465725 163.942029,70.7487923 L163.600354,70.7487923 C162.465642,71.831911 161.091176,73.1716062 159.550725,74.4077544 C161.091176,75.6439026 162.465642,76.9835977 163.600354,78.0676329 L163.942029,78.0676329 C163.347009,76.9689362 163.011158,75.7254572 163.011158,74.4077544" id="Fill-19" fill="#3DA949"></path>
                <path d="M108.806763,74.4077544 C110.240254,76.57949 112.910746,78.0676329 116.154248,78.0676329 C119.131572,78.0676329 121.984034,76.3678145 124.42029,74.4077544 C121.984034,72.4476943 119.131572,70.7487923 116.154248,70.7487923 C112.910746,70.7487923 110.240254,72.2360188 108.806763,74.4077544" id="Fill-21" fill="#31ABC2"></path>
                <path d="M127.880723,74.4077544 C127.880723,73.0900515 128.216574,71.8465725 128.810624,70.7487923 L128.468948,70.7487923 C127.335207,71.831911 125.95977,73.1716062 124.42029,74.4077544 C125.95977,75.6439026 127.335207,76.9835977 128.468948,78.0676329 L128.811594,78.0676329 C128.216574,76.9689362 127.880723,75.7254572 127.880723,74.4077544" id="Fill-23" fill="#31ABC2"></path>
                <path d="M73.1884058,74.4077544 C74.6218961,76.57949 77.292389,78.0676329 80.5358908,78.0676329 C83.5132144,78.0676329 86.3656763,76.3678145 88.8019324,74.4077544 C86.3656763,72.4476943 83.5132144,70.7487923 80.5358908,70.7487923 C77.292389,70.7487923 74.6218961,72.2360188 73.1884058,74.4077544" id="Fill-25" fill="#74BF91"></path>
                <path d="M92.2623656,74.4077544 C92.2623656,73.0900515 92.5982169,71.8465725 93.1932367,70.7487923 L92.8505907,70.7487923 C91.7168499,71.831911 90.3423833,73.1716062 88.8019324,74.4077544 C90.3423833,75.6439026 91.7168499,76.9835977 92.8505907,78.0676329 L93.1932367,78.0676329 C92.5982169,76.9689362 92.2623656,75.7254572 92.2623656,74.4077544" id="Fill-27" fill="#74BF91"></path>
                <path d="M143.937198,97.3401215 C145.371567,99.5118571 148.040927,101 151.284228,101 C154.261367,101 157.113652,99.3001816 159.550725,97.3401215 C157.113652,95.3800614 154.261367,93.6811594 151.284228,93.6811594 C148.040927,93.6811594 145.371567,95.1683859 143.937198,97.3401215" id="Fill-29" fill="#0072A1"></path>
                <path d="M163.011158,97.3401215 C163.011158,96.0224187 163.347009,94.7789397 163.942029,93.6811594 L163.600354,93.6811594 C162.465642,94.7642782 161.091176,96.1039733 159.550725,97.3401215 C161.091176,98.5762698 162.465642,99.9159649 163.600354,101 L163.942029,101 C163.347009,99.9013034 163.011158,98.6578244 163.011158,97.3401215" id="Fill-31" fill="#0072A1"></path>
                <path d="M108.806763,97.3401215 C110.240254,99.5118571 112.910746,101 116.154248,101 C119.131572,101 121.984034,99.3001816 124.42029,97.3401215 C121.984034,95.3800614 119.131572,93.6811594 116.154248,93.6811594 C112.910746,93.6811594 110.240254,95.1683859 108.806763,97.3401215" id="Fill-33" fill="#0072A1"></path>
                <path d="M127.880723,97.3401215 C127.880723,96.0224187 128.216574,94.7789397 128.810624,93.6811594 L128.468948,93.6811594 C127.335207,94.7642782 125.95977,96.1039733 124.42029,97.3401215 C125.95977,98.5762698 127.335207,99.9159649 128.468948,101 L128.811594,101 C128.216574,99.9013034 127.880723,98.6578244 127.880723,97.3401215" id="Fill-35" fill="#0072A1"></path>
                <path d="M73.1884058,97.3401215 C74.6218961,99.5118571 77.292389,101 80.5358908,101 C83.5132144,101 86.3656763,99.3001816 88.8019324,97.3401215 C86.3656763,95.3800614 83.5132144,93.6811594 80.5358908,93.6811594 C77.292389,93.6811594 74.6218961,95.1683859 73.1884058,97.3401215" id="Fill-37" fill="#31ABC2"></path>
                <path d="M92.2623656,97.3401215 C92.2623656,96.0224187 92.5982169,94.7789397 93.1932367,93.6811594 L92.8505907,93.6811594 C91.7168499,94.7642782 90.3423833,96.1039733 88.8019324,97.3401215 C90.3423833,98.5762698 91.7168499,99.9159649 92.8505907,101 L93.1932367,101 C92.5982169,99.9013034 92.2623656,98.6578244 92.2623656,97.3401215" id="Fill-39" fill="#31ABC2"></path>
                <path d="M37.0821256,97.3401215 C38.5155271,99.5118571 41.1858544,101 44.4291551,101 C47.4062942,101 50.2585793,99.3001816 52.6956522,97.3401215 C50.2585793,95.3800614 47.4062942,93.6811594 44.4291551,93.6811594 C41.1858544,93.6811594 38.5155271,95.1683859 37.0821256,97.3401215" id="Fill-41" fill="#74BF91"></path>
                <path d="M56.1560854,97.3401215 C56.1560854,96.0224187 56.4919367,94.7789397 57.0869565,93.6811594 L56.7443105,93.6811594 C55.6105697,94.7642782 54.2361031,96.1039733 52.6956522,97.3401215 C54.2361031,98.5762698 55.6105697,99.9159649 56.7452812,101 L57.0869565,101 C56.4919367,99.9013034 56.1560854,98.6578244 56.1560854,97.3401215" id="Fill-43" fill="#74BF91"></path>
                <path d="M73.1884058,50.0116191 C74.6218961,52.1833547 77.292389,53.6714976 80.5358908,53.6714976 C83.5132144,53.6714976 86.3656763,51.9716792 88.8019324,50.0116191 C86.3656763,48.051559 83.5132144,46.352657 80.5358908,46.352657 C77.292389,46.352657 74.6218961,47.8398835 73.1884058,50.0116191" id="Fill-45" fill="#A1CA5E"></path>
                <path d="M92.2623656,50.0116191 C92.2623656,48.6939163 92.5982169,47.4504373 93.1932367,46.352657 L92.8505907,46.352657 C91.7168499,47.4357758 90.3423833,48.7754709 88.8019324,50.0116191 C90.3423833,51.2477674 91.7168499,52.5874625 92.8505907,53.6714976 L93.1932367,53.6714976 C92.5982169,52.572801 92.2623656,51.329322 92.2623656,50.0116191" id="Fill-47" fill="#A1CA5E"></path>
                <path d="M108.806763,26.5913293 C110.240254,28.7630649 112.910746,30.2512077 116.154248,30.2512077 C119.131572,30.2512077 121.984034,28.5513894 124.42029,26.5913293 C121.984034,24.6312692 119.131572,22.9323671 116.154248,22.9323671 C112.910746,22.9323671 110.240254,24.4195937 108.806763,26.5913293" id="Fill-49" fill="#A1CA5E"></path>
                <path d="M127.880723,26.5913293 C127.880723,25.2745428 128.216574,24.0301474 128.810624,22.9323671 L128.468948,22.9323671 C127.335207,24.0154859 125.95977,25.355181 124.42029,26.5913293 C125.95977,27.8274775 127.335207,29.1671726 128.468948,30.2512077 L128.811594,30.2512077 C128.216574,29.1525111 127.880723,27.9090321 127.880723,26.5913293" id="Fill-51" fill="#A1CA5E"></path>
                <path d="M37.0821256,74.4077544 C38.5155271,76.57949 41.1858544,78.0676329 44.4291551,78.0676329 C47.4062942,78.0676329 50.2585793,76.3678145 52.6956522,74.4077544 C50.2585793,72.4476943 47.4062942,70.7487923 44.4291551,70.7487923 C41.1858544,70.7487923 38.5155271,72.2360188 37.0821256,74.4077544" id="Fill-53" fill="#74BF91"></path>
                <path d="M56.1560854,74.4077544 C56.1560854,73.0900515 56.4919367,71.8465725 57.0869565,70.7487923 L56.7443105,70.7487923 C55.6105697,71.831911 54.2361031,73.1716062 52.6956522,74.4077544 C54.2361031,75.6439026 55.6105697,76.9835977 56.7452812,78.0676329 L57.0869565,78.0676329 C56.4919367,76.9689362 56.1560854,75.7254572 56.1560854,74.4077544" id="Fill-55" fill="#74BF91"></path>
                <path d="M0,97.3401215 C1.43436935,99.5118571 4.10372878,101 7.34702952,101 C10.3241686,101 13.1764537,99.3001816 15.6135266,97.3401215 C13.1764537,95.3800614 10.3241686,93.6811594 7.34702952,93.6811594 C4.10372878,93.6811594 1.43436935,95.1683859 0,97.3401215" id="Fill-57" fill="#74BF91"></path>
                <path d="M19.0739598,97.3401215 C19.0739598,96.0224187 19.4098111,94.7789397 20.0048309,93.6811594 L19.6631556,93.6811594 C18.5284441,94.7642782 17.1539775,96.1039733 15.6135266,97.3401215 C17.1539775,98.5762698 18.5284441,99.9159649 19.6631556,101 L20.0048309,101 C19.4098111,99.9013034 19.0739598,98.6578244 19.0739598,97.3401215" id="Fill-59" fill="#74BF91"></path>
            </g>
        </g>
    </g>
</svg>