<?xml version="1.0" encoding="UTF-8"?>
<svg width="336px" height="207px" viewBox="0 0 336 207" version="1.1" xmlns="http://www.w3.org/2000/svg" xmlns:xlink="http://www.w3.org/1999/xlink">
    <title>rybky_tmavy-gradient</title>
    <g id="Page-1" stroke="none" stroke-width="1" fill="none" fill-rule="evenodd">
        <g id="rybky_tmavy-gradient" transform="translate(168.000000, 103.500000) scale(-1, 1) translate(-168.000000, -103.500000) " fill-rule="nonzero">
            <g id="Rybky_Gradient" transform="translate(168.000000, 103.500000) scale(-1, 1) translate(-168.000000, -103.500000) ">
                <path d="M295,102.499061 C297.939747,106.950044 303.410612,110 310.057773,110 C316.159435,110 322.005207,106.516214 327,102.499061 C322.005207,98.4819081 316.159435,95 310.057773,95 C303.410612,95 297.939747,98.0480781 295,102.499061" id="Fill-1" fill="#57585A"></path>
                <path d="M334.092175,102.499061 C334.092175,99.7984224 334.780504,97.2499061 336,95 L335.299735,95 C332.974138,97.2198573 330.157162,99.965569 327,102.499061 C330.157162,105.032553 332.974138,107.778265 335.299735,110 L336,110 C334.780504,107.748216 334.092175,105.1997 334.092175,102.499061" id="Fill-3" fill="#57585A"></path>
                <path d="M223,102.499061 C225.937946,106.950044 231.411134,110 238.058707,110 C244.160746,110 250.006881,106.516214 255,102.499061 C250.006881,98.4819081 244.160746,95 238.058707,95 C231.411134,95 225.937946,98.0480781 223,102.499061" id="Fill-5" fill="#808285"></path>
                <path d="M262.092175,102.499061 C262.092175,99.7984224 262.780504,97.2499061 263.998011,95 L263.297745,95 C260.974138,97.2198573 258.155172,99.965569 255,102.499061 C258.155172,105.032553 260.974138,107.778265 263.297745,110 L264,110 C262.780504,107.748216 262.092175,105.1997 262.092175,102.499061" id="Fill-7" fill="#808285"></path>
                <path d="M295,54.499061 C297.939747,58.9500438 303.410612,62 310.057773,62 C316.159435,62 322.005207,58.5162138 327,54.499061 C322.005207,50.4819081 316.159435,47 310.057773,47 C303.410612,47 297.939747,50.0480781 295,54.499061" id="Fill-9" fill="#A8A9AD"></path>
                <path d="M334.092175,54.499061 C334.092175,51.8003005 334.780504,49.2499061 336,47 L335.299735,47 C332.974138,49.2198573 330.157162,51.965569 327,54.499061 C330.157162,57.0325529 332.974138,59.7782647 335.299735,62 L336,62 C334.780504,59.7482159 334.092175,57.1996995 334.092175,54.499061" id="Fill-11" fill="#A8A9AD"></path>
                <path d="M295,7.49906097 C297.939747,11.9500438 303.410612,15 310.057773,15 C316.159435,15 322.005207,11.5162138 327,7.49906097 C322.005207,3.4819081 316.159435,0 310.057773,0 C303.410612,0 297.939747,3.04807813 295,7.49906097" id="Fill-13" fill="#A8A9AD"></path>
                <path d="M334.092175,7.49906097 C334.092175,4.80030049 334.780504,2.2499061 336,0 L335.299735,0 C332.974138,2.21985727 330.157162,4.96556905 327,7.49906097 C330.157162,10.0325529 332.974138,12.7782647 335.299735,15 L336,15 C334.780504,12.7482159 334.092175,10.1996995 334.092175,7.49906097" id="Fill-15" fill="#A8A9AD"></path>
                <path d="M295,152.499061 C297.939747,156.950044 303.410612,160 310.057773,160 C316.159435,160 322.005207,156.516214 327,152.499061 C322.005207,148.481908 316.159435,145 310.057773,145 C303.410612,145 297.939747,148.048078 295,152.499061" id="Fill-17" fill="#57585A"></path>
                <path d="M334.092175,152.499061 C334.092175,149.798422 334.780504,147.249906 336,145 L335.299735,145 C332.974138,147.219857 330.157162,149.965569 327,152.499061 C330.157162,155.032553 332.974138,157.778265 335.299735,160 L336,160 C334.780504,157.748216 334.092175,155.1997 334.092175,152.499061" id="Fill-19" fill="#57585A"></path>
                <path d="M223,152.499061 C225.937946,156.950044 231.411134,160 238.058707,160 C244.160746,160 250.006881,156.516214 255,152.499061 C250.006881,148.481908 244.160746,145 238.058707,145 C231.411134,145 225.937946,148.048078 223,152.499061" id="Fill-21" fill="#808285"></path>
                <path d="M262.092175,152.499061 C262.092175,149.798422 262.780504,147.249906 263.998011,145 L263.297745,145 C260.974138,147.219857 258.155172,149.965569 255,152.499061 C258.155172,155.032553 260.974138,157.778265 263.297745,160 L264,160 C262.780504,157.748216 262.092175,155.1997 262.092175,152.499061" id="Fill-23" fill="#808285"></path>
                <path d="M150,152.499061 C152.937946,156.950044 158.411134,160 165.058707,160 C171.160746,160 177.006881,156.516214 182,152.499061 C177.006881,148.481908 171.160746,145 165.058707,145 C158.411134,145 152.937946,148.048078 150,152.499061" id="Fill-25" fill="#D1D2D4"></path>
                <path d="M189.092175,152.499061 C189.092175,149.798422 189.780504,147.249906 191,145 L190.297745,145 C187.974138,147.219857 185.157162,149.965569 182,152.499061 C185.157162,155.032553 187.974138,157.778265 190.297745,160 L191,160 C189.780504,157.748216 189.092175,155.1997 189.092175,152.499061" id="Fill-27" fill="#D1D2D4"></path>
                <path d="M295,199.499061 C297.939747,203.950044 303.410612,207 310.057773,207 C316.159435,207 322.005207,203.516214 327,199.499061 C322.005207,195.481908 316.159435,192 310.057773,192 C303.410612,192 297.939747,195.048078 295,199.499061" id="Fill-29" fill="#231F20"></path>
                <path d="M334.092175,199.499061 C334.092175,196.798422 334.780504,194.249906 336,192 L335.299735,192 C332.974138,194.219857 330.157162,196.965569 327,199.499061 C330.157162,202.032553 332.974138,204.778265 335.299735,207 L336,207 C334.780504,204.748216 334.092175,202.1997 334.092175,199.499061" id="Fill-31" fill="#231F20"></path>
                <path d="M223,199.499061 C225.937946,203.950044 231.411134,207 238.058707,207 C244.160746,207 250.006881,203.516214 255,199.499061 C250.006881,195.481908 244.160746,192 238.058707,192 C231.411134,192 225.937946,195.048078 223,199.499061" id="Fill-33" fill="#231F20"></path>
                <path d="M262.092175,199.499061 C262.092175,196.798422 262.780504,194.249906 263.998011,192 L263.297745,192 C260.974138,194.219857 258.155172,196.965569 255,199.499061 C258.155172,202.032553 260.974138,204.778265 263.297745,207 L264,207 C262.780504,204.748216 262.092175,202.1997 262.092175,199.499061" id="Fill-35" fill="#231F20"></path>
                <path d="M150,199.499061 C152.937946,203.950044 158.411134,207 165.058707,207 C171.160746,207 177.006881,203.516214 182,199.499061 C177.006881,195.481908 171.160746,192 165.058707,192 C158.411134,192 152.937946,195.048078 150,199.499061" id="Fill-37" fill="#808285"></path>
                <path d="M189.092175,199.499061 C189.092175,196.798422 189.780504,194.249906 191,192 L190.297745,192 C187.974138,194.219857 185.157162,196.965569 182,199.499061 C185.157162,202.032553 187.974138,204.778265 190.297745,207 L191,207 C189.780504,204.748216 189.092175,202.1997 189.092175,199.499061" id="Fill-39" fill="#808285"></path>
                <path d="M76,199.499061 C78.9377635,203.950044 84.4106124,207 91.0577734,207 C97.1594347,207 103.005207,203.516214 108,199.499061 C103.005207,195.481908 97.1594347,192 91.0577734,192 C84.4106124,192 78.9377635,195.048078 76,199.499061" id="Fill-41" fill="#D1D2D4"></path>
                <path d="M115.092175,199.499061 C115.092175,196.798422 115.780504,194.249906 117,192 L116.297745,192 C113.974138,194.219857 111.157162,196.965569 108,199.499061 C111.157162,202.032553 113.974138,204.778265 116.299735,207 L117,207 C115.780504,204.748216 115.092175,202.1997 115.092175,199.499061" id="Fill-43" fill="#D1D2D4"></path>
                <path d="M150,102.499061 C152.937946,106.950044 158.411134,110 165.058707,110 C171.160746,110 177.006881,106.516214 182,102.499061 C177.006881,98.4819081 171.160746,95 165.058707,95 C158.411134,95 152.937946,98.0480781 150,102.499061" id="Fill-45" fill="#A8A9AD"></path>
                <path d="M189.092175,102.499061 C189.092175,99.7984224 189.780504,97.2499061 191,95 L190.297745,95 C187.974138,97.2198573 185.157162,99.965569 182,102.499061 C185.157162,105.032553 187.974138,107.778265 190.297745,110 L191,110 C189.780504,107.748216 189.092175,105.1997 189.092175,102.499061" id="Fill-47" fill="#A8A9AD"></path>
                <path d="M223,54.499061 C225.937946,58.9500438 231.411134,62 238.058707,62 C244.160746,62 250.006881,58.5162138 255,54.499061 C250.006881,50.4819081 244.160746,47 238.058707,47 C231.411134,47 225.937946,50.0480781 223,54.499061" id="Fill-49" fill="#A8A9AD"></path>
                <path d="M262.092175,54.499061 C262.092175,51.8003005 262.780504,49.2499061 263.998011,47 L263.297745,47 C260.974138,49.2198573 258.155172,51.965569 255,54.499061 C258.155172,57.0325529 260.974138,59.7782647 263.297745,62 L264,62 C262.780504,59.7482159 262.092175,57.1996995 262.092175,54.499061" id="Fill-51" fill="#A8A9AD"></path>
                <path d="M76,152.499061 C78.9377635,156.950044 84.4106124,160 91.0577734,160 C97.1594347,160 103.005207,156.516214 108,152.499061 C103.005207,148.481908 97.1594347,145 91.0577734,145 C84.4106124,145 78.9377635,148.048078 76,152.499061" id="Fill-53" fill="#D1D2D4"></path>
                <path d="M115.092175,152.499061 C115.092175,149.798422 115.780504,147.249906 117,145 L116.297745,145 C113.974138,147.219857 111.157162,149.965569 108,152.499061 C111.157162,155.032553 113.974138,157.778265 116.299735,160 L117,160 C115.780504,157.748216 115.092175,155.1997 115.092175,152.499061" id="Fill-55" fill="#D1D2D4"></path>
                <path d="M0,199.499061 C2.93974709,203.950044 8.41061245,207 15.0577734,207 C21.1594347,207 27.005207,203.516214 32,199.499061 C27.005207,195.481908 21.1594347,192 15.0577734,192 C8.41061245,192 2.93974709,195.048078 0,199.499061" id="Fill-57" fill="#D1D2D4"></path>
                <path d="M39.0921751,199.499061 C39.0921751,196.798422 39.780504,194.249906 41,192 L40.2997347,192 C37.9741379,194.219857 35.1571618,196.965569 32,199.499061 C35.1571618,202.032553 37.9741379,204.778265 40.2997347,207 L41,207 C39.780504,204.748216 39.0921751,202.1997 39.0921751,199.499061" id="Fill-59" fill="#D1D2D4"></path>
            </g>
        </g>
    </g>
</svg>