<svg width="233" height="54" xmlns="http://www.w3.org/2000/svg">
  <g fill="#000" fill-rule="nonzero">
    <path d="M152 30h10v3h-6v2h5v3h-5v5h-4zM164 30h4v13h-4zM172 43l-2-1v-3l2 1h4v-1-1h-1a62 62 0 00-2-1l-2-1-1-1v-2l1-3 4-1a17 17 0 014 1v3a10 10 0 00-5 0v1h1l1 1 3 1 1 1v2l-1 3-5 1h-2zM182 30h4v5h5v-5h4v13h-4v-5h-5v5h-4zM198 30h4v13h-4zM205 30h3l5 7v-7h4v13h-3l-5-7v7h-4V30zM221 41c-1-1-2-2-2-5l2-5 6-1h4v3h-4l-3 1-1 2 1 3 2 1 2-1v-1h-2v-3h6v7l-2 1h-3l-6-2z"/>
    <g>
      <path d="M154 14h-4v-3h12v3h-4v10h-4zM163 11h7l4 1 1 4v2l-2 2v1l2 3h-4l-2-3v-1h-2v4h-4V11zm6 6h2v-1l-1-2h-3v3h2zM179 23c-2-1-2-3-2-5 0-3 0-5 2-6l5-1 5 1 2 6-2 5-5 1-5-1zm7-3l1-2-1-3-2-1-3 1v5l3 1 2-1zM192 11h7l4 1 1 4v2l-2 2-3 1h-3v3h-4V11zm6 7l2-1v-1-1l-1-1h-3v4h2zM206 11h4v13h-4zM214 23l-2-5c0-3 1-4 2-5 1-2 3-2 6-2a14 14 0 014 1v3l-4-1-3 1-1 3 1 2 3 1 4-1v4h-4l-6-1z"/>
    </g>
    <path d="M85 38l1 5c8-4 16-10 23-16L90 13c-5 8-6 17-5 25zM76 35l3-11 8-13c-4-3-10-5-15-7a41 41 0 001 45l3-1v-2-11z"/>
    <path d="M57 26l4-11 9-12c-6-2-13-3-19-3h-1a40 40 0 007 53l4-1a40 40 0 01-4-26z"/>
    <g>
      <path d="M139 54a59 59 0 010-54h-2c-8 8-17 18-28 27 11 9 20 19 28 27h2z"/>
    </g>
    <path d="M35 22l4-11 8-11C26 1 9 12 0 27c9 13 23 23 41 26a41 41 0 01-6-31zM17 32a5 5 0 110-11 5 5 0 010 11z"/>
  </g>
</svg>
