<?xml version="1.0" encoding="UTF-8"?>
<svg width="233px" height="54px" viewBox="0 0 233 54" version="1.1" xmlns="http://www.w3.org/2000/svg" xmlns:xlink="http://www.w3.org/1999/xlink">
    <title>Logo</title>
    <g id="Page-1" stroke="none" stroke-width="1" fill="none" fill-rule="evenodd">
        <g id="Styleguide" transform="translate(-91.000000, -65.000000)" fill-rule="nonzero">
            <g id="Logo" transform="translate(91.000000, 65.000000)">
                <g id="Group" transform="translate(151.200000, 29.454545)" fill="#0077b3">
                    <polygon id="Path" points="0.470507674 0.254545455 10.5602834 0.254545455 10.5602834 3.10545455 4.39140496 3.10545455 4.39140496 5.34545455 9.7761039 5.34545455 9.7761039 8.24727273 4.39140496 8.24727273 4.39140496 13.3381818 0.470507674 13.3381818"></polygon>
                    <polygon id="Path" points="12.442314 0.254545455 16.3632113 0.254545455 16.3632113 13.3381818 12.442314 13.3381818"></polygon>
                    <path d="M20.7546163,13.2872727 C19.9704368,13.1345455 19.2908146,12.9309091 18.7157497,12.6763636 L18.7157497,9.52 C19.3430933,9.82545455 20.0749941,10.0290909 20.8068949,10.2327273 C21.5910744,10.3854545 22.2706966,10.4872727 22.9503188,10.4872727 C23.6822196,10.4872727 24.2572845,10.4363636 24.5709563,10.2836364 C24.8846281,10.1309091 25.041464,9.87636364 25.041464,9.52 C25.041464,9.26545455 24.9369067,9.06181818 24.7800708,8.90909091 C24.6232349,8.75636364 24.3618418,8.60363636 24.1004486,8.50181818 C23.7867769,8.4 23.3162692,8.24727273 22.636647,8.04363636 C22.4275325,7.99272727 22.2706966,7.94181818 22.1138607,7.89090909 C21.1728453,7.58545455 20.4932231,7.28 19.9704368,6.97454545 C19.4476505,6.61818182 19.0817001,6.21090909 18.820307,5.75272727 C18.6111924,5.29454545 18.4543566,4.68363636 18.4543566,3.97090909 C18.4543566,2.69818182 18.9248642,1.73090909 19.8658796,1.01818182 C20.8068949,0.356363636 22.2184179,-7.23461695e-15 24.04817,-7.23461695e-15 C24.7800708,-7.23461695e-15 25.5119717,0.0509090909 26.2961511,0.152727273 C27.0803306,0.254545455 27.7076741,0.407272727 28.2304604,0.56 L28.2304604,3.71636364 C27.0280519,3.25818182 25.8256434,3.00363636 24.6755136,3.00363636 C23.9436128,3.00363636 23.3685478,3.05454545 23.0025974,3.15636364 C22.636647,3.25818182 22.4275325,3.51272727 22.4275325,3.86909091 C22.4275325,4.12363636 22.4798111,4.27636364 22.636647,4.42909091 C22.7934829,4.58181818 23.0025974,4.68363636 23.3162692,4.78545455 C23.629941,4.88727273 24.1527273,5.04 24.8846281,5.24363636 C25.9302007,5.54909091 26.7666588,5.85454545 27.3417237,6.26181818 C27.9167887,6.66909091 28.3350177,7.12727273 28.5441322,7.63636364 C28.7532468,8.14545455 28.857804,8.75636364 28.857804,9.52 C28.857804,10.7418182 28.3872963,11.7090909 27.3940024,12.4218182 C26.452987,13.1345455 24.9891854,13.4909091 23.1594333,13.4909091 C22.4275325,13.4909091 21.5387957,13.44 20.7546163,13.2872727 Z" id="Path"></path>
                    <polygon id="Path" points="31.1057851 0.254545455 35.0266824 0.254545455 35.0266824 5.14181818 39.6272019 5.14181818 39.6272019 0.254545455 43.5480992 0.254545455 43.5480992 13.3381818 39.6272019 13.3381818 39.6272019 8.45090909 35.0266824 8.45090909 35.0266824 13.3381818 31.1057851 13.3381818"></polygon>
                    <polygon id="Path" points="46.5279811 0.254545455 50.4488784 0.254545455 50.4488784 13.3381818 46.5279811 13.3381818"></polygon>
                    <polygon id="Path" points="53.4287603 0.254545455 56.7745927 0.254545455 61.8456198 7.17818182 61.8456198 0.254545455 65.7665171 0.254545455 65.7665171 13.3381818 62.4206848 13.3381818 57.4019362 6.46545455 57.4019362 13.3381818 53.481039 13.3381818 53.481039 0.254545455"></polygon>
                    <path d="M69.7919717,11.8109091 C68.5372845,10.6909091 67.909941,9.06181818 67.909941,6.92363636 C67.909941,4.73454545 68.5372845,3.00363636 69.8442503,1.83272727 C71.1512161,0.661818182 73.0332468,0.0509090909 75.4903424,0.0509090909 C77.1109799,0.0509090909 78.4702243,0.254545455 79.6726328,0.610909091 L79.6726328,3.86909091 C78.5747816,3.46181818 77.2678158,3.25818182 75.8040142,3.25818182 C74.4970484,3.25818182 73.5037544,3.56363636 72.8764109,4.12363636 C72.2490673,4.68363636 71.9353955,5.6 71.9353955,6.87272727 C71.9353955,8.04363636 72.1967887,8.90909091 72.7718536,9.41818182 C73.2946399,9.97818182 74.131098,10.2327273 75.2812279,10.2327273 C75.9608501,10.2327273 76.5881936,10.1309091 77.2155372,9.97818182 L77.2155372,8.09454545 L74.549327,8.09454545 L74.549327,5.75272727 L80.5090909,5.75272727 L80.5090909,12.32 C79.934026,12.6763636 79.2021251,12.9818182 78.3656671,13.1854545 C77.4769303,13.3890909 76.4836364,13.5418182 75.3335065,13.5418182 C72.8241322,13.4909091 71.0466588,12.9309091 69.7919717,11.8109091 Z" id="Path"></path>
                </g>
                <g id="Group" transform="translate(150.218182, 10.800000)" fill="#0077b3">
                    <polygon id="Path" points="3.94480519 3.10545455 0.157792208 3.10545455 0.157792208 0.254545455 11.6766234 0.254545455 11.6766234 3.10545455 7.88961039 3.10545455 7.88961039 13.3381818 3.94480519 13.3381818"></polygon>
                    <path d="M13.1493506,0.305454545 L20.1448052,0.305454545 C21.7227273,0.305454545 22.9324675,0.712727273 23.774026,1.57818182 C24.562987,2.39272727 24.9837662,3.56363636 24.9837662,4.98909091 C24.9837662,5.85454545 24.7733766,6.61818182 24.3,7.28 C23.8792208,7.94181818 23.2480519,8.45090909 22.4590909,8.80727273 C22.6168831,8.90909091 22.7220779,9.06181818 22.8798701,9.21454545 C22.9850649,9.36727273 23.1428571,9.62181818 23.2480519,9.92727273 L24.7733766,13.3381818 L20.6707792,13.3381818 L19.2506494,10.1818182 C19.1454545,9.92727273 18.9876623,9.77454545 18.8298701,9.67272727 C18.6720779,9.57090909 18.4616883,9.52 18.1461039,9.52 L17.0415584,9.52 L17.0415584,13.3381818 L13.1493506,13.3381818 L13.1493506,0.305454545 Z M19.1980519,6.61818182 C19.7766234,6.61818182 20.1974026,6.46545455 20.512987,6.16 C20.8285714,5.85454545 20.9863636,5.44727273 20.9863636,4.93818182 C20.9863636,3.76727273 20.4077922,3.20727273 19.3032468,3.20727273 L17.0941558,3.20727273 L17.0941558,6.61818182 L19.1980519,6.61818182 Z" id="Shape"></path>
                    <path d="M28.2974026,11.9127273 C27.1402597,10.8436364 26.5616883,9.16363636 26.5616883,6.82181818 C26.5616883,4.42909091 27.1402597,2.69818182 28.2974026,1.62909091 C29.4545455,0.56 31.1902597,0.0509090909 33.4519481,0.0509090909 C35.7662338,0.0509090909 37.4493506,0.610909091 38.6064935,1.68 C39.7636364,2.74909091 40.3422078,4.48 40.3422078,6.82181818 C40.3422078,9.11272727 39.7636364,10.7927273 38.6064935,11.9127273 C37.4493506,12.9818182 35.7136364,13.5418182 33.4519481,13.5418182 C31.1902597,13.5418182 29.5071429,13.0327273 28.2974026,11.9127273 Z M35.661039,9.46909091 C36.1344156,8.90909091 36.3448052,8.04363636 36.3448052,6.82181818 C36.3448052,5.54909091 36.1344156,4.63272727 35.661039,4.12363636 C35.2402597,3.56363636 34.5038961,3.30909091 33.4519481,3.30909091 C32.4525974,3.30909091 31.7162338,3.56363636 31.2428571,4.12363636 C30.8220779,4.68363636 30.5590909,5.54909091 30.5590909,6.82181818 C30.5590909,8.04363636 30.7694805,8.90909091 31.2428571,9.46909091 C31.7162338,10.0290909 32.4525974,10.2836364 33.4519481,10.2836364 C34.5038961,10.2836364 35.1876623,10.0290909 35.661039,9.46909091 Z" id="Shape"></path>
                    <path d="M42.1831169,0.305454545 L49.125974,0.305454545 C50.7038961,0.305454545 51.9136364,0.763636364 52.7551948,1.62909091 C53.5967532,2.54545455 54.0175325,3.66545455 54.0175325,5.09090909 C54.0175325,6.00727273 53.8071429,6.82181818 53.3863636,7.53454545 C52.9655844,8.24727273 52.387013,8.80727273 51.6506494,9.21454545 C50.9142857,9.62181818 50.0201299,9.82545455 49.0207792,9.82545455 L46.0753247,9.82545455 L46.0753247,13.3381818 L42.1305195,13.3381818 L42.1305195,0.305454545 L42.1831169,0.305454545 Z M48.1792208,6.92363636 C48.7577922,6.92363636 49.2311688,6.77090909 49.5467532,6.41454545 C49.8623377,6.10909091 50.0201299,5.65090909 50.0201299,5.09090909 C50.0201299,4.48 49.8623377,4.02181818 49.5993506,3.71636364 C49.3363636,3.36 48.862987,3.20727273 48.337013,3.20727273 L46.1805195,3.20727273 L46.1805195,6.92363636 L48.1792208,6.92363636 Z" id="Shape"></path>
                    <polygon id="Path" points="55.911039 0.305454545 59.8558442 0.305454545 59.8558442 13.3890909 55.911039 13.3890909"></polygon>
                    <path d="M63.8006494,11.8109091 C62.5383117,10.64 61.8545455,9.01090909 61.8545455,6.87272727 C61.8545455,4.68363636 62.4857143,3.00363636 63.7480519,1.83272727 C65.0103896,0.661818182 66.9038961,0.101818182 69.375974,0.101818182 C70.1649351,0.101818182 70.9012987,0.152727273 71.5324675,0.254545455 C72.1636364,0.356363636 72.8474026,0.56 73.4785714,0.763636364 L73.4785714,4.07272727 C72.2688312,3.56363636 71.0064935,3.30909091 69.638961,3.30909091 C68.3766234,3.30909091 67.4298701,3.61454545 66.7987013,4.17454545 C66.1675325,4.73454545 65.9045455,5.65090909 65.9045455,6.87272727 C65.9045455,8.04363636 66.2201299,8.90909091 66.8512987,9.46909091 C67.4824675,10.0290909 68.4292208,10.2836364 69.6915584,10.2836364 C71.0590909,10.2836364 72.374026,10.0290909 73.5311688,9.52 L73.5311688,12.88 C72.2162338,13.3381818 70.8487013,13.5418182 69.375974,13.5418182 C66.9564935,13.5418182 65.1155844,12.9818182 63.8006494,11.8109091 Z" id="Path"></path>
                </g>
                <path d="M84.9091053,38.2657772 C85.1730605,39.9278312 85.5425978,41.5898852 86.0177171,43.2 C94.0947458,38.6293515 101.802237,32.9679801 108.981818,26.9430344 C102.858058,21.8010549 96.3647604,16.9187713 89.5547166,12.7636364 C85.1730605,20.7622712 83.5365384,29.5399938 84.9091053,38.2657772 Z" id="Path" fill="#B3CE4D"></path>
                <path d="M76.1174075,34.5572822 C76.6413336,30.8066688 77.6891858,27.1602391 79.260964,23.6179931 C81.1994905,19.1901856 83.9762987,14.9707455 87.3818182,11.1680403 C82.5093057,8.30298836 77.4796153,5.80257943 72.3451398,3.92727273 C67.3678421,11.7931425 65.1149599,20.6487575 65.9532417,29.6085561 C66.6343456,36.5888644 69.2015833,43.2566216 73.2882067,49.0909091 C74.3360589,48.6741743 75.4363036,48.2574394 76.4841558,47.7886128 C76.3793706,47.2156024 76.2745854,46.6946839 76.1698001,46.1216735 C75.5934815,42.3189682 75.5934815,38.4120793 76.1174075,34.5572822 Z" id="Path" fill="#85C598"></path>
                <path d="M57.0277174,25.72788 C57.7736805,22.0301482 59.0524745,18.3844972 60.8640993,14.9471691 C63.1019887,10.6765494 66.0858413,6.66633327 69.7090909,3.07276299 C63.5815365,1.14577603 57.3474159,0 51.0067291,0 C50.7403137,0 50.4738983,0 50.2074829,0 C44.8791747,7.96835149 42.481436,17.082479 43.3872484,26.1966065 C44.3996269,36.3523486 49.4615197,45.7268798 57.400699,53.0181818 C58.6794929,52.8619396 59.9582869,52.7056974 61.1837978,52.4452938 C58.5729268,47.6538668 57.0277174,42.5499553 56.4948866,37.237721 C56.0686219,33.4358278 56.2817542,29.5297732 57.0277174,25.72788 Z" id="Path" fill="#30B0D5"></path>
                <g id="Group" transform="translate(108.981818, 0.000000)" fill="#3EA938">
                    <path d="M30.3847766,53.7902913 C26.3093991,45.7165049 24.0395686,36.5941748 24.0395686,26.8951456 C24.0395686,17.1961165 26.3093991,8.07378641 30.3847766,0 L28.063359,0 C20.3253005,7.96893204 10.9364561,17.8252427 0.412696456,26.8951456 C10.9364561,35.9650485 20.3253005,45.8213592 28.063359,53.7902913 L30.3847766,53.7902913 Z" id="Path"></path>
                </g>
                <path d="M35.0433566,22.3621242 C35.7788994,18.6351035 37.0398297,14.9605761 38.8261478,11.4960216 C40.9276984,7.34905491 43.712253,3.46455446 47.1272727,0 C26.3744603,1.25983798 9.40443904,11.8109811 0,26.8240504 C8.51128002,40.419802 23.2221344,50.3410261 41.2954697,53.0181818 C37.4076011,47.1914311 35.1484342,40.7872547 34.4654302,34.0156256 C34.0976589,30.1311251 34.2552752,26.1941314 35.0433566,22.3621242 Z M17.2327151,32.1783618 C14.2380055,32.1783618 11.8212223,29.7636724 11.8212223,26.7715572 C11.8212223,23.7794419 14.2380055,21.3647525 17.2327151,21.3647525 C20.2274247,21.3647525 22.644208,23.7794419 22.644208,26.7715572 C22.644208,29.7636724 20.2274247,32.1783618 17.2327151,32.1783618 Z" id="Shape" fill="#0077B3"></path>
            </g>
        </g>
    </g>
</svg>