<?xml version="1.0" encoding="UTF-8"?>
<svg width="77px" height="18px" viewBox="0 0 77 18" version="1.1" xmlns="http://www.w3.org/2000/svg" xmlns:xlink="http://www.w3.org/1999/xlink">
    <!-- Generator: sketchtool 54.1 (76490) - https://sketchapp.com -->
    <title>619DF85B-48CC-4EFD-A4AA-6D362F2ECD93</title>
    <desc>Created with sketchtool.</desc>
    <g id="Page-1" stroke="none" stroke-width="1" fill="none" fill-rule="evenodd">
        <g id="Bsh_Uvodni-stranka" transform="translate(-816.000000, -5597.000000)">
            <g id="Paticka" transform="translate(80.000000, 4705.000000)">
                <g id="Copyright" transform="translate(426.000000, 774.000000)">
                    <g id="shopsys" transform="translate(310.000000, 118.000000)">
                        <path d="M17.5757498,8.93413988 L15.9281036,8.93413988 C15.9281036,4.97745276 12.7262876,1.75854479 8.79060999,1.75854479 L8.79060999,0.102103067 C13.6346899,0.102103067 17.5757498,4.0640908 17.5757498,8.93413988" id="Fill-2" fill="#009AFF"></path>
                        <path d="M8.78519472,17.7678442 C3.94100499,17.7678442 5.49215407e-05,13.805746 5.49215407e-05,8.93580736 L1.64770114,8.93580736 C1.64770114,12.8924945 4.84951712,16.1114025 8.78519472,16.1114025 L8.78519472,17.7678442 Z" id="Fill-4" fill="#009AFF"></path>
                        <polygon id="Fill-6" fill="#0F00A0" points="10.9805515 15.5575325 9.81555578 14.3863178 13.0428553 11.1415693 9.81555578 7.89682086 10.9805515 6.72549571 15.3729566 11.1415693"></polygon>
                        <path d="M34.4136067,6.44052147 C33.3470304,6.44052147 32.5682429,6.83033742 32.0750475,7.60886503 L32.0750475,3.60369939 L30.4449762,3.60369939 L30.4449762,14.2225951 L32.0750475,14.2225951 L32.0750475,10.1564724 C32.0750475,9.41891411 32.2509063,8.86996933 32.6035026,8.51107362 C32.9548906,8.15217791 33.4184284,7.97217791 33.9918093,7.97217791 C34.5147722,7.97217791 34.9266837,8.12457055 35.2287522,8.42714724 C35.5308207,8.73082822 35.6811959,9.16603067 35.6811959,9.73253374 L35.6811959,14.2225951 L37.3112672,14.2225951 L37.3112672,9.56578528 C37.3112672,8.59389571 37.0443485,7.83082822 36.5117194,7.27437423 C35.9777722,6.71891411 35.2791702,6.44052147 34.4136067,6.44052147" id="Fill-8" fill="#0F00A0"></path>
                        <path d="M44.2973311,12.1442466 C43.8447776,12.599216 43.2867748,12.8267006 42.6222241,12.8267006 C41.9587719,12.8267006 41.3996706,12.599216 40.9471171,12.1442466 C40.4945636,11.6892773 40.268177,11.1183571 40.268177,10.4302712 C40.268177,9.74240613 40.4945636,9.1703816 40.9471171,8.71541227 C41.3996706,8.26044294 41.9587719,8.03295828 42.6222241,8.03295828 C43.2867748,8.03295828 43.8447776,8.26044294 44.2973311,8.71541227 C44.7498846,9.1703816 44.9761613,9.74240613 44.9761613,10.4302712 C44.9761613,11.1183571 44.7498846,11.6892773 44.2973311,12.1442466 M42.6222241,6.44056564 C41.5161043,6.44056564 40.5747491,6.82486012 39.8003553,7.59344908 C39.0259616,8.36203804 38.6392041,9.30731411 38.6392041,10.4302712 C38.6392041,11.5523448 39.0259616,12.4987252 39.8003553,13.2662098 C40.5747491,14.0359031 41.5161043,14.4190933 42.6222241,14.4190933 C43.7393282,14.4190933 44.6817819,14.0359031 45.4517819,13.2662098 C46.2206835,12.4987252 46.6062327,11.5523448 46.6062327,10.4302712 C46.6062327,9.30731411 46.2206835,8.36203804 45.4517819,7.59344908 C44.6817819,6.82486012 43.7393282,6.44056564 42.6222241,6.44056564" id="Fill-10" fill="#0F00A0"></path>
                        <path d="M53.8031623,12.1674368 C53.3506088,12.6268233 52.7815118,12.8576209 52.0982879,12.8576209 C51.4140753,12.8576209 50.8461866,12.6268233 50.3936331,12.1674368 C49.9399812,11.706946 49.7137044,11.1282957 49.7137044,10.4303816 C49.7137044,9.73246748 49.9399812,9.15381718 50.3936331,8.69332638 C50.8461866,8.23283558 51.4140753,8.00314233 52.0982879,8.00314233 C52.7815118,8.00314233 53.3506088,8.23283558 53.8031623,8.69332638 C54.2557158,9.15381718 54.4819926,9.73246748 54.4819926,10.4303816 C54.4819926,11.1282957 54.2557158,11.706946 53.8031623,12.1674368 M52.3543321,6.44056564 C51.2075703,6.44056564 50.3276174,6.8701362 49.7137044,7.7292773 L49.7137044,6.63713006 L48.0846217,6.63713006 L48.0846217,17.8820503 L49.7137044,17.8820503 L49.7137044,13.1458417 C50.3276174,13.9950442 51.2075703,14.4190933 52.3543321,14.4190933 C53.3901524,14.4190933 54.2754876,14.0359031 55.0103378,13.2662098 C55.7440896,12.4987252 56.1120639,11.5523448 56.1120639,10.4303816 C56.1120639,9.31725276 55.7440896,8.37418528 55.0103378,7.60117914 C54.2754876,6.82706871 53.3901524,6.44056564 52.3543321,6.44056564" id="Fill-12" fill="#0F00A0"></path>
                        <path d="M67.1589606,12.4561215 L64.9082759,6.63715215 L63.1277195,6.63715215 L66.3274485,14.3985755 L66.2516568,14.8640356 C66.0506439,15.3896798 65.7936111,15.7761828 65.4816568,16.0246491 C65.1697024,16.272011 64.7577909,16.3802319 64.2448237,16.350416 L64.2448237,17.8820724 C65.9748522,17.9836675 67.2017994,17.0527472 67.9267638,15.0915202 L70.823216,6.63715215 L69.0889036,6.63715215 L67.1589606,12.4561215 Z" id="Fill-14" fill="#0F00A0"></path>
                        <path d="M76.5076394,10.7870687 C76.2330317,10.4436331 75.8915295,10.2095227 75.481705,10.0825288 C75.0721001,9.95553497 74.6722713,9.83185399 74.2822185,9.7103816 C73.8922756,9.5900135 73.5573641,9.45749816 73.2783626,9.31283558 C73.0003498,9.16817301 72.8609589,8.97050429 72.8609589,8.72093374 C72.8609589,8.46142454 72.9664083,8.26375583 73.177307,8.1290319 C73.1948819,8.11798896 73.2123469,8.10683558 73.2311301,8.09811166 C73.4332414,7.98326503 73.6759946,7.92694601 73.9614767,7.92694601 C74.3855809,7.92694601 74.7282913,8.03737546 74.9897178,8.25933865 C74.9930131,8.26044294 74.9951001,8.26265153 74.9985053,8.26596442 C75.1609632,8.40510552 75.3060659,8.56081104 75.4323854,8.73418528 L75.7321472,8.43271288 L76.5176351,7.64314233 C76.5175252,7.6430319 76.5175252,7.6430319 76.5175252,7.64292147 C76.2824611,7.32267607 75.9858847,7.06106871 75.6288947,6.8577681 C75.1413013,6.57948589 74.5853854,6.44034479 73.9614767,6.44034479 C73.953568,6.44034479 73.9459889,6.44100736 73.9380802,6.44100736 C73.9057863,6.44122822 73.8737121,6.4418908 73.8417478,6.44277423 C73.8186807,6.44365767 73.7956137,6.4445411 73.7724368,6.44553497 C73.7670545,6.44575583 73.7613427,6.4456454 73.7560702,6.44586626 L73.75618,6.44597669 L73.75618,6.44608712 C73.0619718,6.48032025 72.4742014,6.6901362 71.9930887,7.07774356 C71.4648534,7.50179264 71.2011201,8.06387853 71.2011201,8.76179264 C71.2011201,9.26755951 71.338424,9.68387853 71.6153384,10.0129583 C71.8920331,10.342038 72.2358419,10.5695227 72.6444582,10.6965166 C73.0542827,10.8224061 73.4541116,10.9471914 73.8439447,11.0675595 C74.2350959,11.1890319 74.5679204,11.3248601 74.8446151,11.4761485 C75.1215295,11.6285411 75.2599318,11.8251055 75.2599318,12.0680503 C75.2599318,12.5274368 74.9775252,12.8013018 74.4152385,12.8885411 C74.2845252,12.9084184 74.138434,12.9183571 73.9769646,12.9183571 C73.4990374,12.9183571 73.1145866,12.8046147 72.8213056,12.5760258 C72.5840445,12.3905043 72.3853384,12.1707497 72.2249675,11.9200748 L71.1099504,13.0409337 C71.3439161,13.4119767 71.6625709,13.7156577 72.0613013,13.9497681 C72.5940402,14.2622834 73.2322285,14.4190933 73.9769646,14.4190933 C74.8215481,14.4190933 75.5235552,14.2125902 76.0826565,13.7973755 C76.6406593,13.383265 76.9195509,12.8112405 76.9195509,12.0835104 C76.9195509,11.5622834 76.7822471,11.1294 76.5076394,10.7870687" id="Fill-16" fill="#0F00A0"></path>
                        <path d="M61.4953964,10.0825399 C61.0857916,9.95554601 60.6859628,9.8317546 60.29591,9.71039264 C59.905967,9.59002454 59.5709456,9.4575092 59.2919442,9.31284663 C59.0140412,9.16818405 58.8746504,8.97051534 58.8746504,8.72094479 C58.8746504,8.46143558 58.9800997,8.26376687 59.1909984,8.12904294 C59.2085733,8.118 59.2261482,8.10684663 59.2448215,8.0981227 C59.4469328,7.98327607 59.689686,7.92684663 59.9751682,7.92684663 C60.3992723,7.92684663 60.7419827,8.03727607 61.0034093,8.25934969 C61.0067046,8.26045399 61.0087916,8.26266258 61.0121967,8.26597546 C61.1746546,8.40511656 61.3196475,8.56082209 61.4460769,8.73419632 L62.5313265,7.64315337 C62.2962623,7.32290798 61.999686,7.06119018 61.642696,6.858 C61.1548829,6.57971779 60.5991867,6.44057669 59.9751682,6.44057669 C59.9346361,6.44057669 59.8950926,6.44168098 59.8554392,6.44278528 C59.8269899,6.44388957 59.7984307,6.44499387 59.7698715,6.44609816 C59.0756632,6.48033129 58.4880027,6.69014724 58.0067802,7.0777546 C57.4785448,7.50180368 57.2148116,8.06388957 57.2148116,8.76180368 C57.2148116,9.26757055 57.3521154,9.68388957 57.6290298,10.0129693 C57.9057245,10.3420491 58.2495334,10.5695337 58.6581496,10.6965276 C59.0678643,10.8224172 59.467803,10.9472025 59.8577459,11.0675706 C60.2486775,11.1890429 60.5816118,11.3248712 60.8583066,11.4761595 C61.135221,11.6285521 61.2735134,11.8251166 61.2735134,12.0679509 C61.2735134,12.5274479 60.9912167,12.8013129 60.42893,12.8885521 C60.2982167,12.9084294 60.1521254,12.9183681 59.9906561,12.9183681 C59.5127288,12.9183681 59.128278,12.8045153 58.834997,12.5760368 C58.5978458,12.3904049 58.3990298,12.1707607 58.2386589,11.9200859 L57.1236418,13.0409448 C57.3576076,13.4118773 57.6761525,13.7155583 58.0748829,13.9497791 C58.6077317,14.2622945 59.24592,14.4191043 59.9906561,14.4191043 C60.8352395,14.4191043 61.5372466,14.2124908 62.0963479,13.7973865 C62.6543508,13.3832761 62.9333522,12.8112515 62.9333522,12.0835215 C62.9333522,11.562184 62.7960484,11.1293006 62.5214407,10.7870798 C62.246833,10.4436442 61.9051111,10.2094233 61.4953964,10.0825399" id="Fill-18" fill="#0F00A0"></path>
                        <path d="M28.0614692,9.13278037 C27.9910598,9.08430184 27.92087,9.04001963 27.8527673,8.99706258 C27.7823579,8.94836319 27.7021725,8.90087853 27.6110027,8.85449816 C27.6088058,8.85350429 27.606609,8.85228957 27.604522,8.85118528 C27.4198757,8.74959018 27.2408315,8.66466994 27.066181,8.59830184 C26.7499428,8.48025276 26.3456104,8.32896442 25.8546118,8.14565153 C25.7876076,8.12577423 25.7217017,8.1057865 25.6568943,8.08491534 C25.6074649,8.06614233 25.5558387,8.04736933 25.5020155,8.0262773 C24.9451111,7.85522209 24.5069471,7.69057178 24.1882923,7.5327681 C24.1432566,7.51068221 24.1015163,7.48848589 24.0620826,7.4664 C23.986181,7.42344294 23.9202752,7.38147975 23.8621682,7.33951656 C23.5533993,7.11633865 23.3985205,6.81155337 23.3985205,6.42505031 C23.3985205,6.02087853 23.5502138,5.69952883 23.8522823,5.46221595 C23.9312595,5.40026503 24.0180355,5.3461546 24.1114021,5.29977423 C24.3717302,5.17057178 24.6880783,5.1054184 25.0582495,5.1054184 C25.4855391,5.1054184 25.8623009,5.18934479 26.1885348,5.35830184 C26.1908415,5.35940613 26.1918301,5.35940613 26.1941368,5.36172515 C26.3039799,5.42025276 26.4071225,5.48982331 26.5048829,5.56922209 C26.5180641,5.57916074 26.5302566,5.59031411 26.5434378,5.60235092 C26.6410883,5.68417914 26.7322581,5.77682945 26.8169471,5.87952883 C26.9662238,6.04406871 27.2530241,6.42405644 27.2606033,6.43498896 L28.4600897,5.2314184 C28.1481354,4.74210552 27.7537987,4.34025276 27.2770797,4.02873129 C27.18591,3.96909939 27.0936418,3.91388466 26.9980783,3.86419141 C26.9630384,3.84431411 26.9278886,3.8266454 26.892629,3.80897669 C26.3413265,3.5273816 25.717308,3.3871362 25.0220013,3.3871362 C24.0872367,3.3871362 23.287579,3.66332025 22.6230284,4.21425276 C21.9595762,4.76529571 21.6279599,5.51179877 21.6279599,6.4516638 C21.6279599,6.92750429 21.7124292,7.34161472 21.8838943,7.69609325 C22.0551397,8.04946748 22.3144792,8.3454184 22.6615833,8.58295215 C22.7603322,8.6514184 22.8580926,8.71314847 22.9548643,8.76946748 C22.9647502,8.77620368 22.9745262,8.78271902 22.9844121,8.78835092 C23.0261525,8.81474356 23.0701996,8.84025276 23.1173223,8.8655411 C23.1316019,8.87327117 23.1459913,8.88111166 23.1601611,8.88873129 C23.1921254,8.9064 23.22387,8.92307485 23.2546261,8.93842454 C23.4041225,9.01682945 23.5502138,9.08319755 23.6929,9.13609325 C24.0092481,9.25436319 24.4134706,9.40565153 24.904579,9.58896442 C25.0077217,9.62098896 25.1076789,9.65179877 25.2032424,9.68271902 C25.2087345,9.68492761 25.215435,9.68724663 25.2209271,9.68934479 C25.2483879,9.69817914 25.2758486,9.7059092 25.3033094,9.71485399 C25.9886204,9.93902577 26.4807174,10.1466331 26.7783922,10.3375656 C27.1309884,10.5651607 27.3067374,10.8952344 27.3067374,11.3293325 C27.3067374,11.7423387 27.143181,12.0780442 26.8169471,12.3352344 C26.8081596,12.3419706 26.7993722,12.3484859 26.7905847,12.3552221 C26.788278,12.356216 26.7849827,12.3573202 26.7827859,12.3596393 C26.4554535,12.6013693 25.9776361,12.7206331 25.3460384,12.7206331 C25.1066903,12.7206331 24.8814021,12.7008663 24.6717117,12.6621055 C24.2169613,12.5781791 23.8313023,12.4037006 23.5149542,12.1375656 C23.4480598,12.0812466 23.3831425,12.0216147 23.3227288,11.9564613 C23.3183351,11.9520442 23.3150398,11.9487313 23.3118544,11.9443141 C23.2359528,11.8671239 23.1646646,11.7864 23.0964521,11.702584 C22.9263051,11.4938724 22.7790056,11.2641791 22.6559813,11.0157129 L21.4147545,12.2635656 C21.7092438,12.860989 22.1419157,13.3467681 22.7120013,13.7223387 C22.8108601,13.7873816 22.9130141,13.8470135 23.017365,13.9022282 C23.0613023,13.9265227 23.1064478,13.9486086 23.1502752,13.9697006 C23.2020113,13.994989 23.2525391,14.0181791 23.3051539,14.040265 C23.8862238,14.2931485 24.5518729,14.419038 25.2999043,14.419038 C26.4170084,14.419038 27.3200284,14.1385472 28.0087445,13.5775656 C28.0295049,13.5611117 28.050375,13.5433325 28.0701468,13.5256638 C28.0801425,13.5179337 28.0900284,13.5092098 28.0999143,13.5014798 C28.7633665,12.9503264 29.0949827,12.2039337 29.0949827,11.2641791 C29.0949827,10.7881178 29.0105134,10.3740074 28.8390484,10.0195288 C28.667803,9.6661546 28.4084635,9.37020368 28.0614692,9.13278037" id="Fill-20" fill="#0F00A0"></path>
                        <polygon id="Fill-1" fill="#0F00A0" points="6.54394587 11.5714286 1.94117647 7.07148484 6.54394587 2.57142857 7.76470588 3.76502939 4.3828116 7.07148484 7.76470588 10.3779403"></polygon>
                    </g>
                </g>
            </g>
        </g>
    </g>
</svg>