<?xml version="1.0" encoding="UTF-8"?>
<svg width="512px" height="512px" viewBox="0 0 512 512" version="1.1" xmlns="http://www.w3.org/2000/svg" xmlns:xlink="http://www.w3.org/1999/xlink">
    <!-- Generator: Sketch 55.2 (78181) - https://sketchapp.com -->
    <title>ico_shopping-cart</title>
    <desc>Created with Sketch.</desc>
    <g id="Page-1" stroke="none" stroke-width="1" fill="none" fill-rule="evenodd">
        <g id="svg" fill="#000000" fill-rule="nonzero">
            <g id="ico_shopping-cart">
                <path d="M497,60.011719 L435.101562,60.011719 C427.933594,60.011719 421.769531,65.082031 420.382812,72.113281 L409.832031,125.675781 L349.671875,125.675781 L349.671875,64.839844 C349.671875,56.554688 342.957031,49.839844 334.671875,49.839844 L219.671875,49.839844 L219.671875,15 C219.671875,6.714844 212.957031,0 204.671875,0 L74.671875,0 C66.390625,0 59.671875,6.714844 59.671875,15 L59.671875,125.675781 L15,125.675781 C10.550781,125.675781 6.328125,127.648438 3.480469,131.070312 C0.628906,134.484375 -0.554688,138.992188 0.246094,143.371094 L41.429688,368.738281 C42.734375,375.863281 48.945312,381.042969 56.1875,381.042969 L377.722656,381.042969 L377.78125,381.042969 L377.847656,381.042969 L387.765625,381.042969 C403.070312,381.042969 415.519531,393.492188 415.519531,408.796875 C415.519531,424.097656 403.070312,436.550781 387.765625,436.550781 L371.839844,436.550781 C363.253906,421.34375 346.945312,411.046875 328.273438,411.046875 C309.601562,411.046875 293.296875,421.34375 284.710938,436.550781 L163.691406,436.550781 C155.105469,421.34375 138.800781,411.046875 120.128906,411.046875 C101.453125,411.046875 85.148438,421.34375 76.5625,436.550781 L56.1875,436.550781 C47.902344,436.550781 41.1875,443.265625 41.1875,451.550781 C41.1875,459.832031 47.902344,466.550781 56.1875,466.550781 L70.433594,466.550781 C73.179688,491.542969 94.414062,511.050781 120.128906,511.050781 C145.839844,511.050781 167.074219,491.542969 169.824219,466.550781 L278.578125,466.550781 C281.328125,491.542969 302.5625,511.050781 328.273438,511.050781 C353.988281,511.050781 375.222656,491.542969 377.96875,466.550781 L387.765625,466.550781 C419.613281,466.550781 445.519531,440.640625 445.519531,408.796875 C445.519531,379.714844 423.910156,355.597656 395.90625,351.625 L437.0625,143.585938 C437.203125,142.859375 437.273438,142.132812 437.308594,141.40625 L447.433594,90.011719 L497,90.011719 C505.285156,90.011719 512,83.296875 512,75.011719 C512,66.730469 505.285156,60.011719 497,60.011719 L497,60.011719 Z M120.128906,481.050781 C109.097656,481.050781 100.125,472.078125 100.125,461.046875 C100.125,450.019531 109.097656,441.042969 120.128906,441.042969 C131.15625,441.042969 140.132812,450.019531 140.132812,461.046875 C140.132812,472.078125 131.160156,481.050781 120.128906,481.050781 Z M328.273438,481.050781 C317.242188,481.050781 308.269531,472.078125 308.269531,461.046875 C308.269531,450.019531 317.242188,441.042969 328.273438,441.042969 C339.304688,441.042969 348.277344,450.019531 348.277344,461.046875 C348.277344,472.078125 339.304688,481.050781 328.273438,481.050781 Z M319.671875,79.839844 L319.671875,125.671875 L219.675781,125.671875 L219.675781,79.839844 L319.671875,79.839844 Z M89.671875,30 L189.671875,30 L189.671875,125.675781 L89.671875,125.675781 L89.671875,30 Z M32.992188,155.671875 L403.917969,155.671875 L365.433594,351.039062 L68.695312,351.039062 L32.992188,155.671875 Z" id="Shape"></path>
                <path d="M158.675781,215.675781 C162.625,215.675781 166.484375,214.074219 169.273438,211.285156 C172.074219,208.484375 173.675781,204.625 173.675781,200.675781 C173.675781,196.722656 172.074219,192.855469 169.273438,190.0625 C166.484375,187.273438 162.625,185.675781 158.675781,185.675781 C154.726562,185.675781 150.855469,187.273438 148.066406,190.0625 C145.273438,192.855469 143.675781,196.722656 143.675781,200.675781 C143.675781,204.625 145.273438,208.484375 148.066406,211.285156 C150.855469,214.074219 154.726562,215.675781 158.675781,215.675781 Z" id="Path"></path>
                <path d="M109.285156,190.0625 C106.484375,187.273438 102.625,185.675781 98.675781,185.675781 C94.726562,185.675781 90.855469,187.273438 88.066406,190.0625 C85.273438,192.855469 83.675781,196.722656 83.675781,200.675781 C83.675781,204.613281 85.273438,208.484375 88.066406,211.285156 C90.855469,214.074219 94.726562,215.675781 98.675781,215.675781 C102.617188,215.675781 106.484375,214.074219 109.285156,211.285156 C112.074219,208.484375 113.675781,204.613281 113.675781,200.675781 C113.675781,196.722656 112.074219,192.855469 109.285156,190.0625 Z" id="Path"></path>
                <path d="M218.675781,215.675781 C222.625,215.675781 226.484375,214.074219 229.273438,211.285156 C232.074219,208.484375 233.675781,204.625 233.675781,200.675781 C233.675781,196.722656 232.074219,192.855469 229.273438,190.0625 C226.484375,187.273438 222.625,185.675781 218.675781,185.675781 C214.726562,185.675781 210.855469,187.273438 208.066406,190.0625 C205.273438,192.855469 203.675781,196.722656 203.675781,200.675781 C203.675781,204.625 205.273438,208.484375 208.066406,211.285156 C210.855469,214.074219 214.726562,215.675781 218.675781,215.675781 Z" id="Path"></path>
                <path d="M278.675781,215.675781 C282.613281,215.675781 286.484375,214.074219 289.277344,211.285156 C292.074219,208.484375 293.675781,204.613281 293.675781,200.675781 C293.675781,196.722656 292.074219,192.855469 289.277344,190.0625 C286.484375,187.273438 282.625,185.675781 278.675781,185.675781 C274.726562,185.675781 270.855469,187.273438 268.066406,190.0625 C265.277344,192.855469 263.675781,196.722656 263.675781,200.675781 C263.675781,204.625 265.277344,208.484375 268.066406,211.285156 C270.855469,214.074219 274.726562,215.675781 278.675781,215.675781 Z" id="Path"></path>
                <path d="M349.273438,190.0625 C346.484375,187.273438 342.625,185.675781 338.675781,185.675781 C334.726562,185.675781 330.855469,187.273438 328.066406,190.0625 C325.273438,192.855469 323.675781,196.722656 323.675781,200.675781 C323.675781,204.613281 325.273438,208.484375 328.066406,211.285156 C330.855469,214.074219 334.726562,215.675781 338.675781,215.675781 C342.613281,215.675781 346.484375,214.074219 349.273438,211.285156 C352.074219,208.484375 353.675781,204.613281 353.675781,200.675781 C353.675781,196.722656 352.074219,192.855469 349.273438,190.0625 Z" id="Path"></path>
                <path d="M158.675781,285.671875 C154.726562,285.671875 150.855469,287.273438 148.066406,290.0625 C145.273438,292.863281 143.675781,296.722656 143.675781,300.671875 C143.675781,304.625 145.273438,308.484375 148.066406,311.273438 C150.855469,314.074219 154.726562,315.671875 158.675781,315.671875 C162.625,315.671875 166.484375,314.074219 169.273438,311.273438 C172.074219,308.484375 173.675781,304.625 173.675781,300.671875 C173.675781,296.722656 172.074219,292.863281 169.273438,290.0625 C166.484375,287.273438 162.625,285.671875 158.675781,285.671875 Z" id="Path"></path>
                <path d="M218.675781,285.671875 C214.726562,285.671875 210.855469,287.273438 208.066406,290.0625 C205.273438,292.855469 203.675781,296.722656 203.675781,300.671875 C203.675781,304.625 205.273438,308.484375 208.066406,311.273438 C210.855469,314.074219 214.726562,315.671875 218.675781,315.671875 C222.625,315.671875 226.484375,314.074219 229.273438,311.273438 C232.074219,308.484375 233.675781,304.625 233.675781,300.671875 C233.675781,296.722656 232.074219,292.863281 229.273438,290.0625 C226.484375,287.273438 222.613281,285.671875 218.675781,285.671875 Z" id="Path"></path>
                <path d="M278.675781,285.671875 C274.726562,285.671875 270.855469,287.273438 268.066406,290.0625 C265.277344,292.855469 263.675781,296.722656 263.675781,300.671875 C263.675781,304.625 265.277344,308.484375 268.066406,311.273438 C270.855469,314.074219 274.726562,315.671875 278.675781,315.671875 C282.613281,315.671875 286.484375,314.074219 289.277344,311.273438 C292.074219,308.484375 293.675781,304.625 293.675781,300.671875 C293.675781,296.722656 292.074219,292.863281 289.277344,290.0625 C286.484375,287.273438 282.613281,285.671875 278.675781,285.671875 Z" id="Path"></path>
                <path d="M199.273438,240.0625 C196.484375,237.273438 192.625,235.671875 188.675781,235.671875 C184.726562,235.671875 180.855469,237.273438 178.066406,240.0625 C175.273438,242.855469 173.675781,246.722656 173.675781,250.671875 C173.675781,254.625 175.273438,258.484375 178.066406,261.285156 C180.855469,264.074219 184.726562,265.671875 188.675781,265.671875 C192.625,265.671875 196.484375,264.074219 199.273438,261.285156 C202.074219,258.484375 203.675781,254.625 203.675781,250.671875 C203.675781,246.722656 202.074219,242.855469 199.273438,240.0625 L199.273438,240.0625 Z" id="Path"></path>
                <path d="M139.273438,240.0625 C136.484375,237.273438 132.625,235.671875 128.675781,235.671875 C124.726562,235.671875 120.855469,237.273438 118.066406,240.0625 C115.273438,242.855469 113.675781,246.722656 113.675781,250.671875 C113.675781,254.625 115.273438,258.484375 118.066406,261.285156 C120.855469,264.074219 124.726562,265.671875 128.675781,265.671875 C132.625,265.671875 136.484375,264.074219 139.273438,261.285156 C142.074219,258.484375 143.675781,254.625 143.675781,250.671875 C143.675781,246.722656 142.074219,242.855469 139.273438,240.0625 L139.273438,240.0625 Z" id="Path"></path>
                <path d="M259.273438,240.0625 C256.484375,237.273438 252.625,235.671875 248.675781,235.671875 C244.726562,235.671875 240.855469,237.273438 238.066406,240.0625 C235.273438,242.855469 233.675781,246.722656 233.675781,250.671875 C233.675781,254.625 235.273438,258.484375 238.066406,261.285156 C240.855469,264.074219 244.726562,265.671875 248.675781,265.671875 C252.625,265.671875 256.484375,264.074219 259.273438,261.285156 C262.074219,258.484375 263.675781,254.625 263.675781,250.671875 C263.675781,246.722656 262.074219,242.855469 259.273438,240.0625 L259.273438,240.0625 Z" id="Path"></path>
                <path d="M308.675781,235.671875 C304.726562,235.671875 300.855469,237.273438 298.066406,240.0625 C295.277344,242.855469 293.675781,246.722656 293.675781,250.671875 C293.675781,254.625 295.277344,258.484375 298.066406,261.285156 C300.855469,264.074219 304.726562,265.671875 308.675781,265.671875 C312.613281,265.671875 316.484375,264.074219 319.277344,261.285156 C322.074219,258.484375 323.675781,254.625 323.675781,250.671875 C323.675781,246.722656 322.074219,242.855469 319.277344,240.0625 C316.484375,237.273438 312.625,235.671875 308.675781,235.671875 L308.675781,235.671875 Z" id="Path"></path>
            </g>
        </g>
    </g>
</svg>