<?xml version="1.0" encoding="UTF-8" standalone="no"?>
<svg
   xmlns:dc="http://purl.org/dc/elements/1.1/"
   xmlns:cc="http://creativecommons.org/ns#"
   xmlns:rdf="http://www.w3.org/1999/02/22-rdf-syntax-ns#"
   xmlns:svg="http://www.w3.org/2000/svg"
   xmlns="http://www.w3.org/2000/svg"
   xmlns:sodipodi="http://sodipodi.sourceforge.net/DTD/sodipodi-0.dtd"
   xmlns:inkscape="http://www.inkscape.org/namespaces/inkscape"
   width="512"
   height="512"
   viewBox="0 0 512 512"
   version="1.1"
   id="svg26"
   sodipodi:docname="cart.svg"
   inkscape:version="0.92.4 (f8dce91, 2019-08-02)">
  <metadata
     id="metadata32">
    <rdf:RDF>
      <cc:Work
         rdf:about="">
        <dc:format>image/svg+xml</dc:format>
        <dc:type
           rdf:resource="http://purl.org/dc/dcmitype/StillImage" />
        <dc:title></dc:title>
      </cc:Work>
    </rdf:RDF>
  </metadata>
  <defs
     id="defs30" />
  <sodipodi:namedview
     pagecolor="#ffffff"
     bordercolor="#666666"
     borderopacity="1"
     objecttolerance="10"
     gridtolerance="10"
     guidetolerance="10"
     inkscape:pageopacity="0"
     inkscape:pageshadow="2"
     inkscape:window-width="1853"
     inkscape:window-height="1025"
     id="namedview28"
     showgrid="false"
     inkscape:zoom="0.834386"
     inkscape:cx="59.63561"
     inkscape:cy="265.22128"
     inkscape:window-x="1987"
     inkscape:window-y="27"
     inkscape:window-maximized="1"
     inkscape:current-layer="svg26" />
  <path
     style="stroke-width:0.60023546"
     d="m 60.021539,381.50623 c -1.152065,-0.36688 -3.200131,-1.77253 -4.55127,-3.12366 -6.459596,-6.45959 -3.769149,-17.04882 5.084852,-20.01325 1.503596,-0.50343 41.534849,-0.68313 152.173789,-0.68313 h 150.13347 l 3.53079,-17.25676 c 1.94193,-9.49123 3.65264,-17.5944 3.80157,-18.00707 0.21619,-0.59901 -31.12479,-0.7503 -155.42842,-0.7503 -169.809487,0 -159.204404,0.2129 -165.227584,-3.31692 -3.849137,-2.25574 -7.979294,-6.7483 -9.918333,-10.78861 C 38.202354,304.6118 34.692468,288.39285 20.073375,217.24106 3.8041277,138.05789 2.2779954,130.1247 2.522082,126.00526 c 0.5986238,-10.10289 7.31279,-18.58968 17.097946,-21.612 3.880538,-1.19858 5.256113,-1.20689 199.821072,-1.20689 107.75251,0 195.91365,-0.10366 195.91365,-0.23037 0,-1.48171 8.56513,-41.011524 9.23201,-42.607586 1.55068,-3.711288 4.51066,-7.496644 7.75681,-9.919747 2.08164,-1.553849 12.9016,-6.57807 32.5306,-15.10551 25.2742,-10.979879 29.83372,-12.778185 32.41272,-12.783786 5.28287,-0.01147 9.88783,3.379633 11.6217,8.558254 1.36033,4.062943 0.35461,8.186484 -2.81742,11.551878 -1.9177,2.034598 -5.83783,3.913805 -30.39192,14.569102 -19.12675,8.300096 -28.33894,12.590438 -28.6528,13.344305 -0.25441,0.611104 -13.84005,66.20663 -30.19029,145.76784 -16.35024,79.5612 -30.27277,146.37579 -30.93896,148.47686 -2.72242,8.58612 -9.71929,14.95859 -18.46077,16.81334 -4.49937,0.95467 -304.42829,0.84275 -307.434891,-0.11472 z M 392.35533,214.53004 C 401.66491,169.3023 409.45652,131.28488 409.67,130.0469 l 0.38815,-2.25088 H 218.53029 c -128.673062,0 -191.527865,0.19914 -191.527865,0.60683 0,0.72693 34.146809,166.82924 34.518513,167.91041 0.206171,0.59968 31.926586,0.72089 157.083102,0.60023 l 156.82478,-0.15119 z"
     id="path38"
     inkscape:connector-curvature="0" />
  <path
     style="stroke-width:0.60023546"
     d="m 133.18319,255.17538 c -5.6373,-2.94497 -8.01096,-9.74153 -5.40555,-15.47791 1.50783,-3.31984 5.00916,-6.07755 8.73373,-6.87884 2.12676,-0.45755 27.19832,-0.59739 83.76687,-0.46726 l 80.73166,0.18573 2.67783,1.50059 c 7.27492,4.07669 8.57968,13.67224 2.62782,19.32575 -3.89854,3.70312 1.66058,3.48319 -88.05032,3.48319 h -81.88287 z"
     id="path40"
     inkscape:connector-curvature="0" />
  <path
     style="stroke-width:0.60023546"
     d="m 123.58468,190.62459 c -8.6882,-4.58682 -8.62619,-16.98319 0.10723,-21.43865 2.25482,-1.15031 4.17623,-1.17414 94.66729,-1.17414 h 92.36577 l 2.64541,1.39661 c 1.45497,0.76813 3.45573,2.54709 4.44611,3.95323 1.57533,2.23664 1.80071,3.06956 1.80071,6.65486 0,3.5853 -0.22538,4.41823 -1.80071,6.65486 -0.99038,1.40614 -2.99114,3.1851 -4.44611,3.95323 l -2.64541,1.39662 h -92.24744 -92.24745 z"
     id="path42"
     inkscape:connector-curvature="0" />
  <path
     style="stroke-width:0.60023546"
     d="m 289.16328,490.96003 c -17.21109,-3.14786 -31.57613,-16.57762 -35.65612,-33.33464 -1.35397,-5.5609 -1.35253,-15.46261 0.003,-20.99165 3.78632,-15.44332 16.45912,-28.2361 32.19369,-32.49844 5.26076,-1.42508 16.27512,-1.45017 21.60848,-0.0492 22.90175,6.01579 37.37318,29.01781 32.66101,51.91398 -1.84252,8.95272 -5.66334,15.87033 -12.54091,22.70534 -3.95245,3.92798 -6.00168,5.41706 -10.56128,7.67435 -3.11151,1.5404 -7.14288,3.20459 -8.95859,3.69821 -4.00193,1.08795 -14.83671,1.59769 -18.74933,0.88208 z m 14.63752,-25.79588 c 4.39404,-2.06545 7.46853,-5.09369 9.63087,-9.48606 1.70032,-3.45383 1.96808,-4.61799 1.96808,-8.55681 0,-3.93735 -0.26797,-5.10342 -1.96492,-8.55043 -6.19883,-12.59161 -20.76873,-14.92348 -30.20591,-4.83436 -8.00039,8.55306 -6.84094,21.57017 2.598,29.16776 5.04159,4.05807 12.22656,4.96146 17.97388,2.2599 z"
     id="path44"
     inkscape:connector-curvature="0" />
  <path
     style="stroke-width:0.60023546"
     d="m 131.35715,490.63157 c -8.37856,-1.6689 -15.84129,-5.62996 -22.03899,-11.69782 -19.416709,-19.00995 -17.835174,-49.53617 3.45151,-66.61986 7.83079,-6.28463 16.46062,-9.23086 27.07701,-9.24407 8.32445,-0.0104 12.56372,0.98034 20.10789,4.69914 22.72017,11.19961 31.1223,39.80188 18.17215,61.86114 -1.35665,2.31091 -4.51479,6.24958 -7.0181,8.7526 -10.69638,10.6952 -25.16663,15.154 -39.75147,12.24887 z m 18.11938,-26.1658 c 9.85678,-5.2536 13.35452,-17.14547 7.95885,-27.05907 -5.8533,-10.75446 -20.81087,-13.48348 -30.13907,-5.4989 -12.27139,10.50386 -7.63572,30.37493 8.04861,34.50091 0.99039,0.26055 3.74806,0.3708 6.12816,0.24502 3.4594,-0.18281 5.06485,-0.6217 8.00345,-2.18796 z"
     id="path46"
     inkscape:connector-curvature="0" />
</svg>
