<svg id="Vrstva_1" data-name="Vrstva 1" xmlns="http://www.w3.org/2000/svg" viewBox="0 0 512 512"><defs><style>.cls-1{fill:#433e3e;}</style></defs><title>3_compass</title><path class="cls-1" d="M256,512C114.84,512,0,397.16,0,256S114.84,0,256,0,512,114.84,512,256,397.16,512,256,512Zm0-452.23c-108.2,0-196.24,88-196.24,196.23S147.8,452.23,256,452.23,452.23,364.2,452.23,256,364.21,59.77,256,59.77Z" transform="translate(0 0)"/><path class="cls-1" d="M205.08,206.87,137.38,377.5,308,309.8l67.6-170.53Zm86.77,78.65L229.36,223,333,181.91S300.76,263.08,291.85,285.52Z" transform="translate(0 0)"/><polygon class="cls-1" points="218.15 50.62 257.1 111.13 296.06 50.62 218.15 50.62"/><polygon class="cls-1" points="218.15 462.15 257.1 401.64 296.06 462.15 218.15 462.15"/><polygon class="cls-1" points="462.87 217.43 402.36 256.39 462.87 295.34 462.87 217.43"/><polygon class="cls-1" points="51.33 217.43 111.84 256.39 51.33 295.34 51.33 217.43"/></svg>