<?xml version="1.0" encoding="UTF-8" standalone="no"?>
<svg
   xmlns:dc="http://purl.org/dc/elements/1.1/"
   xmlns:cc="http://creativecommons.org/ns#"
   xmlns:rdf="http://www.w3.org/1999/02/22-rdf-syntax-ns#"
   xmlns:svg="http://www.w3.org/2000/svg"
   xmlns="http://www.w3.org/2000/svg"
   xmlns:sodipodi="http://sodipodi.sourceforge.net/DTD/sodipodi-0.dtd"
   xmlns:inkscape="http://www.inkscape.org/namespaces/inkscape"
   width="512"
   height="512"
   viewBox="0 0 512 512"
   version="1.1"
   id="svg34"
   sodipodi:docname="exchange.svg"
   inkscape:version="0.92.4 (f8dce91, 2019-08-02)">
  <metadata
     id="metadata40">
    <rdf:RDF>
      <cc:Work
         rdf:about="">
        <dc:format>image/svg+xml</dc:format>
        <dc:type
           rdf:resource="http://purl.org/dc/dcmitype/StillImage" />
        <dc:title></dc:title>
      </cc:Work>
    </rdf:RDF>
  </metadata>
  <defs
     id="defs38" />
  <sodipodi:namedview
     pagecolor="#ffffff"
     bordercolor="#666666"
     borderopacity="1"
     objecttolerance="10"
     gridtolerance="10"
     guidetolerance="10"
     inkscape:pageopacity="0"
     inkscape:pageshadow="2"
     inkscape:window-width="1920"
     inkscape:window-height="1052"
     id="namedview36"
     showgrid="false"
     inkscape:zoom="7.8666667"
     inkscape:cx="15"
     inkscape:cy="15"
     inkscape:window-x="0"
     inkscape:window-y="0"
     inkscape:window-maximized="1"
     inkscape:current-layer="svg34" />
  <path
     style="stroke-width:2.1582799"
     d="m 171.54753,396.48658 c -61.83865,-34.30262 -78.931915,-44.71568 -81.475067,-49.6335 -2.692547,-5.20695 -3.217036,-20.08128 -3.210287,-91.0433 0.0075,-79.02814 0.283473,-85.2713 4.041456,-91.43397 5.635077,-9.2407 153.775318,-91.587455 164.764178,-91.587455 5.49724,0 26.05662,10.346339 81.67692,41.102995 40.88178,22.60666 77.00136,43.98901 80.26576,47.51628 l 5.93528,6.41311 v 88.33506 88.33507 l -4.85613,5.49406 c -6.88697,7.79176 -151.99337,87.81943 -161.33142,88.976 -6.59598,0.81667 -17.47857,-4.56975 -85.81069,-42.47435 z m 75.01929,-56.73406 V 263.55027 L 177.46843,224.2845 c -38.00411,-21.5961 -69.58122,-39.26559 -70.17136,-39.26559 -0.59013,0 -0.81788,34.69974 -0.50612,77.11077 l 0.56682,77.11077 69.06496,38.3479 c 37.98572,21.09151 69.30775,38.35216 69.60452,38.35725 0.29678,0.004 0.53957,-34.28173 0.53957,-76.19308 z m 94.96431,34.05286 c 33.83104,-18.73557 62.22452,-35.12692 63.09664,-36.42526 2.23812,-3.3322 2.05134,-150.20291 -0.19101,-150.20291 -1.01344,0 -32.57837,17.0778 -70.14409,37.95061 l -68.30132,37.95079 v 76.61414 76.61415 l 7.01441,-4.21847 c 3.85793,-2.32028 34.69435,-19.54765 68.52539,-38.28305 z m -3.82177,-171.93279 c 30.54199,-16.98543 55.60204,-31.85382 55.68897,-33.04078 0.19152,-2.61536 -54.06077,-33.56134 -57.61774,-32.86573 -3.70331,0.72498 -138.8564,75.73976 -138.84162,77.06272 0.007,0.61971 13.32293,8.58703 29.59114,17.70514 l 29.57856,16.57812 13.03488,-7.2785 c 7.16919,-4.00318 38.02379,-21.17554 68.56581,-38.16097 z m -88.98427,-39.99194 c 35.01809,-19.46173 64.37072,-36.0789 65.22808,-36.92697 1.89018,-1.8695 -55.90486,-34.094802 -59.47251,-33.160477 -4.0484,1.059457 -137.27928,74.771297 -137.29482,75.959457 -0.008,0.59424 13.25852,8.54186 29.48063,17.66287 25.08988,14.10724 30.15894,16.23039 33.94206,14.21709 2.44602,-1.30225 33.09847,-18.29006 68.11656,-37.75197 z"
     id="path42"
     inkscape:connector-curvature="0" />
  <path
     style="stroke-width:2.1582799"
     d="m 150.52337,299.00114 c -15.4317,-8.50537 -28.77119,-16.50664 -29.6433,-17.7807 -0.87212,-1.27339 -1.60053,-13.17326 -1.61871,-26.44295 -0.0262,-19.08736 0.67532,-24.83474 3.35853,-27.51802 1.86537,-1.86525 3.96863,-3.39162 4.6739,-3.39162 1.76446,0 45.10227,23.20617 55.0642,29.48532 l 8.09355,5.10135 v 25.44071 c 0,25.81728 -1.34639,30.64919 -8.52521,30.59536 -1.83992,-0.0138 -15.97126,-6.98409 -31.40296,-15.48945 z m 20.48922,-20.63665 -0.0145,-10.25177 -14.8622,-8.09363 c -8.17422,-4.45142 -15.45191,-8.09347 -16.17266,-8.09347 -0.72075,0 -1.31045,4.29623 -1.31045,9.54733 v 9.5475 l 15.64753,8.74612 c 8.60614,4.81051 15.89033,8.76955 16.1871,8.7979 0.29676,0.034 0.53309,-4.56143 0.52513,-10.19998 z"
     id="path44"
     inkscape:connector-curvature="0" />
  <path
     style="stroke-width:2.1582799"
     d="m 204.48036,369.44039 c -15.51723,-8.58347 -19.71372,-13.80265 -16.27069,-20.23596 3.40548,-6.36336 8.92959,-5.59678 26.09404,3.62066 15.65732,8.40825 20.18972,14.78621 14.97362,21.0713 -3.91493,4.71712 -10.28198,3.57295 -24.79697,-4.456 z"
     id="path46"
     inkscape:connector-curvature="0" />
  <path
     style="stroke-width:2.1582799"
     d="m 231.84484,508.49828 c -22.6927,-1.97612 -57.0525,-10.42461 -71.60922,-17.60718 -7.46665,-3.68415 -9.71225,-5.98542 -9.71225,-9.9526 0,-9.77756 5.43799,-10.30746 28.29375,-2.75731 30.85363,10.19218 57.32545,14.00622 87.17421,12.55999 96.34876,-4.6684 178.24007,-65.19663 210.56343,-155.63346 21.18038,-59.25995 17.66455,-125.74865 -9.59133,-181.38386 -5.81543,-11.8705 -12.07366,-23.52537 -13.90718,-25.89947 -3.25908,-4.21999 -3.5438,-4.11133 -12.72677,4.85619 -9.49108,9.26837 -15.93173,11.31971 -20.66862,6.58272 -3.59582,-3.5957 -3.59582,-58.130877 0,-61.726747 3.59582,-3.595869 58.13098,-3.595869 61.7268,0 4.703,4.703036 2.71474,10.411197 -7.38867,21.212561 l -9.97862,10.667906 8.98918,14.87772 c 30.25653,50.07612 42.44369,110.97534 33.74968,168.64712 C 486.59144,426.72489 367.25969,520.29119 231.84484,508.49828 Z M 446.15865,92.591531 c -9.28886,-1.139255 -11.82148,0.938909 -11.82148,9.703869 v 8.05968 l 8.76639,-8.53151 8.76637,-8.531508 z"
     id="path48"
     inkscape:connector-curvature="0" />
  <path
     style="stroke-width:2.1582799"
     d="m 121.81825,471.63837 c -4.01279,-4.01269 -3.05961,-12.11465 1.72662,-14.67619 8.29802,-4.44106 17.33189,4.76144 12.866,13.10602 -2.49088,4.65431 -10.63254,5.5304 -14.59262,1.57051 z"
     id="path50"
     inkscape:connector-curvature="0" />
  <path
     style="stroke-width:2.1582799"
     d="m 29.813857,434.14601 c -5.375332,-5.37522 -4.109058,-9.05784 7.241454,-21.05924 l 10.63304,-11.24298 -7.622626,-11.8294 C 23.666485,364.56468 9.9102985,327.76725 4.699721,295.41121 1.3033394,274.32073 1.9367255,229.98502 5.9318891,209.16195 25.486458,107.24208 103.50099,28.142795 205.35662,6.9645332 251.41623,-2.6123414 310.30598,2.6689808 349.18535,19.863245 c 9.60256,4.246654 11.7703,6.172352 11.7703,10.45568 0,10.66027 -4.80862,11.371329 -26.51376,3.920158 -27.73188,-9.520166 -49.70596,-13.249487 -78.06997,-13.249487 -56.62159,0 -105.23707,17.148932 -148.97492,52.550226 C 80.750418,95.10757 61.359726,119.64977 45.749274,151.56556 18.926164,206.40567 13.546592,263.581 29.845275,320.5969 c 5.531346,19.34968 19.054802,49.95829 27.006062,61.12486 l 4.532295,6.36489 10.484496,-9.80693 c 5.766471,-5.39389 11.281226,-9.80711 12.255007,-9.80711 0.973783,0 3.929067,1.51279 6.567304,3.35987 4.534415,3.176 4.796789,4.87928 4.796789,31.14089 0,22.37779 -0.659648,28.4408 -3.391583,31.17264 -4.968452,4.96841 -57.313337,4.96841 -62.281788,0 z m 46.248852,-23.58683 c 0,-4.1548 -0.295086,-7.55406 -0.655759,-7.55406 -0.360674,0 -3.950482,3.39926 -7.977364,7.55406 l -7.321606,7.55389 h 7.977364 c 7.678132,0 7.977362,-0.28354 7.977365,-7.55389 z"
     id="path52"
     inkscape:connector-curvature="0" />
  <path
     style="stroke-width:2.1582799"
     d="m 378.70212,54.320536 c -8.11221,-5.682014 -4.93531,-16.064687 4.91547,-16.064687 9.48073,0 13.62417,12.862548 5.53758,17.190359 -5.24782,2.808579 -4.76152,2.860872 -10.45305,-1.125672 z"
     id="path54"
     inkscape:connector-curvature="0" />
</svg>
