<svg id="Vrstva_1" data-name="Vrstva 1" xmlns="http://www.w3.org/2000/svg" viewBox="0 0 428 510"><defs><style>.cls-1{fill:#433e3e;}</style></defs><title>1_hand</title><path class="cls-1" d="M72.93,344.05l6.78,5.79c24.22,20.72,40.87,37,50.89,46.8l3.28,3.16c.86,7.6,2.12,71.25,3.49,111.2h49.47c-.08-7.94-.19-60.71-.34-64.14,12.35-2.94,52.47-16.45,69.32-28.23-15.07-4.86-67-35.72-78.28-43.67l-.15-.52-4.48-3.61c-1.73-1.4-4.68-4.35-9-8.62-9.86-9.63-26-25.42-49.36-45.61-5.06-16.51-18-61.9-23.71-87.94,8.43-14.12,31.91-52.73,40.92-65.53l61-19.93c2.58,23.28,18.85,24.6,24.37,23.16,6.27-1.62,25.17-11.79,35.17-15.17-.46-11.41-1.81-18-3.28-26.36l18.06-5.9c9.81,23.26,11.09,42,3.38,59.1-10,22.17-39,47.72-87.94,47.48l-13.35-17.78a6.71,6.71,0,0,0-9.37-1.47,6.81,6.81,0,0,0-1.16,9.5l19.75,27.91c.83,1.1,23.23.21,31.76-1.35,15.17,8.93,51.36,30.67,75.67,48.92-8.72-34.59-8.35-63.25-3.23-74.74,8,4.94,18,9.5,30.48,9.59,12.12.09,26.35-4,42.64-15.88l0,0a93.65,93.65,0,0,0,35.87,7.12,95.62,95.62,0,0,0,26.8-3.56c-3.46,45.66-8.77,73.49-13.89,79.76-8.39,10.26-15.82,18.17-23.25,26.09-6,6.41-12,12.83-18.44,20.31-16,18.6-8.52,133.54-10,171.1H397.2c2.73-43.4-.76-132.52,2-138.9,5.69-6.61,11-12.28,17.13-18.84,8.07-8.65,16.16-17.28,25.27-28.45C453.2,310.63,468.81,273.44,470,115c.2-24.74-12.33-50.95-32.71-68.43-18.37-15.72-42-23.68-67.06-22.73C353,9.78,329.5,1.33,306,1c-14.55-.07-27.35,2.64-38.16,8.07a85.82,85.82,0,0,0-81.72,12.24A102.35,102.35,0,0,0,123.3,27.6c-19.76,8.91-32.49,23.73-35.78,41.71-2.89,15.8-3.34,39.1-3.75,60.11-.09,6.29-.24,13.53-.46,18.73C71,166.49,50.67,199.8,45.5,208.92L42,230.25c6,31.2,25,96,28.13,105.31ZM372.33,73.18c16.49-.79,27.86,4.8,34.52,10.5,11.31,9.67,15.26,22.27,15.2,30.11-.18,24.69-.82,47.08-1.77,67.15-7.68,6.76-34.23,10.79-53.34,2.79C374,153.6,377.25,106.92,372.33,73.18ZM285.51,56.67c3.09-4.19,11.21-6.83,20.79-6.76h.4c13,.2,26,5.17,34.35,12.4,9.95,29.81,4.2,101.5-5.48,125.94-23.39,15.62-35.72,6.61-47.48-2.53,10.45-23.91,6.68-47.39-.49-66.87-.21-7.24-2.1-42.18-3.92-59.69ZM209.15,67.73c4.69-7,13.09-12.28,22.48-14.24a37.77,37.77,0,0,1,30.44,6.65l2.81,2c.74,7.63,1.57,19,2.26,30.09-5.6,1.2-25.71,7.5-58,17.77-.51-11.49-1.33-28.29-2.17-39.08Zm-77,64c.34-17.93.76-40.22,3-52.21.24-1.32,2.86-4.41,8.86-7.13,13.14-5.92,32.3-5.77,42.71.29l1.44.84c.84,11.59,1.73,30.5,2.25,42.53-21.29,6.79-43.85,14-58.27,18.38C132.1,133.42,132.11,132.69,132.13,131.68Z" transform="translate(-42 -1)"/></svg>