<svg id="Vrstva_1" data-name="Vrstva 1" xmlns="http://www.w3.org/2000/svg" viewBox="0 0 512 513"><defs><style>.cls-1{fill:#433e3e;}</style></defs><title>2_leaf</title><path class="cls-1" d="M368.72,308.54C330,341.24,333.6,409.33,333.6,409.33s66.52,15.06,105.3-17.64S512,258.86,512,258.86,407.5,275.83,368.72,308.54Z" transform="translate(0 0.5)"/><path class="cls-1" d="M158.49,237.37S252,271.94,306.84,344.55C334,297,363.42,256.74,335.65,203.26,292.66,120.45,93,113.33,22.88-.5c-34.46,49.06-34.9,249.79,32.9,356,49.57,77.61,117.64,75.61,162,68.24,8,16.8,9.93,45.78,6.87,78C248,518.77,307,518,321.47,481.77,301.46,389.87,158.9,240.44,158.49,237.37Z" transform="translate(0 0.5)"/></svg>