<?xml version="1.0" encoding="UTF-8" standalone="no"?>
<!-- Generator: Adobe Illustrator 16.0.0, SVG Export Plug-In . SVG Version: 6.00 Build 0)  -->

<svg
   xmlns:dc="http://purl.org/dc/elements/1.1/"
   xmlns:cc="http://creativecommons.org/ns#"
   xmlns:rdf="http://www.w3.org/1999/02/22-rdf-syntax-ns#"
   xmlns:svg="http://www.w3.org/2000/svg"
   xmlns="http://www.w3.org/2000/svg"
   xmlns:sodipodi="http://sodipodi.sourceforge.net/DTD/sodipodi-0.dtd"
   xmlns:inkscape="http://www.inkscape.org/namespaces/inkscape"
   version="1.1"
   id="Capa_1"
   x="0px"
   y="0px"
   width="512"
   height="512"
   viewBox="0 0 512 512"
   xml:space="preserve"
   sodipodi:docname="list.svg"
   inkscape:version="0.92.4 (33fec40, 2019-01-16)"><metadata
   id="metadata55"><rdf:RDF><cc:Work
       rdf:about=""><dc:format>image/svg+xml</dc:format><dc:type
         rdf:resource="http://purl.org/dc/dcmitype/StillImage" /><dc:title></dc:title></cc:Work></rdf:RDF></metadata><defs
   id="defs53" /><sodipodi:namedview
   pagecolor="#ffffff"
   bordercolor="#666666"
   borderopacity="1"
   objecttolerance="10"
   gridtolerance="10"
   guidetolerance="10"
   inkscape:pageopacity="0"
   inkscape:pageshadow="2"
   inkscape:window-width="1920"
   inkscape:window-height="987"
   id="namedview51"
   showgrid="false"
   inkscape:zoom="1.903886"
   inkscape:cx="61.9785"
   inkscape:cy="356.11376"
   inkscape:window-x="0"
   inkscape:window-y="0"
   inkscape:window-maximized="1"
   inkscape:current-layer="Capa_1" />
<g
   id="g18"
   transform="scale(4.1304646)">
	<g
   id="g16">
		<path
   d="M 107.424,16.738 91.597,0 H 16.509 v 123.957 h 90.939 z m -8.969,7.155 V 115.06 H 25.31 V 8.897 h 58.97 v 14.984 z"
   id="path2"
   inkscape:connector-curvature="0" />
		<rect
   x="29.076"
   y="39.431999"
   width="43.938"
   height="6.5"
   id="rect4" />
		<polygon
   points="79.267,49.56 93.024,49.56 93.024,40.027 87.758,45.292 83.414,40.947 85.122,39.238 87.758,41.875 93.024,36.609 93.024,35.803 79.267,35.803 "
   id="polygon6" />
		<rect
   x="29.076"
   y="59.806999"
   width="43.938"
   height="6.5"
   id="rect8" />
		<polygon
   points="93.024,69.936 93.024,56.984 93.024,56.178 79.267,56.178 79.267,69.936 "
   id="polygon10" />
		<rect
   x="29.076"
   y="80.931999"
   width="43.938"
   height="6.5"
   id="rect12" />
		<rect
   x="79.266998"
   y="77.303001"
   width="13.758"
   height="13.758"
   id="rect14" />
	</g>
</g>
<g
   id="g20"
   transform="translate(0,388.043)">
</g>
<g
   id="g22"
   transform="translate(0,388.043)">
</g>
<g
   id="g24"
   transform="translate(0,388.043)">
</g>
<g
   id="g26"
   transform="translate(0,388.043)">
</g>
<g
   id="g28"
   transform="translate(0,388.043)">
</g>
<g
   id="g30"
   transform="translate(0,388.043)">
</g>
<g
   id="g32"
   transform="translate(0,388.043)">
</g>
<g
   id="g34"
   transform="translate(0,388.043)">
</g>
<g
   id="g36"
   transform="translate(0,388.043)">
</g>
<g
   id="g38"
   transform="translate(0,388.043)">
</g>
<g
   id="g40"
   transform="translate(0,388.043)">
</g>
<g
   id="g42"
   transform="translate(0,388.043)">
</g>
<g
   id="g44"
   transform="translate(0,388.043)">
</g>
<g
   id="g46"
   transform="translate(0,388.043)">
</g>
<g
   id="g48"
   transform="translate(0,388.043)">
</g>
</svg>