<?xml version="1.0" encoding="UTF-8" standalone="no"?>
<svg
   xmlns:dc="http://purl.org/dc/elements/1.1/"
   xmlns:cc="http://creativecommons.org/ns#"
   xmlns:rdf="http://www.w3.org/1999/02/22-rdf-syntax-ns#"
   xmlns:svg="http://www.w3.org/2000/svg"
   xmlns="http://www.w3.org/2000/svg"
   xmlns:sodipodi="http://sodipodi.sourceforge.net/DTD/sodipodi-0.dtd"
   xmlns:inkscape="http://www.inkscape.org/namespaces/inkscape"
   width="512"
   height="512"
   viewBox="0 0 512 512"
   version="1.1"
   id="svg20"
   sodipodi:docname="phone.svg"
   inkscape:version="0.92.4 (33fec40, 2019-01-16)">
  <metadata
     id="metadata26">
    <rdf:RDF>
      <cc:Work
         rdf:about="">
        <dc:format>image/svg+xml</dc:format>
        <dc:type
           rdf:resource="http://purl.org/dc/dcmitype/StillImage" />
        <dc:title>C8298478-8BDB-4385-B76B-167A1DEC170F</dc:title>
      </cc:Work>
    </rdf:RDF>
  </metadata>
  <defs
     id="defs24" />
  <sodipodi:namedview
     pagecolor="#ffffff"
     bordercolor="#666666"
     borderopacity="1"
     objecttolerance="10"
     gridtolerance="10"
     guidetolerance="10"
     inkscape:pageopacity="0"
     inkscape:pageshadow="2"
     inkscape:window-width="1920"
     inkscape:window-height="987"
     id="namedview22"
     showgrid="false"
     inkscape:zoom="0.32065217"
     inkscape:cx="-1474.3441"
     inkscape:cy="316.20339"
     inkscape:window-x="0"
     inkscape:window-y="0"
     inkscape:window-maximized="1"
     inkscape:current-layer="svg20" />
  <!-- Generator: sketchtool 54.1 (76490) - https://sketchapp.com -->
  <title
     id="title2">C8298478-8BDB-4385-B76B-167A1DEC170F</title>
  <desc
     id="desc4">Created with sketchtool.</desc>
  <g
     id="Page-1"
     style="fill:none;fill-rule:evenodd;stroke:none;stroke-width:1"
     transform="matrix(16.666686,0,0,16.666686,6.0001317,64.33409)">
    <g
       id="Bsh_Uvodni-stranka"
       transform="translate(-212,-4966)"
       style="fill:#000000;fill-rule:nonzero">
      <g
         id="Paticka"
         transform="translate(80,4705)">
        <g
           id="Kontakty"
           transform="translate(132,256)">
          <g
             id="Telefon">
            <g
               id="ico_smartphone"
               transform="translate(0,5)">
              <path
                 d="m 2.7142383,16.471638 c -1.3041211,-3.220352 -1.3067578,-6.7164696 0,-9.9435105 C 2.8967578,6.0775153 2.6798437,5.5638878 2.229668,5.3810612 1.7794336,5.1982347 1.2666211,5.4155025 1.0841016,5.8662321 c -1.44386723,3.5652347 -1.44708988,7.6942039 0,11.2674189 0.1826367,0.451022 0.6958007,0.667938 1.1455664,0.48517 0.4502343,-0.182826 0.6670898,-0.696395 0.4845703,-1.147183 z"
                 id="Path"
                 inkscape:connector-curvature="0" />
              <path
                 d="M 28.91584,5.8662908 C 28.73332,5.4155612 28.220273,5.1982934 27.770273,5.3811199 c -0.450234,0.1827679 -0.667089,0.6963954 -0.48457,1.1471837 1.304121,3.220352 1.306758,6.7164694 0,9.9435104 -0.234141,0.578168 0.191719,1.211959 0.814805,1.211959 0.347519,0 0.676699,-0.207704 0.815332,-0.550005 1.437539,-3.549686 1.453418,-7.6786558 0,-11.2674772 z"
                 id="path7"
                 inkscape:connector-curvature="0" />
              <path
                 d="m 25.651934,7.1906097 c -0.182286,-0.4508469 -0.695215,-0.6684082 -1.145332,-0.485875 -0.450293,0.1825332 -0.6675,0.6960434 -0.485215,1.1468903 0.959414,2.372814 0.961523,4.918656 0,7.296633 -0.234199,0.579283 0.193242,1.211489 0.81498,1.211489 0.347695,0 0.677051,-0.207938 0.815567,-0.550474 1.114335,-2.75648 1.116621,-5.8564924 0,-8.6186633 z"
                 id="path9"
                 inkscape:connector-curvature="0" />
              <path
                 d="M 5.9785547,7.851625 C 6.1608398,7.4007194 5.9436328,6.8872679 5.4933398,6.7047347 5.0432227,6.5222602 4.530293,6.7397041 4.3480078,7.1906097 c -1.1143359,2.7565383 -1.1166211,5.8565513 0,8.6187223 0.1823438,0.451023 0.6952734,0.668349 1.145332,0.485875 0.450293,-0.182534 0.6675,-0.696044 0.4852149,-1.146891 -0.9594141,-2.372872 -0.9615235,-4.918714 0,-7.296691 z"
                 id="path11"
                 inkscape:connector-curvature="0" />
              <path
                 d="M 20.33584,0.05040051 H 9.6641016 c -1.4549414,0 -2.6385938,1.18532139 -2.6385938,2.64218369 V 20.307299 c 0,1.45692 1.1836524,2.642183 2.6385938,2.642183 H 20.33584 c 1.454941,0 2.638594,-1.185263 2.638594,-2.642183 V 2.6926429 c 0,-1.456921 -1.183653,-2.64224239 -2.638594,-2.64224239 z M 8.7845508,2.6926429 c 0,-0.4856403 0.3945117,-0.8807475 0.8795508,-0.8807475 H 20.33584 c 0.48498,0 0.879551,0.3951072 0.879551,0.8807475 V 3.5733903 H 8.7845508 Z m 0,2.6421836 H 21.215332 V 17.665115 H 8.7845508 Z M 21.215391,20.307357 c 0,0.48564 -0.394571,0.880748 -0.879551,0.880748 H 9.6641016 c -0.4849805,0 -0.8795508,-0.395108 -0.8795508,-0.880748 V 19.42661 H 21.215391 Z"
                 id="Shape"
                 inkscape:connector-curvature="0" />
            </g>
          </g>
        </g>
      </g>
    </g>
  </g>
</svg>
