<?xml version="1.0" encoding="UTF-8" standalone="no"?>
<!-- Generator: Adobe Illustrator 19.1.0, SVG Export Plug-In . SVG Version: 6.00 Build 0)  -->

<svg
   xmlns:dc="http://purl.org/dc/elements/1.1/"
   xmlns:cc="http://creativecommons.org/ns#"
   xmlns:rdf="http://www.w3.org/1999/02/22-rdf-syntax-ns#"
   xmlns:svg="http://www.w3.org/2000/svg"
   xmlns="http://www.w3.org/2000/svg"
   xmlns:sodipodi="http://sodipodi.sourceforge.net/DTD/sodipodi-0.dtd"
   xmlns:inkscape="http://www.inkscape.org/namespaces/inkscape"
   version="1.1"
   id="Capa_1"
   x="0px"
   y="0px"
   viewBox="0 0 512.00002 512.00002"
   xml:space="preserve"
   inkscape:version="0.91 r13725"
   sodipodi:docname="plus.svg"
   width="512"
   height="512"><metadata
   id="metadata3472"><rdf:RDF><cc:Work
       rdf:about=""><dc:format>image/svg+xml</dc:format><dc:type
         rdf:resource="http://purl.org/dc/dcmitype/StillImage" /><dc:title></dc:title></cc:Work></rdf:RDF></metadata><defs
   id="defs3470" /><sodipodi:namedview
   pagecolor="#ffffff"
   bordercolor="#666666"
   borderopacity="1"
   objecttolerance="10"
   gridtolerance="10"
   guidetolerance="10"
   inkscape:pageopacity="0"
   inkscape:pageshadow="2"
   inkscape:window-width="1536"
   inkscape:window-height="801"
   id="namedview3468"
   showgrid="false"
   inkscape:zoom="0.47981134"
   inkscape:cx="245.92999"
   inkscape:cy="245.92999"
   inkscape:window-x="-8"
   inkscape:window-y="-8"
   inkscape:window-maximized="1"
   inkscape:current-layer="Capa_1" />
<g
   id="g3402"
   transform="matrix(1.0409508,0,0,1.0409508,-0.00103024,-0.00103024)">
	<g
   id="g3404">
		<path
   d="m 465.167,211.614 -184.922,0 0,-184.923 c 0,-8.424 -11.439,-26.69 -34.316,-26.69 -22.877,0 -34.316,18.267 -34.316,26.69 l 0,184.924 -184.923,0 C 18.267,211.614 0,223.053 0,245.929 c 0,22.876 18.267,34.316 26.69,34.316 l 184.924,0 0,184.924 c 0,8.422 11.438,26.69 34.316,26.69 22.878,0 34.316,-18.268 34.316,-26.69 l 0,-184.924 184.924,0 c 8.422,0 26.69,-11.438 26.69,-34.316 0,-22.878 -18.27,-34.315 -26.693,-34.315 z"
   id="path3406"
   inkscape:connector-curvature="0" />
	</g>
	<g
   id="g3408">
	</g>
	<g
   id="g3410">
	</g>
	<g
   id="g3412">
	</g>
	<g
   id="g3414">
	</g>
	<g
   id="g3416">
	</g>
	<g
   id="g3418">
	</g>
	<g
   id="g3420">
	</g>
	<g
   id="g3422">
	</g>
	<g
   id="g3424">
	</g>
	<g
   id="g3426">
	</g>
	<g
   id="g3428">
	</g>
	<g
   id="g3430">
	</g>
	<g
   id="g3432">
	</g>
	<g
   id="g3434">
	</g>
	<g
   id="g3436">
	</g>
</g>
<g
   id="g3438"
   transform="translate(0,20.140015)">
</g>
<g
   id="g3440"
   transform="translate(0,20.140015)">
</g>
<g
   id="g3442"
   transform="translate(0,20.140015)">
</g>
<g
   id="g3444"
   transform="translate(0,20.140015)">
</g>
<g
   id="g3446"
   transform="translate(0,20.140015)">
</g>
<g
   id="g3448"
   transform="translate(0,20.140015)">
</g>
<g
   id="g3450"
   transform="translate(0,20.140015)">
</g>
<g
   id="g3452"
   transform="translate(0,20.140015)">
</g>
<g
   id="g3454"
   transform="translate(0,20.140015)">
</g>
<g
   id="g3456"
   transform="translate(0,20.140015)">
</g>
<g
   id="g3458"
   transform="translate(0,20.140015)">
</g>
<g
   id="g3460"
   transform="translate(0,20.140015)">
</g>
<g
   id="g3462"
   transform="translate(0,20.140015)">
</g>
<g
   id="g3464"
   transform="translate(0,20.140015)">
</g>
<g
   id="g3466"
   transform="translate(0,20.140015)">
</g>
</svg>