<?xml version="1.0" encoding="UTF-8" standalone="no"?>
<!-- Generator: Adobe Illustrator 19.0.0, SVG Export Plug-In . SVG Version: 6.00 Build 0)  -->

<svg
   xmlns:dc="http://purl.org/dc/elements/1.1/"
   xmlns:cc="http://creativecommons.org/ns#"
   xmlns:rdf="http://www.w3.org/1999/02/22-rdf-syntax-ns#"
   xmlns:svg="http://www.w3.org/2000/svg"
   xmlns="http://www.w3.org/2000/svg"
   xmlns:sodipodi="http://sodipodi.sourceforge.net/DTD/sodipodi-0.dtd"
   xmlns:inkscape="http://www.inkscape.org/namespaces/inkscape"
   version="1.1"
   id="Capa_1"
   x="0px"
   y="0px"
   viewBox="0 0 512 512"
   xml:space="preserve"
   sodipodi:docname="plus.svg"
   width="512"
   height="512"
   inkscape:version="0.92.4 (33fec40, 2019-01-16)"><metadata
   id="metadata39"><rdf:RDF><cc:Work
       rdf:about=""><dc:format>image/svg+xml</dc:format><dc:type
         rdf:resource="http://purl.org/dc/dcmitype/StillImage" /><dc:title></dc:title></cc:Work></rdf:RDF></metadata><defs
   id="defs37" /><sodipodi:namedview
   pagecolor="#ffffff"
   bordercolor="#666666"
   borderopacity="1"
   objecttolerance="10"
   gridtolerance="10"
   guidetolerance="10"
   inkscape:pageopacity="0"
   inkscape:pageshadow="2"
   inkscape:window-width="1600"
   inkscape:window-height="780"
   id="namedview35"
   showgrid="false"
   inkscape:zoom="0.41017718"
   inkscape:cx="-283.46856"
   inkscape:cy="346.33689"
   inkscape:window-x="0"
   inkscape:window-y="27"
   inkscape:window-maximized="1"
   inkscape:current-layer="Capa_1" />
<polygon
   points="19,23 19,42 23,42 23,23 42,23 42,19 23,19 23,0 19,0 19,19 0,19 0,23 "
   id="polygon2"
   transform="matrix(12.190476,0,0,12.190476,4e-6,4e-6)" />
<g
   id="g4"
   transform="translate(0,470)">
</g>
<g
   id="g6"
   transform="translate(0,470)">
</g>
<g
   id="g8"
   transform="translate(0,470)">
</g>
<g
   id="g10"
   transform="translate(0,470)">
</g>
<g
   id="g12"
   transform="translate(0,470)">
</g>
<g
   id="g14"
   transform="translate(0,470)">
</g>
<g
   id="g16"
   transform="translate(0,470)">
</g>
<g
   id="g18"
   transform="translate(0,470)">
</g>
<g
   id="g20"
   transform="translate(0,470)">
</g>
<g
   id="g22"
   transform="translate(0,470)">
</g>
<g
   id="g24"
   transform="translate(0,470)">
</g>
<g
   id="g26"
   transform="translate(0,470)">
</g>
<g
   id="g28"
   transform="translate(0,470)">
</g>
<g
   id="g30"
   transform="translate(0,470)">
</g>
<g
   id="g32"
   transform="translate(0,470)">
</g>
</svg>