<?xml version="1.0" encoding="UTF-8" standalone="no"?>
<!-- Generator: Adobe Illustrator 19.0.0, SVG Export Plug-In . SVG Version: 6.00 Build 0)  -->

<svg
   xmlns:dc="http://purl.org/dc/elements/1.1/"
   xmlns:cc="http://creativecommons.org/ns#"
   xmlns:rdf="http://www.w3.org/1999/02/22-rdf-syntax-ns#"
   xmlns:svg="http://www.w3.org/2000/svg"
   xmlns="http://www.w3.org/2000/svg"
   xmlns:sodipodi="http://sodipodi.sourceforge.net/DTD/sodipodi-0.dtd"
   xmlns:inkscape="http://www.inkscape.org/namespaces/inkscape"
   version="1.1"
   id="Layer_1"
   x="0px"
   y="0px"
   viewBox="0 0 512.00001 512.00001"
   xml:space="preserve"
   sodipodi:docname="remove-thin.svg"
   width="512"
   height="512"
   inkscape:version="0.92.4 (33fec40, 2019-01-16)"><metadata
   id="metadata43"><rdf:RDF><cc:Work
       rdf:about=""><dc:format>image/svg+xml</dc:format><dc:type
         rdf:resource="http://purl.org/dc/dcmitype/StillImage" /><dc:title></dc:title></cc:Work></rdf:RDF></metadata><defs
   id="defs41" /><sodipodi:namedview
   pagecolor="#ffffff"
   bordercolor="#666666"
   borderopacity="1"
   objecttolerance="10"
   gridtolerance="10"
   guidetolerance="10"
   inkscape:pageopacity="0"
   inkscape:pageshadow="2"
   inkscape:window-width="1920"
   inkscape:window-height="987"
   id="namedview39"
   showgrid="false"
   inkscape:zoom="0.46096632"
   inkscape:cx="255.98399"
   inkscape:cy="255.98399"
   inkscape:window-x="0"
   inkscape:window-y="0"
   inkscape:window-maximized="1"
   inkscape:current-layer="Layer_1" />
<g
   id="g6"
   transform="scale(1.0000625)">
	<g
   id="g4">
		<polygon
   points="10.992,499.48 255.984,267 500.976,499.48 511.968,487.88 267.6,255.976 511.968,24.072 500.976,12.488 255.984,244.968 10.992,12.488 0,24.072 244.368,255.976 0,487.88 "
   id="polygon2" />
	</g>
</g>
<g
   id="g8"
   transform="matrix(1.0000625,0,0,1.0000625,0,7.9348878e-4)">
</g>
<g
   id="g10"
   transform="matrix(1.0000625,0,0,1.0000625,0,7.9348878e-4)">
</g>
<g
   id="g12"
   transform="matrix(1.0000625,0,0,1.0000625,0,7.9348878e-4)">
</g>
<g
   id="g14"
   transform="matrix(1.0000625,0,0,1.0000625,0,7.9348878e-4)">
</g>
<g
   id="g16"
   transform="matrix(1.0000625,0,0,1.0000625,0,7.9348878e-4)">
</g>
<g
   id="g18"
   transform="matrix(1.0000625,0,0,1.0000625,0,7.9348878e-4)">
</g>
<g
   id="g20"
   transform="matrix(1.0000625,0,0,1.0000625,0,7.9348878e-4)">
</g>
<g
   id="g22"
   transform="matrix(1.0000625,0,0,1.0000625,0,7.9348878e-4)">
</g>
<g
   id="g24"
   transform="matrix(1.0000625,0,0,1.0000625,0,7.9348878e-4)">
</g>
<g
   id="g26"
   transform="matrix(1.0000625,0,0,1.0000625,0,7.9348878e-4)">
</g>
<g
   id="g28"
   transform="matrix(1.0000625,0,0,1.0000625,0,7.9348878e-4)">
</g>
<g
   id="g30"
   transform="matrix(1.0000625,0,0,1.0000625,0,7.9348878e-4)">
</g>
<g
   id="g32"
   transform="matrix(1.0000625,0,0,1.0000625,0,7.9348878e-4)">
</g>
<g
   id="g34"
   transform="matrix(1.0000625,0,0,1.0000625,0,7.9348878e-4)">
</g>
<g
   id="g36"
   transform="matrix(1.0000625,0,0,1.0000625,0,7.9348878e-4)">
</g>
</svg>