<?xml version="1.0" encoding="UTF-8" standalone="no"?>
<!-- Generator: Adobe Illustrator 16.0.0, SVG Export Plug-In . SVG Version: 6.00 Build 0)  -->

<svg
   xmlns:dc="http://purl.org/dc/elements/1.1/"
   xmlns:cc="http://creativecommons.org/ns#"
   xmlns:rdf="http://www.w3.org/1999/02/22-rdf-syntax-ns#"
   xmlns:svg="http://www.w3.org/2000/svg"
   xmlns="http://www.w3.org/2000/svg"
   xmlns:sodipodi="http://sodipodi.sourceforge.net/DTD/sodipodi-0.dtd"
   xmlns:inkscape="http://www.inkscape.org/namespaces/inkscape"
   version="1.1"
   id="Capa_1"
   x="0px"
   y="0px"
   width="512"
   height="512"
   viewBox="0 0 512.00002 511.99999"
   xml:space="preserve"
   sodipodi:docname="slider-arrow.svg"
   inkscape:version="0.92.4 (33fec40, 2019-01-16)"><metadata
   id="metadata41"><rdf:RDF><cc:Work
       rdf:about=""><dc:format>image/svg+xml</dc:format><dc:type
         rdf:resource="http://purl.org/dc/dcmitype/StillImage" /><dc:title></dc:title></cc:Work></rdf:RDF></metadata><defs
   id="defs39" /><sodipodi:namedview
   pagecolor="#ffffff"
   bordercolor="#666666"
   borderopacity="1"
   objecttolerance="10"
   gridtolerance="10"
   guidetolerance="10"
   inkscape:pageopacity="0"
   inkscape:pageshadow="2"
   inkscape:window-width="1600"
   inkscape:window-height="780"
   id="namedview37"
   showgrid="false"
   inkscape:zoom="0.49110087"
   inkscape:cx="240.27699"
   inkscape:cy="240.2765"
   inkscape:window-x="0"
   inkscape:window-y="27"
   inkscape:window-maximized="1"
   inkscape:current-layer="Capa_1" />
<g
   id="g4"
   transform="matrix(0,-1.0654381,1.0654381,0,-2.703537e-4,512.00054)">
	<path
   d="m 251.093,37.38 c -2.235,-3.859 -6.357,-6.235 -10.816,-6.235 -4.459,0 -8.582,2.376 -10.816,6.235 L 1.684,430.645 c -2.24,3.867 -2.245,8.636 -0.013,12.507 2.232,3.871 6.361,6.257 10.83,6.257 h 455.553 c 4.469,0 8.598,-2.386 10.83,-6.257 2.231,-3.871 2.227,-8.641 -0.014,-12.507 z M 34.186,424.409 240.276,68.585 446.367,424.409 Z"
   id="path2"
   inkscape:connector-curvature="0" />
</g>
<g
   id="g6"
   transform="translate(0,31.446991)">
</g>
<g
   id="g8"
   transform="translate(0,31.446991)">
</g>
<g
   id="g10"
   transform="translate(0,31.446991)">
</g>
<g
   id="g12"
   transform="translate(0,31.446991)">
</g>
<g
   id="g14"
   transform="translate(0,31.446991)">
</g>
<g
   id="g16"
   transform="translate(0,31.446991)">
</g>
<g
   id="g18"
   transform="translate(0,31.446991)">
</g>
<g
   id="g20"
   transform="translate(0,31.446991)">
</g>
<g
   id="g22"
   transform="translate(0,31.446991)">
</g>
<g
   id="g24"
   transform="translate(0,31.446991)">
</g>
<g
   id="g26"
   transform="translate(0,31.446991)">
</g>
<g
   id="g28"
   transform="translate(0,31.446991)">
</g>
<g
   id="g30"
   transform="translate(0,31.446991)">
</g>
<g
   id="g32"
   transform="translate(0,31.446991)">
</g>
<g
   id="g34"
   transform="translate(0,31.446991)">
</g>
</svg>