<?xml version="1.0" encoding="UTF-8"?>
<svg width="392px" height="512px" viewBox="0 0 392 512" version="1.1" xmlns="http://www.w3.org/2000/svg" xmlns:xlink="http://www.w3.org/1999/xlink">
    <!-- Generator: Sketch 55.2 (78181) - https://sketchapp.com -->
    <title>ico_arrow-carousel</title>
    <desc>Created with Sketch.</desc>
    <g id="Page-1" stroke="none" stroke-width="1" fill="none" fill-rule="evenodd">
        <g id="svg" transform="translate(-60.000000, 0.000000)" fill="#000000" fill-rule="nonzero">
            <path d="M267.132994,66.9600001 L509.751235,430.887362 C513.850552,437.036337 512.188975,445.344219 506.04,449.443536 C503.841928,450.908917 501.259283,451.690879 498.61753,451.690879 L13.3810479,451.690879 C5.9908992,451.690879 0,445.69998 0,438.309832 C0,435.668078 0.781962044,433.085433 2.24734305,430.887362 L244.865584,66.9600001 C248.964901,60.8110247 257.272783,59.1494482 263.421759,63.2487651 C264.891698,64.2287243 266.153035,65.4900613 267.132994,66.9600001 Z M88.3891979,398.166688 L423.60938,398.166688 L255.999289,146.751551 L88.3891979,398.166688 Z" id="ico_arrow-carousel" transform="translate(256.000000, 256.345440) scale(-1, 1) rotate(90.000000) translate(-256.000000, -256.345440) "></path>
        </g>
    </g>
</svg>