<?xml version="1.0" encoding="UTF-8" standalone="no"?>
<svg
   xmlns:dc="http://purl.org/dc/elements/1.1/"
   xmlns:cc="http://creativecommons.org/ns#"
   xmlns:rdf="http://www.w3.org/1999/02/22-rdf-syntax-ns#"
   xmlns:svg="http://www.w3.org/2000/svg"
   xmlns="http://www.w3.org/2000/svg"
   xmlns:sodipodi="http://sodipodi.sourceforge.net/DTD/sodipodi-0.dtd"
   xmlns:inkscape="http://www.inkscape.org/namespaces/inkscape"
   width="512"
   height="512"
   viewBox="0 0 512 512"
   version="1.1"
   id="svg26"
   sodipodi:docname="towel.svg"
   inkscape:version="0.92.4 (f8dce91, 2019-08-02)">
  <metadata
     id="metadata32">
    <rdf:RDF>
      <cc:Work
         rdf:about="">
        <dc:format>image/svg+xml</dc:format>
        <dc:type
           rdf:resource="http://purl.org/dc/dcmitype/StillImage" />
        <dc:title></dc:title>
      </cc:Work>
    </rdf:RDF>
  </metadata>
  <defs
     id="defs30" />
  <sodipodi:namedview
     pagecolor="#ffffff"
     bordercolor="#666666"
     borderopacity="1"
     objecttolerance="10"
     gridtolerance="10"
     guidetolerance="10"
     inkscape:pageopacity="0"
     inkscape:pageshadow="2"
     inkscape:window-width="1920"
     inkscape:window-height="1052"
     id="namedview28"
     showgrid="false"
     inkscape:zoom="0.98333333"
     inkscape:cx="529.02597"
     inkscape:cy="243.19389"
     inkscape:window-x="0"
     inkscape:window-y="0"
     inkscape:window-maximized="1"
     inkscape:current-layer="svg26" />
  <path
     style="stroke-width:1.01694918"
     d="m 143.90733,508.64857 c -6.56327,-1.68868 -11.1045,-4.04777 -16.77967,-8.71676 -5.88357,-4.84045 -6.62293,-5.25997 -11.05215,-6.27108 -4.6111,-1.05263 -10.73294,0.46976 -15.06479,3.74635 -5.207639,3.93902 -8.073621,4.67223 -11.943144,3.05544 -1.862594,-0.77824 -3.78562,-2.03371 -4.273392,-2.78994 -0.487772,-0.75621 -1.115672,-45.76477 -1.395333,-100.01901 L 82.890376,299.0095 55.432749,298.50103 c -25.387595,-0.47014 -27.8161,-0.67415 -32.212545,-2.70599 -6.734613,-3.11245 -13.5472745,-9.77849 -16.8344363,-16.47214 -2.4836229,-5.05741 -2.8155554,-6.88174 -2.8016441,-15.39814 0.018392,-11.25955 2.1292897,-16.81523 9.0858904,-23.91316 2.948712,-3.00862 33.872921,-21.41002 108.864426,-64.77964 57.61017,-33.31751 107.26272,-61.76339 110.33899,-63.21306 3.07627,-1.44967 7.53813,-3.11883 9.91525,-3.70924 l 4.32204,-1.07347 0.004,-9.367579 c 0.003,-7.544048 0.39608,-10.010965 2.01895,-12.672667 1.10833,-1.817797 2.13629,-3.321051 2.28433,-3.340564 19.21435,-2.532504 27.44667,-7.741658 32.88225,-20.806887 2.254,-5.418432 1.57121,-16.743325 -1.34944,-22.377973 -2.80136,-5.404496 -8.85125,-11.106297 -14.48422,-13.650838 -5.09597,-2.301961 -14.35478,-2.773981 -20.56753,-1.048545 -9.1301,2.535655 -17.24007,12.187853 -19.20941,22.862367 -0.61635,3.340867 -1.30731,7.098177 -1.53546,8.349575 -1.03401,5.6716 -10.90033,7.504407 -15.51194,2.881559 -2.37739,-2.383176 -2.64972,-3.394267 -2.50641,-9.305699 0.43391,-17.898086 13.12962,-35.440612 30.52645,-42.1804547 8.93255,-3.4606334 23.15273,-3.8991175 31.85514,-0.9822645 20.27535,6.7958402 33.56272,24.9442462 33.5224,45.7861642 -0.0269,13.942418 -4.23735,23.766172 -14.62796,34.130387 -6.77681,6.759598 -12.03417,9.848506 -22.19952,13.043107 -1.28791,0.40474 -1.77966,1.635832 -1.77966,4.455262 v 3.89599 l 7.37288,2.20328 c 5.7949,1.73173 30.3352,15.50113 114.66102,64.33556 61.43515,35.57809 108.96954,63.73475 111.22232,65.88181 4.86212,4.63388 9.46678,13.99181 10.3455,21.02485 0.89101,7.13135 -1.67463,16.9059 -6.15619,23.45377 -3.78741,5.53369 -6.64126,7.97561 -13.74792,11.76357 l -4.54507,2.42258 -71.44068,0.2807 -71.44067,0.28071 v 98.5837 98.5837 l -3.59332,3.59332 c -4.55043,4.55043 -11.55198,8.10245 -19.00643,9.64234 -10.73483,2.21752 -22.22332,-1.03266 -32.39728,-9.16543 -3.47993,-2.78175 -7.5165,-5.31614 -8.97014,-5.63197 -1.45365,-0.31583 -3.14617,-0.72403 -3.76115,-0.90712 -3.42722,-1.02035 -10.66478,1.94962 -16.24119,6.66466 -9.38874,7.93847 -20.94642,11.2394 -31.92716,9.11853 -7.23392,-1.3972 -12.48589,-4.01644 -19.30148,-9.62597 -5.13052,-4.22265 -12.50811,-7.11275 -15.71761,-6.15722 -0.61498,0.18309 -2.3075,0.59129 -3.76114,0.90712 -1.45365,0.31583 -5.49022,2.85022 -8.97015,5.63197 -10.41148,8.32264 -23.26727,11.6569 -34.14956,8.85698 z m 18.77979,-21.51842 c 1.9762,-1.3947 5.64122,-4.09944 8.14449,-6.01054 6.03286,-4.60572 12.86879,-6.68638 21.96791,-6.68638 9.47467,0 16.99012,2.71111 24.52219,8.84606 12.00789,9.78055 18.11249,9.78055 30.12038,0 8.46429,-6.89425 15.40046,-9.13651 26.63473,-8.6102 10.56618,0.49502 15.25714,2.33448 23.77449,9.32267 7.99069,6.55609 15.87739,8.12389 22.75093,4.52266 1.67613,-0.87817 1.78069,-6.68367 1.79732,-99.79493 0.0195,-109.50503 -0.10601,-107.21984 6.55762,-119.34282 l 3.58123,-6.51525 -103.97657,0.27744 -103.97655,0.27742 -5.08474,2.70875 c -6.38943,3.40378 -11.99409,9.16894 -14.66779,15.08786 -2.03022,4.49441 -2.06755,6.26807 -2.08614,99.15254 l -0.0189,94.57628 10.42032,0.0337 c 12.01684,0.0388 15.78199,1.40584 25.16609,9.13678 3.07627,2.53433 6.9661,5.03649 8.64406,5.56034 4.63108,1.44581 11.69599,0.30385 15.72895,-2.54238 z M 88.440845,271.76539 c 1.934113,-4.03269 3.688351,-7.67538 3.898305,-8.09487 0.209954,-0.41949 -1.979739,-0.76271 -4.865984,-0.76271 -4.444177,0 -5.702891,-0.45518 -8.220338,-2.97263 -3.189393,-3.18938 -3.732107,-6.45122 -1.784563,-10.72562 1.657185,-3.63711 174.178615,-104.26785 178.756925,-104.26785 4.57303,0 176.6108,100.10467 178.61629,103.93255 2.24739,4.28961 1.76598,7.76105 -1.5339,11.06092 l -2.97261,2.97263 h -30.02818 c -17.43159,0 -32.15005,0.45506 -35.08639,1.0848 -5.95407,1.27691 -14.69977,7.17896 -17.60584,11.8813 l -2.04256,3.30508 h 66.98244 66.98244 l 3.70072,-2.5147 c 4.6225,-3.14107 7.50233,-9.93657 6.49238,-15.32004 -0.38024,-2.02686 -2.15097,-5.24067 -3.93497,-7.14179 -3.18027,-3.3891 -200.35053,-118.33982 -214.00786,-124.7671 -7.5334,-3.54528 -15.78646,-4.53521 -23.85153,-2.86091 -8.33372,1.73007 -219.836904,124.10365 -223.265583,129.17917 -4.604605,6.81628 -2.197914,16.96235 5.075451,21.39697 3.083154,1.87982 5.123524,2.01822 29.246583,1.98388 l 25.932204,-0.0369 z M 389.4158,243.16738 c -0.23305,-0.23012 -30.33198,-17.82781 -66.88651,-39.10598 -61.61517,-35.86582 -66.62188,-38.58618 -68.64407,-37.29731 -1.1997,0.76466 -31.01179,18.17491 -66.24908,38.68947 -35.23729,20.51456 -64.25848,37.48661 -64.49153,37.7157 -0.23304,0.22908 59.67797,0.41651 133.1356,0.41651 73.45762,0 133.36864,-0.18827 133.13559,-0.41839 z"
     id="path40"
     inkscape:connector-curvature="0" />
  <path
     style="stroke-width:1.01694918"
     d="m 134.55277,435.00384 c -4.02602,-3.16377 -4.37426,-6.22611 -4.37426,-38.46608 0,-32.91855 0.4634,-36.58041 4.9318,-38.97183 3.49416,-1.87002 7.93482,-1.26513 11.26136,1.53397 l 3.12888,2.63278 v 34.90394 34.90395 l -3.12888,2.63277 c -3.66547,3.08429 -8.51704,3.4252 -11.8189,0.8305 z"
     id="path42"
     inkscape:connector-curvature="0" />
  <path
     style="stroke-width:1.01694918"
     d="m 134.91373,337.01031 c -1.03122,-0.59943 -2.52465,-2.64484 -3.31873,-4.54534 -1.24833,-2.98768 -1.24708,-3.92624 0.009,-6.93293 1.72459,-4.12754 4.24198,-5.67508 9.23165,-5.67508 8.0224,0 11.78447,9.82322 5.98365,15.62404 -2.8887,2.88869 -8.35849,3.5913 -11.90577,1.52931 z"
     id="path44"
     inkscape:connector-curvature="0" />
  <path
     style="stroke-width:1.01694918"
     d="m 355.58125,453.63433 c -3.78349,-3.50642 -3.81721,-10.33003 -0.0685,-13.85434 2.61402,-2.45751 2.70515,-2.46637 28.47458,-2.76856 l 25.85217,-0.30316 v -35.08633 c 0,-39.06999 0.13763,-39.96783 6.446,-42.04978 4.25114,-1.40301 7.71451,-0.24001 10.74022,3.60655 2.1856,2.77855 2.19732,3.05684 1.91321,45.41899 l -0.28587,42.62331 -2.85332,2.45357 -2.85332,2.45357 h -32.33717 -32.33716 z"
     id="path46"
     inkscape:connector-curvature="0" />
  <path
     style="stroke-width:1.01694918"
     d="m 412.81215,335.18942 c -3.15999,-3.15999 -3.73241,-6.45056 -1.84334,-10.59661 4.14293,-9.09276 19.39791,-4.54167 17.82901,5.31901 -1.27358,8.00466 -10.2839,10.97938 -15.98567,5.2776 z"
     id="path48"
     inkscape:connector-curvature="0" />
</svg>
