<?xml version="1.0" encoding="UTF-8"?>
<svg width="512px" height="420px" viewBox="0 0 512 420" version="1.1" xmlns="http://www.w3.org/2000/svg" xmlns:xlink="http://www.w3.org/1999/xlink">
    <!-- Generator: Sketch 55.2 (78181) - https://sketchapp.com -->
    <title>ico_triangle</title>
    <desc>Created with Sketch.</desc>
    <g id="Page-1" stroke="none" stroke-width="1" fill="none" fill-rule="evenodd">
        <g id="svg" transform="translate(0.000000, -46.000000)" fill="#000000" fill-rule="nonzero">
            <path d="M314.650464,77.3982718 L500.153131,355.652273 C521.749015,388.046099 512.995554,431.813405 480.601728,453.409289 C469.021922,461.12916 455.416117,465.248666 441.498922,465.248666 L70.4935864,465.248666 C31.5610537,465.248666 0,433.687612 0,394.75508 C0,380.837884 4.11950614,367.23208 11.8393771,355.652273 L197.342045,77.3982718 C218.937928,45.0044465 262.705235,36.2509851 295.09906,57.8468687 C302.842942,63.0094565 309.487876,69.6543901 314.650464,77.3982718 Z M255.996254,116.501078 L70.4935864,394.75508 L441.498922,394.75508 L255.996254,116.501078 Z" id="ico_triangle" transform="translate(256.000000, 255.624333) scale(1, -1) translate(-256.000000, -255.624333) "></path>
        </g>
    </g>
</svg>