<?xml version="1.0" encoding="UTF-8" standalone="no"?>
<!-- Generator: Adobe Illustrator 18.0.0, SVG Export Plug-In . SVG Version: 6.00 Build 0)  -->

<svg
   xmlns:dc="http://purl.org/dc/elements/1.1/"
   xmlns:cc="http://creativecommons.org/ns#"
   xmlns:rdf="http://www.w3.org/1999/02/22-rdf-syntax-ns#"
   xmlns:svg="http://www.w3.org/2000/svg"
   xmlns="http://www.w3.org/2000/svg"
   xmlns:sodipodi="http://sodipodi.sourceforge.net/DTD/sodipodi-0.dtd"
   xmlns:inkscape="http://www.inkscape.org/namespaces/inkscape"
   version="1.1"
   id="Capa_1"
   x="0px"
   y="0px"
   viewBox="0 0 511.99999 511.99999"
   xml:space="preserve"
   sodipodi:docname="triangle.svg"
   width="512"
   height="512"
   inkscape:version="0.92.4 (33fec40, 2019-01-16)"><metadata
   id="metadata41"><rdf:RDF><cc:Work
       rdf:about=""><dc:format>image/svg+xml</dc:format><dc:type
         rdf:resource="http://purl.org/dc/dcmitype/StillImage" /><dc:title></dc:title></cc:Work></rdf:RDF></metadata><defs
   id="defs39" /><sodipodi:namedview
   pagecolor="#ffffff"
   bordercolor="#666666"
   borderopacity="1"
   objecttolerance="10"
   gridtolerance="10"
   guidetolerance="10"
   inkscape:pageopacity="0"
   inkscape:pageshadow="2"
   inkscape:window-width="1920"
   inkscape:window-height="987"
   id="namedview37"
   showgrid="false"
   inkscape:zoom="1.2785784"
   inkscape:cx="92.290001"
   inkscape:cy="341.31255"
   inkscape:window-x="0"
   inkscape:window-y="0"
   inkscape:window-maximized="1"
   inkscape:current-layer="Capa_1" />
<g
   id="g4"
   transform="matrix(-2.7738687,0,0,-2.7738687,511.9993,511.99895)">
	<path
   d="M 182.004,146.234 108.745,19.345 c -3.435,-5.949 -9.586,-9.5 -16.455,-9.5 -6.869,0 -13.021,3.551 -16.455,9.5 L 2.576,146.234 c -3.435,5.948 -3.435,13.051 0,19 3.435,5.949 9.586,9.5 16.455,9.5 h 146.518 c 6.869,0 13.021,-3.552 16.455,-9.5 3.434,-5.949 3.434,-13.052 0,-19 z m -12.124,12 c -0.435,0.751 -1.725,2.5 -4.331,2.5 H 19.031 c -2.606,0 -3.896,-1.749 -4.331,-2.5 -0.434,-0.752 -1.302,-2.744 0.001,-5 L 87.96,26.345 c 1.303,-2.256 3.462,-2.5 4.33,-2.5 0.868,0 3.027,0.244 4.33,2.5 l 73.259,126.889 c 1.302,2.256 0.434,4.248 0.001,5 z"
   id="path2"
   inkscape:connector-curvature="0" />
</g>
<g
   id="g6"
   transform="translate(0,327.42)">
</g>
<g
   id="g8"
   transform="translate(0,327.42)">
</g>
<g
   id="g10"
   transform="translate(0,327.42)">
</g>
<g
   id="g12"
   transform="translate(0,327.42)">
</g>
<g
   id="g14"
   transform="translate(0,327.42)">
</g>
<g
   id="g16"
   transform="translate(0,327.42)">
</g>
<g
   id="g18"
   transform="translate(0,327.42)">
</g>
<g
   id="g20"
   transform="translate(0,327.42)">
</g>
<g
   id="g22"
   transform="translate(0,327.42)">
</g>
<g
   id="g24"
   transform="translate(0,327.42)">
</g>
<g
   id="g26"
   transform="translate(0,327.42)">
</g>
<g
   id="g28"
   transform="translate(0,327.42)">
</g>
<g
   id="g30"
   transform="translate(0,327.42)">
</g>
<g
   id="g32"
   transform="translate(0,327.42)">
</g>
<g
   id="g34"
   transform="translate(0,327.42)">
</g>
</svg>