<?xml version="1.0" standalone="no"?>
<!DOCTYPE svg PUBLIC "-//W3C//DTD SVG 20010904//EN"
 "http://www.w3.org/TR/2001/REC-SVG-20010904/DTD/svg10.dtd">
<svg version="1.0" xmlns="http://www.w3.org/2000/svg"
 width="256.000000pt" height="256.000000pt" viewBox="0 0 256.000000 256.000000"
 preserveAspectRatio="xMidYMid meet">
<metadata>
Created by potrace 1.11, written by Peter Selinger 2001-2013
</metadata>
<g transform="translate(0.000000,256.000000) scale(0.100000,-0.100000)"
fill="#000000" stroke="none">
<path d="M0 1280 l0 -1280 1280 0 1280 0 0 1280 0 1280 -1280 0 -1280 0 0
-1280z m1210 5 l0 -825 -297 0 c-217 0 -305 4 -322 13 -61 31 -53 88 17 119
26 12 50 26 54 32 4 6 8 304 8 661 0 358 -4 655 -8 661 -4 6 -28 20 -54 32
-70 31 -78 88 -17 119 17 9 105 13 322 13 l297 0 0 -825z m458 800 c235 -57
372 -237 332 -437 -31 -160 -144 -266 -335 -314 l-69 -17 80 -22 c206 -54 314
-155 346 -324 41 -222 -95 -424 -328 -486 -35 -10 -125 -18 -221 -22 l-163 -6
0 65 0 65 38 7 c46 7 86 36 110 79 15 28 17 62 17 242 0 187 -2 214 -19 249
-21 42 -63 73 -114 82 l-33 6 3 61 3 60 46 13 c57 17 96 54 110 108 7 25 10
100 7 196 -3 123 -8 163 -22 193 -22 45 -63 76 -111 84 l-35 6 0 70 0 70 148
-6 c81 -4 175 -13 210 -22z"/>
</g>
</svg>
