<?xml version="1.0" standalone="no"?>
<!DOCTYPE svg PUBLIC "-//W3C//DTD SVG 20010904//EN"
 "http://www.w3.org/TR/2001/REC-SVG-20010904/DTD/svg10.dtd">
<svg version="1.0" xmlns="http://www.w3.org/2000/svg"
 width="512.000000pt" height="512.000000pt" viewBox="0 0 512.000000 512.000000"
 preserveAspectRatio="xMidYMid meet">
<metadata>
Created by potrace 1.11, written by Peter Selinger 2001-2013
</metadata>
<g transform="translate(0.000000,512.000000) scale(0.100000,-0.100000)"
fill="#000000" stroke="none">
<path d="M500 5104 c-234 -50 -436 -254 -485 -489 -22 -105 -22 -4004 0 -4110
37 -180 170 -351 336 -433 157 -78 -8 -73 2242 -70 l2012 3 73 27 c168 61 296
172 370 318 72 145 72 135 71 945 l0 720 -192 181 c-106 100 -237 221 -292
270 -55 48 -101 91 -103 95 -2 4 32 37 75 74 43 37 176 160 296 272 l217 204
0 717 c0 805 0 796 -71 942 -82 165 -252 297 -434 335 -102 21 -4015 21 -4115
-1z m1499 -1581 c-259 -307 -399 -651 -416 -1019 -15 -316 71 -643 242 -921
31 -51 33 -50 -100 -23 -561 115 -1056 421 -1376 850 -122 163 -118 143 -53
238 362 529 964 877 1659 957 61 7 113 13 117 14 5 0 -29 -42 -73 -96z m536
71 c113 -14 397 -77 425 -94 10 -6 -8 -31 -64 -92 -270 -293 -427 -660 -443
-1034 -11 -257 49 -540 161 -761 30 -59 30 -59 -67 -69 l-63 -6 -84 91 c-46
50 -108 124 -138 164 -399 534 -431 1196 -85 1770 l35 58 101 -6 c56 -4 156
-13 222 -21z m723 -195 c73 -32 195 -92 272 -135 l139 -76 -51 -62 c-178 -213
-310 -483 -370 -759 -20 -91 -22 -127 -21 -322 1 -121 3 -237 5 -258 3 -38 2
-39 -54 -62 l-57 -23 -40 61 c-319 495 -332 1126 -33 1645 42 72 22 73 210 -9z
m669 -411 c225 -151 562 -407 569 -433 3 -10 -123 -114 -301 -247 -138 -104
-327 -231 -470 -317 l-120 -72 -13 43 c-52 177 -63 468 -24 665 13 62 38 158
58 214 39 112 109 259 123 259 5 0 85 -51 178 -112z"/>
<path d="M858 2770 c-112 -33 -177 -150 -148 -260 24 -92 143 -170 232 -153
110 20 178 101 178 209 0 68 -20 112 -70 158 -55 50 -125 66 -192 46z"/>
</g>
</svg>
