<?xml version="1.0" standalone="no"?>
<!DOCTYPE svg PUBLIC "-//W3C//DTD SVG 20010904//EN"
 "http://www.w3.org/TR/2001/REC-SVG-20010904/DTD/svg10.dtd">
<svg version="1.0" xmlns="http://www.w3.org/2000/svg"
 width="700.000000pt" height="700.000000pt" viewBox="0 0 700.000000 700.000000"
 preserveAspectRatio="xMidYMid meet">
<metadata>
Created by potrace 1.11, written by Peter Selinger 2001-2013
</metadata>
<g transform="translate(0.000000,700.000000) scale(0.100000,-0.100000)"
fill="#000000" stroke="none">
<path d="M6465 4680 c-35 -5 -55 -22 -165 -135 -410 -421 -782 -783 -992 -963
-43 -37 -78 -71 -77 -77 0 -5 32 -37 70 -70 115 -99 129 -112 263 -238 129
-121 520 -510 750 -745 l119 -122 48 0 c27 0 49 2 49 5 0 3 -11 27 -24 53 -76
150 -174 445 -201 605 -35 204 -48 338 -48 512 0 108 10 280 18 320 2 11 7 40
10 65 8 66 17 115 50 256 28 117 93 307 142 414 62 134 62 131 -12 120z"/>
<path d="M2407 4674 c-1 -1 -31 -4 -67 -8 -191 -16 -490 -90 -697 -172 -375
-147 -733 -397 -977 -680 -97 -113 -100 -117 -166 -212 -71 -104 -73 -86 25
-223 64 -88 86 -116 165 -203 342 -377 802 -646 1315 -767 99 -23 235 -48 235
-43 0 2 -16 29 -36 61 -54 83 -138 264 -174 372 -36 106 -75 291 -85 399 -9
93 -9 283 0 342 55 384 163 651 386 945 37 50 90 113 118 142 l50 52 -45 -2
c-25 -1 -46 -2 -47 -3z m-1150 -939 c104 -30 166 -114 167 -225 0 -132 -95
-232 -223 -233 -76 -1 -122 17 -170 63 -50 49 -73 100 -74 165 0 71 18 118 68
169 64 66 142 86 232 61z"/>
<path d="M2586 4604 c-89 -149 -189 -387 -210 -494 -3 -14 -9 -48 -15 -77 -10
-51 -20 -119 -27 -178 -5 -47 -5 -276 1 -315 2 -19 7 -57 10 -85 4 -27 11 -68
17 -90 5 -22 11 -47 13 -55 30 -155 139 -403 252 -572 113 -170 308 -384 340
-375 10 3 44 8 75 12 32 3 60 10 63 15 3 4 -6 27 -19 51 -57 104 -136 338
-156 463 -5 33 -13 72 -16 86 -10 42 -13 371 -4 430 17 112 22 137 40 210 77
304 246 609 469 845 52 56 61 69 47 77 -19 11 -272 75 -329 83 -23 4 -44 8
-47 10 -3 2 -33 6 -67 10 -35 4 -75 9 -90 11 -16 2 -89 7 -164 10 l-137 7 -46
-79z"/>
<path d="M3566 4448 c-90 -151 -190 -405 -212 -538 -3 -14 -7 -36 -9 -50 -13
-62 -15 -78 -21 -145 -36 -379 49 -735 258 -1086 60 -101 58 -100 152 -59 45
21 48 24 42 53 -14 70 -21 171 -21 307 0 224 20 345 95 580 22 71 107 256 151
329 28 48 137 209 157 232 83 97 101 124 89 130 -6 4 -37 21 -67 38 -149 85
-383 197 -515 247 l-63 23 -36 -61z"/>
<path d="M4304 4023 c-63 -133 -119 -304 -144 -443 -44 -235 -32 -531 30 -752
l11 -37 72 43 c190 113 339 213 537 359 145 108 360 278 379 301 10 11 -15 35
-131 128 -79 63 -179 141 -223 174 -44 32 -82 61 -85 64 -3 3 -34 25 -70 50
-36 24 -86 58 -111 76 -59 41 -207 134 -214 134 -3 0 -26 -44 -51 -97z"/>
</g>
</svg>
